<?xml version="1.0" encoding="UTF-8" ?>
<!DOCTYPE svg PUBLIC "-//W3C//DTD SVG 1.1//EN" "http://www.w3.org/Graphics/SVG/1.1/DTD/svg11.dtd">
<svg width="542pt" height="408pt" viewBox="0 0 542 408" version="1.1" xmlns="http://www.w3.org/2000/svg">
<g id="#4b3b2d59">
<path fill="#4b3b2d" opacity="0.35" d=" M 251.73 0.00 L 261.14 0.00 C 260.92 0.66 260.48 1.97 260.27 2.62 C 255.28 3.87 250.01 4.10 245.32 6.35 C 240.95 8.41 236.17 9.46 231.93 11.81 C 219.86 18.19 208.16 25.80 199.09 36.14 C 192.39 43.92 186.41 52.46 182.48 61.99 C 180.43 61.47 177.98 61.28 176.74 59.32 C 174.59 56.89 173.00 52.88 169.08 53.37 C 159.55 53.25 149.77 52.96 140.56 55.81 C 134.54 57.83 127.99 58.09 122.41 61.37 C 102.74 69.47 85.97 85.59 79.27 106.03 C 76.01 113.25 75.62 121.27 75.46 129.07 C 75.38 135.38 75.78 141.71 76.80 147.95 C 77.52 152.11 79.91 155.82 80.28 160.06 C 79.66 164.40 76.28 167.77 75.72 172.14 C 74.68 181.84 76.33 192.09 81.65 200.40 C 84.86 204.85 90.63 207.69 91.52 213.59 C 92.41 220.63 95.50 227.05 98.78 233.25 C 100.53 236.54 103.20 239.36 104.36 242.95 C 105.20 248.26 104.50 253.65 104.67 259.00 C 104.52 263.23 105.31 268.05 102.50 271.63 C 98.23 277.25 91.68 280.35 85.58 283.54 C 74.34 288.45 63.03 293.15 51.66 297.75 C 41.14 302.64 31.00 308.53 22.09 315.99 C 12.99 324.59 6.05 335.57 2.64 347.65 C 1.98 347.63 0.66 347.60 0.00 347.58 L 0.00 340.91 C 0.51 340.69 1.52 340.25 2.02 340.03 C 9.21 319.86 27.33 305.90 46.09 297.01 C 56.21 292.39 66.63 288.43 76.69 283.67 C 82.20 281.86 87.35 279.16 92.47 276.46 C 97.29 273.71 101.77 268.96 101.52 263.04 C 101.34 256.71 102.06 250.31 101.22 244.02 C 97.53 236.02 91.31 228.90 90.13 219.88 C 89.38 214.90 87.15 210.05 83.34 206.68 C 79.54 203.25 76.55 198.90 74.84 194.08 C 73.83 189.44 73.64 184.67 72.82 179.99 C 71.88 174.05 74.36 168.38 75.37 162.63 C 76.00 159.20 75.25 155.74 74.66 152.36 C 73.69 146.94 73.67 141.41 72.88 135.96 C 71.69 128.62 73.66 121.33 73.96 114.01 C 74.03 109.39 75.79 105.11 77.75 101.01 C 82.16 89.17 90.69 79.37 100.13 71.20 C 104.84 67.41 109.78 63.78 115.37 61.38 C 119.36 59.62 123.06 57.16 127.34 56.10 C 134.51 54.17 141.44 51.11 148.90 50.49 C 155.93 49.75 163.03 49.03 170.09 49.75 C 175.08 50.39 176.85 56.03 181.16 58.03 C 186.24 45.23 195.62 34.76 205.62 25.54 C 215.37 17.44 226.06 10.04 238.19 6.06 C 242.50 3.56 247.54 2.72 251.73 0.00 Z" />
<path fill="#4b3b2d" opacity="0.35" d=" M 300.19 0.00 L 304.19 0.00 C 304.80 3.57 306.23 6.90 308.12 9.97 C 309.95 12.91 310.77 16.96 314.21 18.51 C 322.35 22.03 331.33 23.87 338.51 29.34 C 345.99 34.65 351.89 42.02 356.31 50.01 C 357.54 52.04 359.01 53.91 360.46 55.79 C 366.17 55.33 371.33 52.58 376.95 51.61 C 386.85 49.71 396.99 49.31 407.06 49.55 C 411.09 49.30 414.30 52.36 416.39 55.47 C 418.36 58.91 419.70 62.67 421.76 66.07 C 426.60 68.53 431.66 70.45 436.93 71.75 C 442.37 74.91 447.82 78.35 452.06 83.07 C 456.06 87.12 458.88 92.11 462.03 96.80 C 463.36 99.82 464.18 103.05 465.85 105.93 C 469.14 111.99 467.33 119.18 469.49 125.53 C 472.12 132.93 472.11 141.33 469.36 148.71 C 467.20 154.91 466.76 161.67 467.75 168.15 C 468.88 174.71 468.79 181.43 468.16 188.05 C 467.73 192.78 465.29 196.97 462.96 200.99 C 460.11 205.90 455.00 209.11 452.50 214.26 C 451.27 217.63 451.64 221.48 449.64 224.58 C 447.14 228.82 445.71 233.65 442.62 237.54 C 440.34 240.70 437.42 243.47 435.80 247.07 C 435.13 252.33 435.58 257.67 435.50 262.97 C 435.43 268.59 440.25 272.52 444.35 275.59 C 449.68 278.91 455.27 281.90 461.30 283.74 C 475.44 290.39 490.45 295.09 504.04 302.90 C 518.25 311.37 530.93 323.19 538.12 338.29 C 538.87 340.05 539.41 341.89 539.95 343.74 C 540.65 344.46 541.33 345.19 542.00 345.97 L 542.00 349.07 L 541.51 351.16 C 538.12 350.33 538.05 346.25 536.82 343.60 C 529.75 324.54 513.30 310.66 495.46 301.89 C 490.34 299.63 485.53 296.64 480.08 295.17 C 466.75 289.33 452.49 285.14 440.53 276.56 C 437.30 273.85 433.19 270.75 433.45 266.04 C 433.37 259.66 433.34 253.28 433.46 246.90 C 433.32 243.59 435.97 241.25 437.71 238.75 C 441.96 233.51 444.89 227.40 447.75 221.34 C 449.43 217.84 449.46 213.77 451.31 210.34 C 453.37 207.12 456.54 204.79 458.72 201.66 C 463.63 194.43 467.03 185.88 466.46 177.00 C 466.67 172.51 464.15 168.70 462.67 164.66 C 460.93 158.33 466.89 153.26 466.47 146.96 C 466.50 134.14 467.89 120.67 462.74 108.56 C 458.65 96.13 451.13 84.13 439.57 77.44 C 433.41 73.26 424.98 73.90 419.46 68.58 C 415.62 64.06 415.69 56.48 409.96 53.53 C 401.48 51.44 392.66 53.41 384.10 54.06 C 375.70 54.65 367.93 58.71 359.45 58.64 C 354.23 53.94 351.63 47.24 347.18 41.90 C 342.08 34.76 334.50 29.79 326.65 26.15 C 320.96 24.52 315.16 23.09 310.01 20.05 C 306.59 13.44 303.16 6.83 300.19 0.00 Z" />
<path fill="#4b3b2d" opacity="0.35" d=" M 256.75 25.03 C 266.24 23.52 275.60 18.88 285.38 20.94 C 290.24 25.46 291.87 32.16 295.24 37.66 C 297.49 41.37 302.14 41.53 305.99 41.50 C 313.59 41.11 320.56 45.24 326.14 50.01 C 335.53 58.57 341.36 70.46 343.70 82.85 C 347.42 92.83 346.57 103.58 346.55 114.02 C 346.49 121.26 343.60 128.18 339.81 134.23 C 338.53 136.41 336.34 139.17 338.24 141.65 C 341.19 146.27 346.85 149.85 346.63 155.93 C 347.51 162.43 344.03 168.31 340.19 173.22 C 337.05 176.96 330.53 178.34 330.21 184.00 C 329.45 190.68 326.90 196.94 324.58 203.20 C 321.28 210.34 317.63 217.46 312.50 223.48 C 309.59 226.92 304.56 229.09 304.06 234.08 C 303.00 243.34 304.31 252.72 303.50 262.00 C 303.43 263.68 302.26 264.98 301.16 266.12 C 295.84 271.21 289.07 274.31 282.49 277.41 C 276.85 280.45 270.11 279.92 263.97 279.17 C 255.94 276.08 247.93 272.30 241.38 266.60 C 237.72 263.57 237.65 258.40 237.96 254.05 C 238.56 247.35 238.24 240.62 238.34 233.90 C 237.82 233.69 236.78 233.26 236.26 233.05 C 238.54 231.54 236.38 229.85 235.15 228.76 C 223.64 219.49 217.88 205.22 213.29 191.61 C 211.68 187.27 212.93 181.39 208.57 178.48 C 205.70 175.85 200.50 174.43 201.19 169.61 C 200.66 169.54 200.14 169.49 199.63 169.44 C 199.96 170.35 200.61 172.16 200.94 173.07 C 199.28 169.68 197.13 166.50 195.94 162.90 C 195.13 159.45 195.10 155.79 195.91 152.34 C 197.25 148.75 200.44 146.29 202.32 143.01 C 203.25 140.85 202.88 138.38 202.26 136.18 C 200.49 130.60 198.48 125.10 196.61 119.55 C 195.10 113.51 194.81 107.21 194.64 101.00 C 195.08 93.47 195.08 85.64 198.30 78.65 C 205.20 55.52 224.33 37.29 246.49 28.58 C 249.79 27.10 253.13 25.57 256.75 25.03 M 269.96 25.80 C 264.62 26.59 259.09 26.81 254.12 29.14 C 249.41 31.24 244.55 32.98 239.77 34.90 C 236.32 37.60 231.90 38.67 228.65 41.67 C 223.44 45.69 218.47 50.09 214.26 55.17 C 209.77 60.58 206.51 66.85 203.41 73.11 C 201.28 77.17 201.39 81.92 199.46 86.06 C 196.25 92.93 197.64 100.72 197.45 108.04 C 197.19 113.38 200.57 117.88 201.28 123.04 C 201.85 129.08 206.10 133.89 207.45 139.70 C 207.37 144.56 202.45 146.73 200.44 150.61 C 198.91 153.40 196.43 156.55 198.18 159.84 C 199.84 163.69 201.25 167.79 203.97 171.05 C 206.46 174.41 211.65 174.71 213.32 178.81 C 214.96 185.46 217.49 191.85 218.65 198.62 C 222.36 205.75 225.68 213.12 230.34 219.71 C 232.12 223.56 236.94 224.51 238.80 228.28 C 240.19 230.97 241.45 233.87 241.46 236.96 C 241.51 244.27 241.34 251.57 241.42 258.88 C 241.40 261.31 242.32 263.90 244.44 265.26 C 249.16 268.35 253.72 271.90 259.15 273.68 C 263.09 275.02 266.63 277.94 271.00 277.55 C 275.39 277.97 278.89 274.92 282.86 273.65 C 287.81 272.10 291.98 268.92 296.31 266.16 C 298.83 264.62 300.79 262.02 301.30 259.09 C 301.90 249.79 300.59 240.35 301.91 231.12 C 303.03 225.34 309.68 224.01 312.10 219.10 C 316.43 213.15 319.24 206.33 322.84 199.95 C 324.66 196.23 324.16 191.85 325.99 188.11 C 327.39 185.14 327.70 181.84 328.74 178.75 C 330.13 175.40 333.99 174.59 336.65 172.59 C 340.18 169.62 341.45 165.02 343.63 161.12 C 346.36 155.25 341.50 149.25 337.11 145.76 C 334.15 143.75 333.94 139.79 334.62 136.60 C 336.25 132.48 340.40 129.61 340.86 124.96 C 341.53 120.18 343.73 115.78 344.34 111.00 C 344.85 104.28 343.94 97.46 341.90 91.04 C 340.19 85.70 340.87 79.81 338.38 74.70 C 335.49 68.39 332.75 61.89 328.40 56.43 C 322.93 49.54 314.46 45.88 306.07 44.01 C 302.21 43.05 297.70 44.29 294.38 41.61 C 291.39 39.75 291.32 35.93 289.86 33.07 C 287.88 29.45 285.58 25.95 282.45 23.22 C 278.24 23.85 274.18 25.23 269.96 25.80 Z" />
<path fill="#4b3b2d" opacity="0.35" d=" M 140.00 78.54 C 145.02 77.57 149.80 75.29 154.99 75.36 C 157.08 75.50 159.77 74.98 161.14 76.99 C 163.33 79.83 164.19 83.57 166.87 86.06 C 169.20 88.48 172.29 90.13 174.27 92.88 C 174.98 100.52 173.73 108.30 175.26 115.88 C 176.30 123.65 181.06 131.07 179.10 139.08 C 177.37 142.95 174.72 146.57 174.46 150.95 C 173.85 157.85 174.07 165.22 177.24 171.54 C 178.93 175.25 179.73 179.41 182.41 182.62 C 185.76 187.98 191.65 191.24 194.55 196.92 C 195.92 200.73 195.47 205.06 197.45 208.70 C 199.09 211.83 200.27 215.15 201.53 218.44 C 205.33 226.48 210.94 233.45 216.28 240.48 C 217.18 244.94 216.65 249.55 216.77 254.07 C 216.63 258.55 217.14 263.10 216.33 267.52 C 214.17 271.87 210.13 274.84 206.86 278.30 C 206.11 278.24 204.62 278.11 203.88 278.04 L 203.55 277.91 C 206.99 273.09 212.72 269.80 214.44 263.85 C 215.51 258.30 215.47 252.56 215.00 246.95 C 214.55 241.56 210.19 237.86 207.26 233.70 C 204.08 229.09 200.70 224.50 198.74 219.20 C 197.10 214.90 194.50 210.98 193.53 206.44 C 192.41 202.47 192.18 197.92 189.17 194.80 C 185.86 191.11 182.17 187.71 179.44 183.53 C 173.69 174.12 169.56 163.18 170.74 151.98 C 171.39 145.80 174.80 140.46 177.48 135.01 C 174.43 127.64 171.81 119.95 171.38 111.93 C 170.83 106.13 169.85 100.22 171.53 94.50 C 168.39 91.22 163.76 89.19 162.06 84.72 C 160.94 82.47 159.99 79.16 156.82 79.43 C 150.24 79.34 143.62 80.44 137.27 82.11 C 130.54 84.87 123.60 87.53 117.83 92.05 C 116.83 92.78 115.76 93.52 114.47 93.41 L 112.42 92.40 C 120.42 85.87 129.64 80.10 140.00 78.54 Z" />
<path fill="#4b3b2d" opacity="0.35" d=" M 377.00 77.33 C 383.75 75.48 390.94 74.59 397.87 75.87 C 402.21 79.57 402.01 86.97 407.55 89.70 C 412.22 91.26 417.40 89.79 422.03 91.61 C 426.90 93.61 431.74 96.24 435.04 100.45 C 438.57 104.62 440.52 109.79 442.72 114.71 C 446.06 122.36 445.62 130.89 445.69 139.04 C 445.61 144.42 445.74 150.06 443.42 155.06 C 442.13 157.93 439.85 160.24 438.67 163.15 C 438.40 164.87 438.50 166.61 438.50 168.35 C 441.28 171.10 444.42 173.98 445.25 177.98 C 445.80 181.83 444.16 185.70 441.97 188.79 C 439.34 192.42 433.85 193.94 433.17 198.86 C 430.46 210.01 426.45 221.56 417.66 229.42 C 415.53 231.56 412.18 233.42 412.47 236.90 C 412.14 243.62 412.85 250.36 412.29 257.07 C 412.19 259.38 410.85 261.45 408.88 262.60 C 402.95 266.37 396.30 269.88 389.06 269.45 C 385.92 269.67 381.61 268.68 379.82 272.09 C 379.06 280.87 380.15 289.74 379.19 298.53 C 372.70 299.16 367.22 295.09 361.54 292.66 C 347.44 286.92 332.64 279.52 324.51 266.02 C 324.25 257.16 324.45 248.29 324.49 239.43 L 325.79 239.57 C 325.67 239.02 325.42 237.94 325.30 237.40 C 325.78 237.46 326.75 237.57 327.24 237.63 C 328.31 236.02 329.21 234.28 329.76 232.41 C 330.29 232.51 330.83 232.60 331.37 232.70 C 331.93 231.39 332.42 230.05 332.77 228.67 L 333.64 228.54 L 333.50 227.24 C 333.98 227.32 334.93 227.48 335.41 227.57 C 335.42 226.82 335.44 225.34 335.45 224.60 C 336.06 223.93 336.66 223.26 337.25 222.58 C 337.40 220.51 338.78 219.12 340.39 217.99 C 340.41 216.81 340.43 215.63 340.45 214.46 L 341.30 214.51 C 341.71 212.19 342.28 209.92 342.78 207.62 C 343.18 207.60 344.00 207.56 344.41 207.54 C 345.22 203.55 345.91 199.54 346.62 195.53 C 348.15 193.92 349.60 192.23 350.88 190.42 C 351.50 190.40 352.75 190.36 353.38 190.35 C 353.37 189.62 353.35 188.16 353.34 187.43 L 354.63 187.64 L 354.43 186.36 C 355.15 186.36 356.59 186.38 357.31 186.39 C 357.37 185.10 357.44 183.82 357.50 182.54 L 358.56 182.61 L 358.56 181.39 C 359.04 181.40 359.99 181.43 360.46 181.45 C 360.45 180.73 360.42 179.30 360.40 178.58 L 361.56 178.54 L 361.37 177.42 L 362.48 177.36 C 362.44 176.06 362.41 174.77 362.38 173.48 L 363.58 173.43 C 363.51 172.69 363.38 171.22 363.31 170.49 L 364.63 170.48 L 364.17 169.29 L 365.46 169.47 C 365.45 167.80 365.44 166.13 365.44 164.46 L 366.51 164.55 C 366.53 159.19 366.58 153.83 366.52 148.47 L 365.57 148.52 C 365.07 146.73 366.48 143.11 362.69 144.13 C 363.26 143.78 364.41 143.08 364.98 142.73 C 364.14 142.68 363.31 142.62 362.48 142.56 C 362.38 138.19 362.40 133.83 362.47 129.47 L 363.74 129.49 C 363.62 128.94 363.36 127.83 363.23 127.27 C 363.75 127.33 364.79 127.43 365.31 127.49 C 365.39 124.88 365.47 122.27 365.52 119.67 C 365.75 119.44 366.21 118.98 366.44 118.75 L 367.33 117.89 C 367.75 110.93 367.59 103.94 367.48 96.96 C 367.45 91.67 364.67 86.59 365.77 81.28 C 368.90 78.66 373.22 78.43 377.00 77.33 M 375.35 80.70 C 372.67 80.87 370.16 82.27 368.62 84.47 C 368.42 86.70 369.92 88.69 370.30 90.86 C 370.91 99.06 372.31 107.31 370.82 115.51 C 370.50 121.90 368.85 128.16 366.09 133.93 C 364.57 136.74 366.99 139.55 367.95 142.15 C 373.64 152.85 371.33 165.86 366.35 176.38 C 363.57 183.35 358.45 188.99 353.29 194.30 C 349.27 198.01 349.43 203.90 347.83 208.77 C 347.11 212.55 344.14 215.34 343.23 219.04 C 342.39 223.07 339.44 226.09 337.57 229.63 C 334.73 234.57 330.31 238.44 327.70 243.53 C 326.92 249.31 327.64 255.20 327.37 261.03 C 326.78 265.80 330.56 269.34 333.50 272.53 C 339.80 279.40 348.57 283.01 356.68 287.20 C 360.77 289.16 365.25 290.31 369.00 292.96 C 371.34 294.52 375.32 295.75 377.42 293.31 C 377.80 286.24 377.21 279.16 377.53 272.10 C 377.51 269.79 379.40 268.17 380.66 266.43 C 387.50 266.31 395.06 267.07 401.05 263.11 C 403.75 261.49 407.95 261.41 408.62 257.65 C 410.73 249.93 408.51 241.72 409.78 233.88 C 410.56 230.90 413.20 229.18 415.50 227.44 C 419.64 224.42 421.69 219.58 424.18 215.29 C 427.49 209.16 428.18 202.11 430.66 195.71 C 432.12 191.52 437.10 190.81 439.35 187.29 C 442.18 184.19 441.90 179.66 441.25 175.81 C 439.29 172.63 434.95 170.61 435.41 166.32 C 434.62 161.02 438.78 157.26 441.00 152.99 C 443.56 141.82 442.49 130.23 441.07 119.00 C 439.11 114.84 436.90 110.75 436.11 106.15 C 432.19 102.26 428.84 97.42 423.26 95.79 C 417.87 92.22 411.16 93.63 405.19 92.01 C 400.75 89.91 399.43 84.91 398.49 80.53 C 396.43 79.59 394.35 78.24 391.98 78.54 C 386.43 79.20 380.91 80.16 375.35 80.70 Z" />
<path fill="#4b3b2d" opacity="0.35" d=" M 101.70 187.49 C 105.22 186.83 108.45 189.48 110.01 192.42 C 112.20 197.23 112.94 202.52 114.32 207.58 C 115.89 214.70 118.94 221.56 123.70 227.13 C 125.60 229.35 128.41 231.03 129.39 233.91 C 130.55 242.61 128.27 251.58 130.70 260.15 C 136.14 262.05 141.10 265.53 147.00 265.89 C 151.95 266.75 157.08 265.85 161.98 266.91 C 163.91 268.70 164.60 271.39 164.56 273.95 C 164.62 280.81 164.39 287.68 164.55 294.54 C 166.77 294.45 169.09 294.76 171.22 294.03 C 180.98 288.61 191.70 285.03 201.05 278.83 C 201.50 278.83 202.40 278.83 202.85 278.84 C 203.24 279.22 204.01 279.98 204.40 280.37 C 197.27 284.71 190.14 289.27 182.15 291.89 C 176.20 294.71 170.37 297.98 163.92 299.53 C 160.72 290.70 163.44 281.13 162.20 272.03 C 160.17 268.38 155.41 269.73 152.00 269.47 C 143.72 269.98 135.67 266.68 129.02 261.97 C 125.21 259.19 126.84 254.00 125.87 250.03 C 126.59 245.71 126.57 241.31 126.38 236.96 C 126.41 233.95 123.96 231.90 122.07 229.90 C 116.77 224.03 113.27 216.75 111.44 209.08 C 108.83 204.03 109.96 197.84 106.93 193.00 C 104.66 191.27 101.75 190.56 99.60 188.61 L 101.70 187.49 Z" />
<path fill="#4b3b2d" opacity="0.35" d=" M 117.65 282.68 C 122.04 282.30 126.54 282.56 130.69 284.10 C 131.00 284.48 131.60 285.25 131.91 285.63 C 132.58 285.55 133.92 285.39 134.59 285.30 L 134.39 286.55 C 136.46 286.55 138.54 286.59 140.61 286.61 C 140.52 287.01 140.33 287.82 140.24 288.23 C 141.66 289.12 143.08 290.01 144.51 290.89 C 144.48 291.56 144.41 292.91 144.37 293.58 L 145.54 293.37 C 145.52 295.13 145.51 296.89 145.52 298.66 L 144.41 298.33 C 144.46 301.05 144.43 303.76 144.43 306.48 C 143.96 306.47 143.03 306.46 142.56 306.45 C 142.53 308.01 142.45 309.57 142.42 311.12 C 138.71 312.74 134.82 314.37 132.09 317.48 C 129.65 317.50 127.21 317.51 124.77 317.46 C 124.53 315.33 123.29 313.65 121.81 312.19 C 121.32 311.27 120.84 310.35 120.36 309.43 L 119.49 309.43 C 119.49 308.81 119.49 307.58 119.49 306.96 C 118.66 305.88 117.74 304.78 117.36 303.46 L 116.45 303.38 C 116.50 302.67 116.59 301.24 116.64 300.53 L 115.23 300.45 L 115.66 298.08 C 115.15 298.55 114.14 299.48 113.63 299.95 C 113.61 298.43 113.60 296.90 113.60 295.38 L 112.30 295.59 C 112.73 293.18 113.29 290.81 113.68 288.40 C 114.13 288.46 115.04 288.58 115.50 288.64 C 115.48 288.09 115.46 287.00 115.44 286.45 C 115.95 286.45 116.98 286.46 117.49 286.46 C 117.54 285.20 117.60 283.94 117.65 282.68 M 120.23 288.26 C 119.03 290.07 117.99 291.98 117.07 293.95 C 118.70 296.18 120.78 298.29 121.30 301.11 C 122.09 305.08 125.57 307.79 126.43 311.78 C 130.10 311.55 134.84 312.27 137.21 308.73 C 139.05 305.47 140.06 301.50 139.08 297.81 C 139.35 296.28 139.64 294.74 139.94 293.22 C 136.28 291.85 132.11 291.29 129.21 288.42 C 126.22 288.22 123.22 288.21 120.23 288.26 Z" />
<path fill="#4b3b2d" opacity="0.35" d=" M 296.20 294.43 C 300.90 291.90 305.36 288.93 310.11 286.51 C 313.71 285.97 316.31 289.18 318.41 291.61 C 321.31 295.09 320.33 299.87 319.80 303.97 C 319.23 314.55 315.57 324.60 313.59 334.95 C 312.74 340.46 309.93 345.43 309.17 350.97 C 308.45 356.28 305.15 360.78 304.26 366.06 C 303.65 369.56 302.35 372.86 301.03 376.14 C 299.58 379.68 299.43 383.89 296.47 386.64 C 295.13 386.62 293.79 386.62 292.46 386.63 C 289.69 381.88 290.87 376.24 289.73 371.08 C 287.19 355.44 287.76 339.55 285.70 323.87 C 285.16 317.89 284.11 311.97 283.49 306.00 C 283.13 303.17 284.39 300.38 286.55 298.58 C 289.19 296.07 293.07 296.01 296.20 294.43 M 301.72 294.71 C 298.12 297.60 293.22 297.93 289.55 300.73 C 287.44 301.94 286.42 304.50 287.08 306.85 C 288.99 316.84 288.31 327.02 289.35 337.09 C 289.29 344.47 291.19 351.65 292.25 358.91 C 292.79 366.57 293.86 374.18 293.47 381.88 C 293.85 381.72 294.62 381.39 295.00 381.22 C 295.73 379.33 296.64 377.52 297.64 375.76 C 301.49 368.27 301.75 359.45 305.97 352.13 C 308.22 347.29 306.93 341.57 309.59 336.84 C 312.83 330.75 311.71 323.57 313.91 317.18 C 316.17 309.50 317.29 301.42 316.32 293.43 C 314.82 291.76 312.75 290.75 310.91 289.50 C 308.02 291.53 304.61 292.67 301.72 294.71 Z" />
<path fill="#4b3b2d" opacity="0.35" d=" M 227.78 287.58 C 229.22 286.67 231.24 285.91 232.83 286.93 C 237.31 289.44 241.65 292.20 246.20 294.59 C 249.90 296.16 254.55 296.54 256.92 300.24 C 259.92 303.97 257.76 308.82 257.49 313.05 C 254.83 330.62 254.98 348.40 253.17 366.04 C 252.46 371.37 251.79 376.72 251.33 382.09 C 251.39 384.36 249.53 385.91 248.25 387.56 C 246.50 386.59 243.98 386.17 243.39 383.95 C 241.35 376.62 238.25 369.64 236.68 362.18 C 233.24 355.70 232.91 348.25 230.26 341.50 C 228.53 336.78 228.10 331.73 226.81 326.90 C 224.33 317.41 222.15 307.77 221.58 297.95 C 221.32 293.58 224.41 289.94 227.78 287.58 M 231.10 289.50 C 229.23 290.74 227.16 291.78 225.65 293.49 C 224.76 301.42 225.74 309.45 228.07 317.06 C 230.29 323.74 229.19 331.23 232.69 337.52 C 234.98 341.67 234.17 346.59 235.55 351.00 C 236.47 353.76 238.37 356.12 238.97 359.01 C 239.78 363.31 241.41 367.38 242.62 371.58 C 243.45 375.09 245.97 377.87 246.97 381.32 C 247.36 381.46 248.14 381.72 248.53 381.86 C 248.48 375.85 248.44 369.84 249.38 363.90 C 249.65 354.51 253.13 345.49 252.61 336.07 C 252.54 330.69 253.72 325.37 253.45 319.99 C 253.09 314.08 254.88 308.31 254.55 302.40 C 251.24 299.28 246.89 297.93 242.76 296.31 C 239.16 293.54 234.85 292.00 231.10 289.50 Z" />
<path fill="#4b3b2d" opacity="0.35" d=" M 439.82 304.91 C 441.21 304.25 442.58 303.53 443.98 302.86 C 450.29 305.78 456.95 307.87 463.14 311.07 C 469.48 312.53 475.01 316.00 481.07 318.20 C 491.46 323.83 502.99 328.87 510.07 338.81 C 513.10 343.19 516.57 347.84 516.68 353.40 C 514.95 354.50 513.17 355.76 511.00 355.56 C 495.00 355.66 478.99 355.54 462.98 355.62 C 460.84 355.57 458.65 355.68 456.56 355.21 C 452.86 353.41 451.02 349.50 448.64 346.37 C 444.36 340.47 438.49 336.00 433.71 330.56 C 432.96 326.34 433.09 321.75 435.21 317.91 C 437.41 313.83 438.31 309.26 439.82 304.91 M 444.07 306.55 C 439.75 311.52 439.58 318.48 436.11 323.95 C 434.14 327.25 437.29 330.32 439.57 332.40 C 446.16 338.00 451.55 344.84 456.13 352.15 C 458.65 352.97 461.28 353.43 463.95 353.37 C 476.62 353.32 489.30 353.34 501.98 353.35 C 505.83 353.31 509.93 353.90 513.48 351.99 C 512.47 346.65 508.91 342.41 505.87 338.10 C 499.86 332.27 492.95 327.06 485.08 324.08 C 479.58 320.52 473.17 318.82 467.46 315.65 C 463.87 313.46 459.28 313.80 455.95 311.10 C 452.44 308.48 447.76 308.79 444.07 306.55 Z" />
<path fill="#4b3b2d" opacity="0.35" d=" M 75.08 310.84 C 80.46 308.16 85.97 305.32 91.94 304.37 C 95.84 303.61 96.91 308.04 98.59 310.55 C 101.86 315.81 104.10 321.63 107.44 326.84 C 107.50 328.33 107.56 329.83 107.62 331.33 C 102.59 336.71 96.82 341.45 92.63 347.57 C 90.55 350.45 88.61 353.85 85.18 355.29 C 83.14 355.68 81.05 355.58 78.99 355.61 C 62.63 355.53 46.28 355.68 29.92 355.55 C 27.38 355.76 23.74 354.13 24.47 351.04 C 26.92 339.58 35.80 330.77 45.49 324.82 C 55.02 319.51 64.72 314.35 75.08 310.84 M 81.82 310.84 C 78.55 313.43 74.21 313.62 70.66 315.65 C 65.03 318.81 58.87 320.90 53.34 324.26 C 48.01 326.17 43.54 329.67 39.10 333.07 C 33.34 337.99 28.42 344.69 28.28 352.56 C 33.13 353.78 38.14 353.28 43.08 353.34 C 55.06 353.34 67.05 353.34 79.03 353.36 C 81.36 353.17 84.10 353.41 85.99 351.78 C 88.97 348.44 90.83 344.26 93.94 341.03 C 97.06 337.72 100.30 334.52 103.62 331.42 C 103.54 329.54 103.73 327.60 103.22 325.77 C 100.40 319.91 96.36 314.64 94.35 308.41 C 90.09 308.37 85.43 308.16 81.82 310.84 Z" />
<path fill="#4b3b2d" opacity="0.35" d=" M 185.45 313.31 C 189.82 311.70 193.97 309.62 198.13 307.55 C 202.60 310.62 203.09 316.37 204.04 321.24 C 205.39 330.39 207.10 339.53 210.11 348.31 C 212.06 353.62 212.20 359.46 214.80 364.55 C 217.16 369.07 216.87 374.48 219.64 378.81 C 220.76 380.52 221.15 383.01 223.30 383.78 C 222.52 387.29 218.16 388.38 215.04 388.38 C 179.34 388.33 143.63 388.38 107.93 388.36 C 104.74 388.56 101.86 387.05 99.34 385.27 C 101.91 375.50 104.83 365.44 111.39 357.55 C 112.04 357.42 113.35 357.17 114.01 357.05 L 114.56 358.28 C 110.97 362.47 108.39 367.37 106.06 372.33 C 104.59 376.48 104.10 380.90 103.03 385.16 C 113.59 387.14 124.39 385.88 135.06 386.22 C 143.38 386.61 151.69 385.38 160.00 386.14 C 170.34 386.38 180.69 386.15 191.03 386.23 C 200.38 386.07 209.80 386.82 219.07 385.24 C 216.85 380.74 215.42 375.93 213.87 371.18 C 211.90 366.28 210.04 361.31 208.87 356.14 C 207.49 349.69 204.37 343.69 203.72 337.06 C 203.30 333.39 202.60 329.75 201.54 326.21 C 200.06 321.30 199.53 316.18 198.24 311.23 C 188.86 315.00 179.88 319.64 170.67 323.77 C 155.92 329.25 141.75 336.45 128.75 345.35 C 125.86 347.12 123.67 350.73 119.97 350.66 C 120.37 349.30 120.50 347.68 121.88 346.91 C 130.90 339.69 140.90 333.81 151.29 328.80 C 157.02 326.66 162.24 323.38 168.05 321.41 C 173.59 318.12 179.91 316.58 185.45 313.31 Z" />
<path fill="#4b3b2d" opacity="0.35" d=" M 342.18 308.21 C 347.10 308.13 351.01 311.38 355.53 312.80 C 361.41 316.22 368.08 317.88 373.98 321.29 C 379.70 323.46 385.04 326.46 390.73 328.72 C 402.90 334.38 414.39 341.58 424.46 350.49 C 430.39 355.83 434.48 362.79 438.09 369.82 C 439.50 375.48 442.39 380.93 441.66 386.92 C 433.55 388.70 425.20 387.20 417.00 387.98 C 413.67 388.34 410.32 388.56 406.99 388.14 C 403.01 387.51 399.04 388.62 395.05 388.32 C 385.40 387.29 375.69 387.99 366.00 387.77 C 358.63 387.44 351.30 389.03 343.94 388.15 C 336.56 387.20 329.07 388.44 321.72 387.31 C 317.82 382.72 323.85 378.29 324.54 373.70 C 325.24 367.39 328.95 361.99 330.01 355.78 C 331.61 347.75 335.10 340.21 336.23 332.05 C 338.00 324.08 338.22 315.52 342.18 308.21 M 343.48 312.22 C 342.15 316.89 342.46 321.89 340.56 326.41 C 337.59 333.40 339.05 341.46 335.42 348.25 C 333.38 354.68 332.27 361.43 329.63 367.69 C 326.83 373.34 326.13 379.73 323.13 385.31 C 330.37 386.66 337.74 386.15 345.07 386.23 C 373.71 386.25 402.35 386.19 431.00 386.26 C 433.13 386.25 435.24 385.90 437.35 385.56 C 437.66 384.40 437.99 383.25 438.32 382.11 C 437.44 378.98 437.13 375.72 436.20 372.61 C 434.52 369.65 432.87 366.66 431.35 363.61 C 424.61 353.81 415.34 345.97 405.07 340.06 C 400.02 336.58 394.24 334.39 389.14 331.00 C 386.24 329.95 383.15 329.28 380.65 327.37 C 377.89 325.33 374.24 325.47 371.36 323.72 C 366.64 320.79 361.11 319.58 356.33 316.73 C 352.38 314.41 348.08 312.64 343.48 312.22 Z" />
<path fill="#4b3b2d" opacity="0.35" d=" M 0.00 376.27 C 4.98 376.85 9.99 376.63 14.99 376.64 C 33.32 376.65 51.66 376.64 69.99 376.63 C 72.86 376.46 75.35 378.00 77.78 379.29 C 77.46 384.21 76.35 389.06 76.35 394.01 C 76.32 398.67 76.47 403.37 75.74 408.00 L 73.64 408.00 C 73.52 398.71 73.51 389.42 74.80 380.20 C 69.28 379.12 63.65 379.63 58.07 379.57 C 38.71 379.52 19.36 379.62 0.00 379.51 L 0.00 376.27 Z" />
<path fill="#4b3b2d" opacity="0.35" d=" M 464.24 379.30 C 466.64 378.04 469.09 376.49 471.92 376.63 C 495.28 376.59 518.64 376.75 542.00 376.55 L 542.00 379.62 C 521.67 379.53 501.34 379.57 481.01 379.56 C 476.40 379.50 471.74 379.27 467.19 380.27 C 468.58 389.45 468.45 398.74 468.39 408.00 L 465.72 408.00 C 466.38 398.47 465.29 388.81 464.24 379.30 Z" />
</g>
<g id="#9a7a5dbd">
<path fill="#9a7a5d" opacity="0.74" d=" M 261.14 0.00 L 276.59 0.00 C 275.34 1.19 274.41 2.89 272.70 3.47 C 267.65 5.17 262.27 5.18 257.03 5.80 C 251.51 6.38 246.91 9.77 241.73 11.44 C 235.35 13.32 229.63 16.80 223.78 19.85 C 212.74 27.07 202.18 35.58 194.78 46.64 C 193.02 49.27 191.08 51.78 189.57 54.57 C 187.94 57.59 188.39 61.46 186.09 64.15 C 184.67 65.79 182.78 67.95 180.34 67.04 C 174.65 66.01 172.65 59.91 170.10 55.52 C 163.97 55.31 157.59 54.80 151.75 57.12 C 144.36 59.93 135.99 58.55 128.88 62.27 C 122.40 65.67 115.30 67.89 109.39 72.32 C 98.75 78.60 91.01 88.70 85.23 99.42 C 84.41 101.33 84.16 103.42 83.65 105.43 C 82.73 109.80 79.61 113.50 79.54 118.10 C 79.25 126.90 79.11 135.74 79.68 144.53 C 79.97 150.04 84.50 154.38 84.29 159.97 C 84.35 164.57 79.98 167.66 79.49 172.11 C 79.14 175.74 79.24 179.40 79.42 183.04 C 79.60 188.46 82.42 193.27 84.40 198.18 C 85.48 201.62 89.30 202.57 91.63 204.91 C 94.25 208.49 95.04 212.97 95.95 217.21 C 96.76 221.41 99.21 225.00 100.60 229.00 C 102.52 234.23 106.20 238.51 108.91 243.30 C 109.88 247.09 109.19 251.09 109.33 254.97 C 109.15 260.02 110.19 265.60 107.16 270.05 C 103.46 276.87 97.08 281.66 90.27 285.10 C 86.39 287.71 81.58 288.15 77.60 290.55 C 73.89 292.66 69.47 293.09 65.85 295.41 C 61.27 298.37 55.77 299.28 51.13 302.10 C 47.57 304.22 43.38 305.06 39.99 307.52 C 34.08 310.50 29.03 314.78 23.92 318.92 C 17.59 324.34 13.22 331.60 9.53 338.96 C 8.17 342.98 7.96 347.36 5.80 351.12 C 2.79 356.79 4.99 364.49 0.00 369.17 L 0.00 347.58 C 0.66 347.60 1.98 347.63 2.64 347.65 C 6.05 335.57 12.99 324.59 22.09 315.99 C 31.00 308.53 41.14 302.64 51.66 297.75 C 63.03 293.15 74.34 288.45 85.58 283.54 C 91.68 280.35 98.23 277.25 102.50 271.63 C 105.31 268.05 104.52 263.23 104.67 259.00 C 104.50 253.65 105.20 248.26 104.36 242.95 C 103.20 239.36 100.53 236.54 98.78 233.25 C 95.50 227.05 92.41 220.63 91.52 213.59 C 90.63 207.69 84.86 204.85 81.65 200.40 C 76.33 192.09 74.68 181.84 75.72 172.14 C 76.28 167.77 79.66 164.40 80.28 160.06 C 79.91 155.82 77.52 152.11 76.80 147.95 C 75.78 141.71 75.38 135.38 75.46 129.07 C 75.62 121.27 76.01 113.25 79.27 106.03 C 85.97 85.59 102.74 69.47 122.41 61.37 C 127.99 58.09 134.54 57.83 140.56 55.81 C 149.77 52.96 159.55 53.25 169.08 53.37 C 173.00 52.88 174.59 56.89 176.74 59.32 C 177.98 61.28 180.43 61.47 182.48 61.99 C 186.41 52.46 192.39 43.92 199.09 36.14 C 208.16 25.80 219.86 18.19 231.93 11.81 C 236.17 9.46 240.95 8.41 245.32 6.35 C 250.01 4.10 255.28 3.87 260.27 2.62 C 260.48 1.97 260.92 0.66 261.14 0.00 Z" />
<path fill="#9a7a5d" opacity="0.74" d=" M 296.24 0.00 L 300.19 0.00 C 303.16 6.83 306.59 13.44 310.01 20.05 C 315.16 23.09 320.96 24.52 326.65 26.15 C 334.50 29.79 342.08 34.76 347.18 41.90 C 351.63 47.24 354.23 53.94 359.45 58.64 C 367.93 58.71 375.70 54.65 384.10 54.06 C 392.66 53.41 401.48 51.44 409.96 53.53 C 415.69 56.48 415.62 64.06 419.46 68.58 C 424.98 73.90 433.41 73.26 439.57 77.44 C 451.13 84.13 458.65 96.13 462.74 108.56 C 467.89 120.67 466.50 134.14 466.47 146.96 C 466.89 153.26 460.93 158.33 462.67 164.66 C 464.15 168.70 466.67 172.51 466.46 177.00 C 467.03 185.88 463.63 194.43 458.72 201.66 C 456.54 204.79 453.37 207.12 451.31 210.34 C 449.46 213.77 449.43 217.84 447.75 221.34 C 444.89 227.40 441.96 233.51 437.71 238.75 C 435.97 241.25 433.32 243.59 433.46 246.90 C 433.34 253.28 433.37 259.66 433.45 266.04 C 433.19 270.75 437.30 273.85 440.53 276.56 C 452.49 285.14 466.75 289.33 480.08 295.17 C 485.53 296.64 490.34 299.63 495.46 301.89 C 513.30 310.66 529.75 324.54 536.82 343.60 C 538.05 346.25 538.12 350.33 541.51 351.16 L 542.00 349.07 L 542.00 368.51 C 540.02 366.69 538.52 364.39 538.20 361.67 C 537.37 355.94 534.54 350.80 533.38 345.16 C 532.58 341.42 530.39 338.24 528.79 334.84 C 525.13 326.84 518.08 321.23 511.57 315.64 C 503.20 308.68 492.94 304.79 483.30 300.04 C 479.24 298.76 475.25 297.27 471.58 295.09 C 467.89 292.83 463.36 292.62 459.73 290.26 C 456.83 288.45 453.35 288.05 450.32 286.52 C 443.95 283.06 437.25 279.54 432.74 273.67 C 428.20 266.60 430.08 257.87 429.69 249.96 C 429.26 244.19 433.10 239.60 436.30 235.26 C 439.67 230.89 441.42 225.61 443.92 220.75 C 446.03 216.64 446.10 211.69 448.96 207.92 C 451.31 203.87 455.84 201.53 457.61 197.11 C 458.68 194.64 459.75 192.17 460.93 189.75 C 463.28 185.18 462.69 179.85 462.59 174.90 C 462.45 170.11 458.00 166.72 457.79 161.95 C 458.41 156.98 462.98 153.27 462.65 148.04 C 462.70 138.76 462.95 129.45 462.35 120.18 C 462.24 115.83 459.52 112.24 458.45 108.15 C 455.73 94.30 444.92 83.42 432.68 77.17 C 427.65 75.21 421.06 76.41 417.44 71.59 C 414.63 66.72 412.31 61.55 410.26 56.31 C 404.94 54.84 399.38 55.34 393.94 55.52 C 387.06 55.77 380.73 59.02 373.86 59.37 C 369.18 59.56 364.72 61.27 360.06 61.52 C 354.74 60.78 352.22 55.40 349.85 51.24 C 344.28 41.08 335.13 33.00 324.27 28.97 C 319.45 27.37 314.11 26.90 309.79 24.09 C 303.67 17.08 300.37 8.22 296.24 0.00 Z" />
<path fill="#9a7a5d" opacity="0.74" d=" M 265.00 19.24 C 271.52 16.67 278.62 16.06 285.56 16.87 C 291.71 21.72 296.01 28.89 297.50 36.58 C 299.61 37.18 301.77 37.62 303.96 37.72 C 309.29 37.89 314.45 39.47 319.47 41.13 C 323.40 44.35 328.26 46.43 331.34 50.62 C 336.02 55.41 339.24 61.28 342.38 67.11 C 345.13 75.35 348.48 83.43 350.15 91.98 C 350.61 99.63 350.28 107.31 350.38 114.97 C 350.70 120.91 348.21 126.57 345.23 131.55 C 343.10 134.29 341.34 137.71 342.51 141.24 C 345.09 145.79 350.71 149.28 350.40 155.05 C 350.24 158.75 351.09 162.87 348.94 166.16 C 346.78 169.91 344.27 173.44 341.73 176.94 C 340.19 179.44 336.95 179.60 334.46 180.57 C 333.84 185.43 333.85 190.54 331.69 195.05 C 329.11 200.93 327.01 207.08 323.38 212.43 C 320.70 218.33 317.55 224.34 312.41 228.48 C 309.74 230.41 306.23 232.31 305.77 235.93 C 305.50 247.24 307.50 258.96 304.17 270.00 C 302.00 270.73 299.85 271.56 297.76 272.50 C 296.58 275.62 292.88 275.67 290.45 277.32 C 285.99 279.39 282.22 283.57 276.98 283.39 C 271.73 283.62 266.41 283.79 261.22 282.94 C 256.49 280.45 252.16 277.18 247.12 275.27 C 245.63 274.98 244.97 273.60 244.23 272.46 C 242.14 271.55 240.01 270.75 237.85 270.02 C 235.06 261.97 235.93 253.33 235.84 244.97 C 235.98 241.00 235.41 236.97 236.26 233.05 C 236.78 233.26 237.82 233.69 238.34 233.90 C 238.24 240.62 238.56 247.35 237.96 254.05 C 237.65 258.40 237.72 263.57 241.38 266.60 C 247.93 272.30 255.94 276.08 263.97 279.17 C 270.11 279.92 276.85 280.45 282.49 277.41 C 289.07 274.31 295.84 271.21 301.16 266.12 C 302.26 264.98 303.43 263.68 303.50 262.00 C 304.31 252.72 303.00 243.34 304.06 234.08 C 304.56 229.09 309.59 226.92 312.50 223.48 C 317.63 217.46 321.28 210.34 324.58 203.20 C 326.90 196.94 329.45 190.68 330.21 184.00 C 330.53 178.34 337.05 176.96 340.19 173.22 C 344.03 168.31 347.51 162.43 346.63 155.93 C 346.85 149.85 341.19 146.27 338.24 141.65 C 336.34 139.17 338.53 136.41 339.81 134.23 C 343.60 128.18 346.49 121.26 346.55 114.02 C 346.57 103.58 347.42 92.83 343.70 82.85 C 341.36 70.46 335.53 58.57 326.14 50.01 C 320.56 45.24 313.59 41.11 305.99 41.50 C 302.14 41.53 297.49 41.37 295.24 37.66 C 291.87 32.16 290.24 25.46 285.38 20.94 C 275.60 18.88 266.24 23.52 256.75 25.03 C 253.13 25.57 249.79 27.10 246.49 28.58 C 224.33 37.29 205.20 55.52 198.30 78.65 C 195.08 85.64 195.08 93.47 194.64 101.00 C 194.81 107.21 195.10 113.51 196.61 119.55 C 198.48 125.10 200.49 130.60 202.26 136.18 C 202.88 138.38 203.25 140.85 202.32 143.01 C 200.44 146.29 197.25 148.75 195.91 152.34 C 195.10 155.79 195.13 159.45 195.94 162.90 C 197.13 166.50 199.28 169.68 200.94 173.07 C 200.61 172.16 199.96 170.35 199.63 169.44 C 200.14 169.49 200.66 169.54 201.19 169.61 C 200.50 174.43 205.70 175.85 208.57 178.48 C 212.93 181.39 211.68 187.27 213.29 191.61 C 217.88 205.22 223.64 219.49 235.15 228.76 C 236.38 229.85 238.54 231.54 236.26 233.05 C 233.91 231.51 231.76 229.57 228.96 228.90 C 228.80 228.44 228.46 227.53 228.30 227.08 C 223.65 223.34 221.09 217.72 218.65 212.43 C 214.81 206.90 212.75 200.43 210.05 194.32 C 208.08 190.01 208.11 185.16 207.54 180.54 C 205.24 179.64 202.31 179.59 200.71 177.48 C 198.07 174.04 195.62 170.46 193.40 166.74 C 190.41 162.28 191.89 156.61 191.83 151.59 C 193.91 148.73 195.84 145.75 198.19 143.09 C 200.63 140.62 199.39 136.84 198.51 133.95 C 195.37 126.63 191.02 119.24 191.60 111.00 C 191.62 102.67 191.34 94.32 191.83 86.01 C 193.46 79.83 196.45 74.11 198.87 68.23 C 199.65 64.06 202.95 61.19 204.82 57.54 C 212.34 46.07 223.17 37.10 234.84 30.09 C 236.70 28.59 239.16 28.48 241.33 27.72 C 244.07 26.81 245.97 24.05 248.96 23.78 C 254.57 23.33 259.49 20.27 265.00 19.24 Z" />
<path fill="#9a7a5d" opacity="0.74" d=" M 130.94 77.86 C 138.20 77.01 144.54 72.54 151.97 72.48 C 155.53 72.54 159.96 71.44 162.69 74.39 C 165.10 77.47 166.43 81.27 169.01 84.25 C 171.13 86.47 174.36 87.48 176.08 90.12 C 176.89 91.96 176.61 94.06 176.67 96.02 C 176.25 104.38 177.15 112.85 179.78 120.81 C 180.79 126.16 181.84 131.60 181.74 137.07 C 181.77 142.36 178.22 146.60 176.80 151.48 C 176.07 156.33 176.53 161.42 178.49 165.95 C 180.59 170.38 180.48 175.63 183.58 179.62 C 186.23 185.08 191.48 188.39 195.26 192.95 C 197.55 195.33 197.12 198.86 197.82 201.86 C 198.24 204.95 200.13 207.51 201.22 210.36 C 204.62 220.77 210.92 230.02 218.05 238.24 C 219.58 243.00 219.45 248.08 219.44 253.02 C 219.34 258.89 219.87 265.03 217.75 270.61 C 211.11 280.32 200.63 286.31 190.47 291.71 C 181.39 294.17 173.68 300.00 164.73 302.91 C 163.18 301.50 161.07 300.33 160.64 298.10 C 158.21 289.78 160.19 281.16 160.55 272.73 C 152.63 270.45 144.26 272.39 136.22 270.99 C 134.02 269.78 132.38 267.75 130.15 266.58 C 127.67 265.00 124.33 263.60 123.83 260.34 C 123.32 257.25 122.96 254.14 122.68 251.02 C 122.65 245.73 124.45 240.31 123.04 235.10 C 120.88 233.11 117.30 232.42 116.42 229.30 C 115.25 225.65 112.05 222.94 111.61 219.04 C 111.29 217.07 110.72 215.14 109.57 213.49 C 106.32 208.94 106.66 203.07 106.47 197.75 C 103.02 195.42 99.50 193.18 95.95 191.01 C 94.24 184.72 94.09 178.15 94.69 171.70 C 96.33 170.51 97.97 169.33 99.62 168.17 C 99.56 165.45 99.73 162.48 97.76 160.31 C 93.63 155.31 95.77 148.26 93.42 142.59 C 90.67 136.49 90.82 129.27 93.33 123.11 C 95.02 118.76 94.47 113.91 96.01 109.54 C 99.18 104.00 102.46 98.47 106.82 93.77 C 109.88 89.77 114.21 87.13 118.00 83.93 C 119.38 82.72 121.28 82.50 122.93 81.84 C 125.79 80.90 127.85 78.23 130.94 77.86 M 140.00 78.54 C 129.64 80.10 120.42 85.87 112.42 92.40 L 114.47 93.41 C 113.93 93.44 112.84 93.50 112.30 93.52 C 112.41 94.05 112.62 95.11 112.73 95.64 L 111.33 95.16 L 111.51 96.65 C 110.96 96.57 109.87 96.41 109.33 96.32 C 109.38 96.75 109.48 97.62 109.53 98.05 C 107.79 99.09 106.44 100.62 105.19 102.18 C 105.00 102.59 104.63 103.40 104.45 103.81 L 103.61 103.71 C 103.59 105.35 103.47 106.98 103.46 108.62 C 102.94 108.56 101.91 108.44 101.40 108.38 C 101.45 109.18 101.56 110.78 101.62 111.58 L 100.15 111.43 C 100.30 111.97 100.62 113.05 100.78 113.59 L 98.68 113.57 C 99.20 114.12 100.24 115.21 100.76 115.76 L 98.68 115.25 C 96.73 124.96 97.63 134.87 97.45 144.71 L 98.56 144.31 C 98.50 146.47 98.53 148.64 98.50 150.82 L 100.59 150.05 C 100.22 150.94 99.48 152.71 99.11 153.59 L 101.92 153.49 C 101.26 153.96 99.95 154.89 99.29 155.35 L 102.91 155.68 C 102.20 156.11 100.79 156.96 100.09 157.39 C 100.95 157.42 102.68 157.48 103.55 157.52 C 103.44 159.24 103.35 160.96 103.24 162.69 L 104.47 162.20 C 104.47 164.66 104.51 167.13 104.59 169.59 C 104.05 169.57 102.96 169.52 102.42 169.50 C 102.48 169.97 102.60 170.91 102.66 171.38 C 101.54 171.80 100.42 172.22 99.30 172.64 L 99.91 173.88 L 98.41 173.37 C 98.48 174.20 98.63 175.85 98.71 176.67 L 96.82 176.29 C 96.96 177.14 97.26 178.83 97.41 179.68 L 98.56 179.30 C 98.49 181.10 98.43 182.89 98.37 184.70 L 99.84 184.37 C 99.65 184.92 99.28 186.02 99.10 186.57 L 100.67 186.31 L 100.28 187.60 L 101.70 187.49 L 99.60 188.61 C 101.75 190.56 104.66 191.27 106.93 193.00 C 109.96 197.84 108.83 204.03 111.44 209.08 C 113.27 216.75 116.77 224.03 122.07 229.90 C 123.96 231.90 126.41 233.95 126.38 236.96 C 126.57 241.31 126.59 245.71 125.87 250.03 C 126.84 254.00 125.21 259.19 129.02 261.97 C 135.67 266.68 143.72 269.98 152.00 269.47 C 155.41 269.73 160.17 268.38 162.20 272.03 C 163.44 281.13 160.72 290.70 163.92 299.53 C 170.37 297.98 176.20 294.71 182.15 291.89 C 190.14 289.27 197.27 284.71 204.40 280.37 C 204.01 279.98 203.24 279.22 202.85 278.84 C 203.10 278.64 203.62 278.24 203.88 278.04 C 204.62 278.11 206.11 278.24 206.86 278.30 C 210.13 274.84 214.17 271.87 216.33 267.52 C 217.14 263.10 216.63 258.55 216.77 254.07 C 216.65 249.55 217.18 244.94 216.28 240.48 C 210.94 233.45 205.33 226.48 201.53 218.44 C 200.27 215.15 199.09 211.83 197.45 208.70 C 195.47 205.06 195.92 200.73 194.55 196.92 C 191.65 191.24 185.76 187.98 182.41 182.62 C 179.73 179.41 178.93 175.25 177.24 171.54 C 174.07 165.22 173.85 157.85 174.46 150.95 C 174.72 146.57 177.37 142.95 179.10 139.08 C 181.06 131.07 176.30 123.65 175.26 115.88 C 173.73 108.30 174.98 100.52 174.27 92.88 C 172.29 90.13 169.20 88.48 166.87 86.06 C 164.19 83.57 163.33 79.83 161.14 76.99 C 159.77 74.98 157.08 75.50 154.99 75.36 C 149.80 75.29 145.02 77.57 140.00 78.54 Z" />
<path fill="#9a7a5d" opacity="0.74" d=" M 363.37 79.42 C 373.27 72.96 385.55 71.75 397.09 72.55 C 400.92 72.94 402.84 76.91 404.21 80.05 C 405.39 82.31 405.41 85.76 408.27 86.60 C 412.03 87.93 416.16 87.04 420.01 88.05 C 427.55 89.51 433.67 94.73 438.56 100.39 C 441.78 103.94 442.98 108.68 445.24 112.81 C 447.91 117.50 447.00 123.07 448.02 128.18 C 449.66 136.72 448.04 145.34 446.96 153.83 C 446.46 157.86 443.26 160.69 441.70 164.26 C 440.46 168.71 446.15 170.48 446.97 174.35 C 447.77 178.11 447.80 182.11 446.92 185.86 C 445.12 191.30 440.12 194.64 435.68 197.80 C 435.26 201.64 435.30 205.74 433.24 209.15 C 430.84 213.23 430.26 218.14 427.24 221.90 C 424.13 227.33 419.81 231.89 414.66 235.41 C 413.77 243.51 415.12 251.73 414.00 259.81 C 412.91 265.45 406.52 266.94 402.28 269.60 C 396.73 273.17 389.90 270.71 383.82 272.01 C 381.65 272.46 381.24 275.15 381.60 276.98 C 382.68 282.91 382.80 289.01 382.17 295.00 C 381.85 298.04 380.33 300.74 378.30 302.96 C 368.95 300.82 361.29 294.43 352.12 291.88 C 343.10 287.34 333.95 282.27 327.24 274.56 C 325.43 272.22 321.68 269.04 324.51 266.02 C 332.64 279.52 347.44 286.92 361.54 292.66 C 367.22 295.09 372.70 299.16 379.19 298.53 C 380.15 289.74 379.06 280.87 379.82 272.09 C 381.61 268.68 385.92 269.67 389.06 269.45 C 396.30 269.88 402.95 266.37 408.88 262.60 C 410.85 261.45 412.19 259.38 412.29 257.07 C 412.85 250.36 412.14 243.62 412.47 236.90 C 412.18 233.42 415.53 231.56 417.66 229.42 C 426.45 221.56 430.46 210.01 433.17 198.86 C 433.85 193.94 439.34 192.42 441.97 188.79 C 444.16 185.70 445.80 181.83 445.25 177.98 C 444.42 173.98 441.28 171.10 438.50 168.35 C 438.50 166.61 438.40 164.87 438.67 163.15 C 439.85 160.24 442.13 157.93 443.42 155.06 C 445.74 150.06 445.61 144.42 445.69 139.04 C 445.62 130.89 446.06 122.36 442.72 114.71 C 440.52 109.79 438.57 104.62 435.04 100.45 C 431.74 96.24 426.90 93.61 422.03 91.61 C 417.40 89.79 412.22 91.26 407.55 89.70 C 402.01 86.97 402.21 79.57 397.87 75.87 C 390.94 74.59 383.75 75.48 377.00 77.33 C 373.22 78.43 368.90 78.66 365.77 81.28 C 364.67 86.59 367.45 91.67 367.48 96.96 C 367.59 103.94 367.75 110.93 367.33 117.89 L 366.44 118.75 L 364.34 118.40 C 366.05 110.25 365.87 101.65 364.13 93.51 C 363.03 88.98 359.83 83.68 363.37 79.42 Z" />
<path fill="#9a7a5d" opacity="0.74" d=" M 225.72 284.61 C 228.17 281.77 233.12 281.74 235.76 284.30 C 239.65 287.22 244.23 289.05 248.15 291.96 C 251.07 294.29 255.08 294.08 258.18 295.91 C 261.44 299.28 263.20 304.38 261.88 308.99 C 259.58 320.22 259.13 331.70 257.63 343.04 C 257.28 347.03 257.80 351.08 256.98 355.04 C 256.14 359.30 256.69 363.68 256.00 367.97 C 255.16 373.94 255.84 380.15 254.00 385.98 C 252.64 388.24 250.09 389.35 248.00 390.81 C 246.00 389.89 243.83 389.23 242.12 387.82 C 240.77 384.97 240.22 381.76 238.35 379.14 C 236.14 376.23 237.02 372.41 235.93 369.15 C 232.18 361.93 229.66 354.08 228.06 346.12 C 227.04 343.08 224.77 340.43 224.72 337.11 C 224.50 334.23 224.65 331.31 224.13 328.46 C 223.60 326.02 221.87 324.10 220.95 321.82 C 219.80 312.25 219.35 302.60 219.70 292.98 C 219.92 289.27 223.39 287.05 225.72 284.61 M 227.78 287.58 C 224.41 289.94 221.32 293.58 221.58 297.95 C 222.15 307.77 224.33 317.41 226.81 326.90 C 228.10 331.73 228.53 336.78 230.26 341.50 C 232.91 348.25 233.24 355.70 236.68 362.18 C 238.25 369.64 241.35 376.62 243.39 383.95 C 243.98 386.17 246.50 386.59 248.25 387.56 C 249.53 385.91 251.39 384.36 251.33 382.09 C 251.79 376.72 252.46 371.37 253.17 366.04 C 254.98 348.40 254.83 330.62 257.49 313.05 C 257.76 308.82 259.92 303.97 256.92 300.24 C 254.55 296.54 249.90 296.16 246.20 294.59 C 241.65 292.20 237.31 289.44 232.83 286.93 C 231.24 285.91 229.22 286.67 227.78 287.58 Z" />
<path fill="#9a7a5d" opacity="0.74" d=" M 305.72 284.75 C 308.16 282.47 311.95 281.76 314.95 283.23 C 317.62 285.90 321.07 288.37 322.19 292.12 C 322.81 302.04 322.17 312.02 321.04 321.88 C 320.33 323.59 319.21 325.09 318.50 326.80 C 316.51 331.93 318.65 337.94 315.45 342.70 C 313.01 346.52 313.37 351.24 311.68 355.34 C 309.96 359.50 309.01 363.97 306.75 367.89 C 304.71 371.15 306.12 375.41 303.96 378.61 C 302.55 380.72 301.52 383.04 301.04 385.55 C 300.52 388.69 297.03 390.59 294.06 390.51 C 291.55 389.98 289.71 387.95 287.71 386.47 C 286.25 376.70 286.19 366.79 285.07 356.98 C 284.34 353.36 284.71 349.66 284.41 346.01 C 283.17 337.38 283.32 328.57 281.45 320.02 C 279.81 313.64 278.43 306.81 280.02 300.29 C 281.02 298.24 282.40 296.03 284.51 295.02 C 292.37 293.54 298.93 288.68 305.72 284.75 M 296.20 294.43 C 293.07 296.01 289.19 296.07 286.55 298.58 C 284.39 300.38 283.13 303.17 283.49 306.00 C 284.11 311.97 285.16 317.89 285.70 323.87 C 287.76 339.55 287.19 355.44 289.73 371.08 C 290.87 376.24 289.69 381.88 292.46 386.63 C 293.79 386.62 295.13 386.62 296.47 386.64 C 299.43 383.89 299.58 379.68 301.03 376.14 C 302.35 372.86 303.65 369.56 304.26 366.06 C 305.15 360.78 308.45 356.28 309.17 350.97 C 309.93 345.43 312.74 340.46 313.59 334.95 C 315.57 324.60 319.23 314.55 319.80 303.97 C 320.33 299.87 321.31 295.09 318.41 291.61 C 316.31 289.18 313.71 285.97 310.11 286.51 C 305.36 288.93 300.90 291.90 296.20 294.43 Z" />
<path fill="#9a7a5d" opacity="0.74" d=" M 397.28 288.31 C 401.79 284.79 407.33 282.51 413.00 281.72 C 416.84 281.11 421.35 282.09 423.54 285.59 C 426.68 289.20 425.92 294.59 423.69 298.47 C 420.42 304.44 419.71 311.44 416.29 317.33 C 413.93 317.71 411.49 318.78 409.11 317.95 C 403.42 315.86 397.40 312.27 396.04 305.87 C 395.14 300.16 392.60 293.03 397.28 288.31 M 413.37 286.93 C 412.60 286.59 411.06 285.90 410.29 285.56 L 410.74 288.29 C 409.09 286.76 407.17 288.43 405.46 288.72 L 405.60 289.55 C 404.20 289.89 402.84 290.33 401.45 290.66 L 401.76 291.77 L 400.24 291.44 C 400.39 291.98 400.69 293.07 400.84 293.61 L 399.44 293.32 C 399.47 294.45 399.52 296.72 399.55 297.86 L 400.99 297.20 C 400.45 299.45 400.16 301.82 400.67 304.11 C 400.76 305.69 401.99 307.38 400.65 308.83 L 402.66 308.22 C 402.59 308.84 402.44 310.08 402.37 310.70 C 402.93 310.59 404.05 310.36 404.61 310.25 L 404.40 311.81 C 404.96 311.67 406.08 311.39 406.64 311.25 L 406.36 312.82 C 408.57 312.41 410.95 312.07 412.91 313.53 L 412.19 311.33 C 412.83 311.41 414.11 311.56 414.75 311.64 C 414.62 311.07 414.36 309.94 414.23 309.37 L 415.91 309.59 C 415.71 309.07 415.30 308.02 415.10 307.50 L 416.53 307.56 C 416.51 305.81 416.46 304.05 416.45 302.30 L 417.69 302.64 C 417.59 301.81 417.39 300.15 417.29 299.32 L 418.81 299.58 C 418.64 299.02 418.31 297.90 418.15 297.34 L 419.43 297.66 C 420.25 294.62 420.63 291.50 420.66 288.36 L 419.20 288.68 L 419.66 287.08 C 419.10 287.27 417.97 287.65 417.40 287.85 L 417.68 286.25 C 416.91 286.36 415.38 286.57 414.61 286.68 L 414.02 283.52 L 413.37 286.93 Z" />
<path fill="#9a7a5d" opacity="0.74" d=" M 439.41 299.78 C 441.57 299.38 443.79 299.42 445.98 299.58 C 448.88 299.51 450.30 302.74 453.03 303.20 C 455.13 303.66 457.39 303.82 459.22 305.11 C 465.60 308.99 473.42 309.97 479.42 314.54 C 481.76 315.73 484.72 315.51 486.74 317.42 C 489.39 319.68 493.03 320.08 495.79 322.15 C 503.90 327.61 511.92 333.91 516.94 342.47 C 517.78 345.98 519.10 349.31 520.46 352.64 C 519.66 355.56 517.45 358.86 514.02 358.53 C 497.35 358.76 480.67 358.55 464.00 358.64 C 460.71 358.58 457.39 358.79 454.15 358.18 C 451.99 357.09 450.67 354.93 449.31 353.03 C 445.10 346.35 439.54 340.65 433.51 335.61 C 431.98 334.00 429.79 332.46 429.68 330.04 C 429.42 326.54 429.23 322.80 431.05 319.65 C 432.59 316.75 432.37 313.12 434.70 310.62 C 437.52 307.57 435.86 302.40 439.41 299.78 M 439.82 304.91 C 438.31 309.26 437.41 313.83 435.21 317.91 C 433.09 321.75 432.96 326.34 433.71 330.56 C 438.49 336.00 444.36 340.47 448.64 346.37 C 451.02 349.50 452.86 353.41 456.56 355.21 C 458.65 355.68 460.84 355.57 462.98 355.62 C 478.99 355.54 495.00 355.66 511.00 355.56 C 513.17 355.76 514.95 354.50 516.68 353.40 C 516.57 347.84 513.10 343.19 510.07 338.81 C 502.99 328.87 491.46 323.83 481.07 318.20 C 475.01 316.00 469.48 312.53 463.14 311.07 C 456.95 307.87 450.29 305.78 443.98 302.86 C 442.58 303.53 441.21 304.25 439.82 304.91 Z" />
<path fill="#9a7a5d" opacity="0.74" d=" M 93.19 301.24 C 98.26 301.16 99.99 306.69 101.79 310.43 C 104.45 314.20 105.64 318.78 108.47 322.45 C 111.16 326.30 111.48 332.40 107.74 335.71 C 103.82 339.46 99.73 343.08 96.38 347.37 C 93.61 350.62 92.04 354.95 88.24 357.25 C 86.50 358.72 84.15 358.60 82.02 358.64 C 64.64 358.61 47.27 358.63 29.90 358.63 C 27.11 358.66 23.87 358.42 22.00 356.04 C 20.79 354.37 19.74 351.91 21.05 350.01 C 23.73 345.87 24.43 340.69 27.89 337.02 C 36.24 326.23 48.20 318.96 60.74 314.04 C 65.02 311.00 70.30 310.19 74.80 307.59 C 80.55 304.63 86.67 301.72 93.19 301.24 M 75.08 310.84 C 64.72 314.35 55.02 319.51 45.49 324.82 C 35.80 330.77 26.92 339.58 24.47 351.04 C 23.74 354.13 27.38 355.76 29.92 355.55 C 46.28 355.68 62.63 355.53 78.99 355.61 C 81.05 355.58 83.14 355.68 85.18 355.29 C 88.61 353.85 90.55 350.45 92.63 347.57 C 96.82 341.45 102.59 336.71 107.62 331.33 C 107.56 329.83 107.50 328.33 107.44 326.84 C 104.10 321.63 101.86 315.81 98.59 310.55 C 96.91 308.04 95.84 303.61 91.94 304.37 C 85.97 305.32 80.46 308.16 75.08 310.84 Z" />
<path fill="#9a7a5d" opacity="0.74" d=" M 186.26 309.54 C 190.24 307.65 194.08 305.47 198.01 303.48 C 200.73 304.87 204.18 306.21 205.00 309.51 C 205.77 312.84 206.99 316.02 208.00 319.28 C 208.64 324.49 209.19 329.73 209.48 334.98 C 209.47 339.03 213.07 341.96 213.30 345.96 C 213.70 349.71 213.23 353.72 214.93 357.21 C 216.19 359.75 217.76 362.20 218.12 365.08 C 218.95 371.49 222.83 376.89 224.57 383.02 C 225.66 386.83 221.76 389.07 219.57 391.46 C 181.37 391.49 143.18 391.47 104.98 391.47 C 101.26 391.70 97.68 389.35 95.81 386.24 C 94.73 382.92 97.31 380.02 98.34 377.04 C 99.73 374.07 99.05 370.46 101.02 367.74 C 103.97 363.16 106.28 358.12 109.99 354.06 C 117.54 344.82 127.63 338.13 137.89 332.27 C 142.78 330.00 147.00 326.46 152.10 324.63 C 156.29 323.36 159.53 319.92 164.03 319.53 C 167.12 319.23 168.86 315.96 171.93 315.70 C 173.92 315.24 176.27 315.44 177.78 313.83 C 180.09 311.50 183.41 310.92 186.26 309.54 M 185.45 313.31 C 179.91 316.58 173.59 318.12 168.05 321.41 C 162.24 323.38 157.02 326.66 151.29 328.80 C 140.90 333.81 130.90 339.69 121.88 346.91 C 120.50 347.68 120.37 349.30 119.97 350.66 C 119.56 350.65 118.72 350.63 118.30 350.61 C 118.42 351.11 118.65 352.09 118.77 352.59 L 117.37 352.23 L 117.58 353.54 L 116.36 353.39 L 116.60 354.62 L 115.30 354.36 L 115.57 355.78 C 114.99 355.66 113.83 355.42 113.24 355.30 C 113.43 355.73 113.82 356.61 114.01 357.05 C 113.35 357.17 112.04 357.42 111.39 357.55 C 104.83 365.44 101.91 375.50 99.34 385.27 C 101.86 387.05 104.74 388.56 107.93 388.36 C 143.63 388.38 179.34 388.33 215.04 388.38 C 218.16 388.38 222.52 387.29 223.30 383.78 C 221.15 383.01 220.76 380.52 219.64 378.81 C 216.87 374.48 217.16 369.07 214.80 364.55 C 212.20 359.46 212.06 353.62 210.11 348.31 C 207.10 339.53 205.39 330.39 204.04 321.24 C 203.09 316.37 202.60 310.62 198.13 307.55 C 193.97 309.62 189.82 311.70 185.45 313.31 Z" />
<path fill="#9a7a5d" opacity="0.74" d=" M 340.26 305.34 C 341.95 304.32 344.14 303.02 346.09 304.19 C 349.83 306.02 353.17 308.62 357.12 310.05 C 359.95 311.04 362.67 312.33 365.04 314.18 C 367.04 315.71 369.77 315.22 372.00 316.19 C 374.26 317.52 376.24 319.56 379.03 319.73 C 382.80 320.18 385.59 323.01 389.09 324.22 C 395.07 326.23 399.85 330.56 405.70 332.88 C 412.11 336.91 418.60 340.89 424.24 346.00 C 432.13 352.13 437.11 360.98 441.99 369.49 C 442.59 373.88 443.83 378.11 445.91 382.03 C 448.40 387.31 441.68 391.75 437.00 391.47 C 398.54 391.44 360.07 391.54 321.62 391.42 C 319.88 389.77 318.19 388.08 316.54 386.36 C 316.67 384.45 316.38 382.42 317.03 380.61 C 321.17 374.84 322.92 367.81 324.61 361.03 C 325.31 358.36 327.23 356.22 328.04 353.60 C 328.70 350.40 328.37 347.07 329.12 343.89 C 329.70 341.40 331.29 339.34 332.27 337.02 C 333.01 330.67 333.00 324.18 334.36 317.92 C 336.45 313.78 335.88 308.01 340.26 305.34 M 342.18 308.21 C 338.22 315.52 338.00 324.08 336.23 332.05 C 335.10 340.21 331.61 347.75 330.01 355.78 C 328.95 361.99 325.24 367.39 324.54 373.70 C 323.85 378.29 317.82 382.72 321.72 387.31 C 329.07 388.44 336.56 387.20 343.94 388.15 C 351.30 389.03 358.63 387.44 366.00 387.77 C 375.69 387.99 385.40 387.29 395.05 388.32 C 399.04 388.62 403.01 387.51 406.99 388.14 C 410.32 388.56 413.67 388.34 417.00 387.98 C 425.20 387.20 433.55 388.70 441.66 386.92 C 442.39 380.93 439.50 375.48 438.09 369.82 C 434.48 362.79 430.39 355.83 424.46 350.49 C 414.39 341.58 402.90 334.38 390.73 328.72 C 385.04 326.46 379.70 323.46 373.98 321.29 C 368.08 317.88 361.41 316.22 355.53 312.80 C 351.01 311.38 347.10 308.13 342.18 308.21 Z" />
<path fill="#9a7a5d" opacity="0.74" d=" M 0.00 373.82 C 22.68 373.39 45.37 373.80 68.05 373.61 C 72.29 373.81 77.76 373.52 80.38 377.56 C 82.15 379.82 80.94 382.67 80.56 385.17 C 78.77 392.66 79.69 400.39 79.42 408.00 L 75.74 408.00 C 76.47 403.37 76.32 398.67 76.35 394.01 C 76.35 389.06 77.46 384.21 77.78 379.29 C 75.35 378.00 72.86 376.46 69.99 376.63 C 51.66 376.64 33.32 376.65 14.99 376.64 C 9.99 376.63 4.98 376.85 0.00 376.27 L 0.00 373.82 Z" />
<path fill="#9a7a5d" opacity="0.74" d=" M 461.62 377.59 C 463.81 374.15 468.32 373.81 472.00 373.64 C 495.33 373.62 518.67 373.68 542.00 373.61 L 542.00 376.55 C 518.64 376.75 495.28 376.59 471.92 376.63 C 469.09 376.49 466.64 378.04 464.24 379.30 C 465.29 388.81 466.38 398.47 465.72 408.00 L 462.81 408.00 C 462.11 400.40 463.29 392.67 461.46 385.19 C 461.10 382.69 459.86 379.84 461.62 377.59 Z" />
</g>
<g id="#cfa57efe">
<path fill="#cfa57e" opacity="1.00" d=" M 276.59 0.00 L 296.24 0.00 C 300.37 8.22 303.67 17.08 309.79 24.09 C 314.11 26.90 319.45 27.37 324.27 28.97 C 335.13 33.00 344.28 41.08 349.85 51.24 C 352.22 55.40 354.74 60.78 360.06 61.52 C 364.72 61.27 369.18 59.56 373.86 59.37 C 380.73 59.02 387.06 55.77 393.94 55.52 C 399.38 55.34 404.94 54.84 410.26 56.31 C 412.31 61.55 414.63 66.72 417.44 71.59 C 421.06 76.41 427.65 75.21 432.68 77.17 C 444.92 83.42 455.73 94.30 458.45 108.15 C 459.52 112.24 462.24 115.83 462.35 120.18 C 462.95 129.45 462.70 138.76 462.65 148.04 C 462.98 153.27 458.41 156.98 457.79 161.95 C 458.00 166.72 462.45 170.11 462.59 174.90 C 462.69 179.85 463.28 185.18 460.93 189.75 C 459.75 192.17 458.68 194.64 457.61 197.11 C 455.84 201.53 451.31 203.87 448.96 207.92 C 446.10 211.69 446.03 216.64 443.92 220.75 C 441.42 225.61 439.67 230.89 436.30 235.26 C 433.10 239.60 429.26 244.19 429.69 249.96 C 430.08 257.87 428.20 266.60 432.74 273.67 C 437.25 279.54 443.95 283.06 450.32 286.52 C 453.35 288.05 456.83 288.45 459.73 290.26 C 463.36 292.62 467.89 292.83 471.58 295.09 C 475.25 297.27 479.24 298.76 483.30 300.04 C 492.94 304.79 503.20 308.68 511.57 315.64 C 518.08 321.23 525.13 326.84 528.79 334.84 C 530.39 338.24 532.58 341.42 533.38 345.16 C 534.54 350.80 537.37 355.94 538.20 361.67 C 538.52 364.39 540.02 366.69 542.00 368.51 L 542.00 373.61 C 518.67 373.68 495.33 373.62 472.00 373.64 C 468.32 373.81 463.81 374.15 461.62 377.59 C 459.86 379.84 461.10 382.69 461.46 385.19 C 463.29 392.67 462.11 400.40 462.81 408.00 L 79.42 408.00 C 79.69 400.39 78.77 392.66 80.56 385.17 C 80.94 382.67 82.15 379.82 80.38 377.56 C 77.76 373.52 72.29 373.81 68.05 373.61 C 45.37 373.80 22.68 373.39 0.00 373.82 L 0.00 369.17 C 4.99 364.49 2.79 356.79 5.80 351.12 C 7.96 347.36 8.17 342.98 9.53 338.96 C 13.22 331.60 17.59 324.34 23.92 318.92 C 29.03 314.78 34.08 310.50 39.99 307.52 C 43.38 305.06 47.57 304.22 51.13 302.10 C 55.77 299.28 61.27 298.37 65.85 295.41 C 69.47 293.09 73.89 292.66 77.60 290.55 C 81.58 288.15 86.39 287.71 90.27 285.10 C 97.08 281.66 103.46 276.87 107.16 270.05 C 110.19 265.60 109.15 260.02 109.33 254.97 C 109.19 251.09 109.88 247.09 108.91 243.30 C 106.20 238.51 102.52 234.23 100.60 229.00 C 99.21 225.00 96.76 221.41 95.95 217.21 C 95.04 212.97 94.25 208.49 91.63 204.91 C 89.30 202.57 85.48 201.62 84.40 198.18 C 82.42 193.27 79.60 188.46 79.42 183.04 C 79.24 179.40 79.14 175.74 79.49 172.11 C 79.98 167.66 84.35 164.57 84.29 159.97 C 84.50 154.38 79.97 150.04 79.68 144.53 C 79.11 135.74 79.25 126.90 79.54 118.10 C 79.61 113.50 82.73 109.80 83.65 105.43 C 84.16 103.42 84.41 101.33 85.23 99.42 C 91.01 88.70 98.75 78.60 109.39 72.32 C 115.30 67.89 122.40 65.67 128.88 62.27 C 135.99 58.55 144.36 59.93 151.75 57.12 C 157.59 54.80 163.97 55.31 170.10 55.52 C 172.65 59.91 174.65 66.01 180.34 67.04 C 182.78 67.95 184.67 65.79 186.09 64.15 C 188.39 61.46 187.94 57.59 189.57 54.57 C 191.08 51.78 193.02 49.27 194.78 46.64 C 202.18 35.58 212.74 27.07 223.78 19.85 C 229.63 16.80 235.35 13.32 241.73 11.44 C 246.91 9.77 251.51 6.38 257.03 5.80 C 262.27 5.18 267.65 5.17 272.70 3.47 C 274.41 2.89 275.34 1.19 276.59 0.00 M 265.00 19.24 C 259.49 20.27 254.57 23.33 248.96 23.78 C 245.97 24.05 244.07 26.81 241.33 27.72 C 239.16 28.48 236.70 28.59 234.84 30.09 C 223.17 37.10 212.34 46.07 204.82 57.54 C 202.95 61.19 199.65 64.06 198.87 68.23 C 196.45 74.11 193.46 79.83 191.83 86.01 C 191.34 94.32 191.62 102.67 191.60 111.00 C 191.02 119.24 195.37 126.63 198.51 133.95 C 199.39 136.84 200.63 140.62 198.19 143.09 C 195.84 145.75 193.91 148.73 191.83 151.59 C 191.89 156.61 190.41 162.28 193.40 166.74 C 195.62 170.46 198.07 174.04 200.71 177.48 C 202.31 179.59 205.24 179.64 207.54 180.54 C 208.11 185.16 208.08 190.01 210.05 194.32 C 212.75 200.43 214.81 206.90 218.65 212.43 C 221.09 217.72 223.65 223.34 228.30 227.08 C 228.46 227.53 228.80 228.44 228.96 228.90 C 231.76 229.57 233.91 231.51 236.26 233.05 C 235.41 236.97 235.98 241.00 235.84 244.97 C 235.93 253.33 235.06 261.97 237.85 270.02 C 240.01 270.75 242.14 271.55 244.23 272.46 C 244.97 273.60 245.63 274.98 247.12 275.27 C 252.16 277.18 256.49 280.45 261.22 282.94 C 266.41 283.79 271.73 283.62 276.98 283.39 C 282.22 283.57 285.99 279.39 290.45 277.32 C 292.88 275.67 296.58 275.62 297.76 272.50 C 299.85 271.56 302.00 270.73 304.17 270.00 C 307.50 258.96 305.50 247.24 305.77 235.93 C 306.23 232.31 309.74 230.41 312.41 228.48 C 317.55 224.34 320.70 218.33 323.38 212.43 C 327.01 207.08 329.11 200.93 331.69 195.05 C 333.85 190.54 333.84 185.43 334.46 180.57 C 336.95 179.60 340.19 179.44 341.73 176.94 C 344.27 173.44 346.78 169.91 348.94 166.16 C 351.09 162.87 350.24 158.75 350.40 155.05 C 350.71 149.28 345.09 145.79 342.51 141.24 C 341.34 137.71 343.10 134.29 345.23 131.55 C 348.21 126.57 350.70 120.91 350.38 114.97 C 350.28 107.31 350.61 99.63 350.15 91.98 C 348.48 83.43 345.13 75.35 342.38 67.11 C 339.24 61.28 336.02 55.41 331.34 50.62 C 328.26 46.43 323.40 44.35 319.47 41.13 C 314.45 39.47 309.29 37.89 303.96 37.72 C 301.77 37.62 299.61 37.18 297.50 36.58 C 296.01 28.89 291.71 21.72 285.56 16.87 C 278.62 16.06 271.52 16.67 265.00 19.24 M 130.94 77.86 C 127.85 78.23 125.79 80.90 122.93 81.84 C 121.28 82.50 119.38 82.72 118.00 83.93 C 114.21 87.13 109.88 89.77 106.82 93.77 C 102.46 98.47 99.18 104.00 96.01 109.54 C 94.47 113.91 95.02 118.76 93.33 123.11 C 90.82 129.27 90.67 136.49 93.42 142.59 C 95.77 148.26 93.63 155.31 97.76 160.31 C 99.73 162.48 99.56 165.45 99.62 168.17 C 97.97 169.33 96.33 170.51 94.69 171.70 C 94.09 178.15 94.24 184.72 95.95 191.01 C 99.50 193.18 103.02 195.42 106.47 197.75 C 106.66 203.07 106.32 208.94 109.57 213.49 C 110.72 215.14 111.29 217.07 111.61 219.04 C 112.05 222.94 115.25 225.65 116.42 229.30 C 117.30 232.42 120.88 233.11 123.04 235.10 C 124.45 240.31 122.65 245.73 122.68 251.02 C 122.96 254.14 123.32 257.25 123.83 260.34 C 124.33 263.60 127.67 265.00 130.15 266.58 C 132.38 267.75 134.02 269.78 136.22 270.99 C 144.26 272.39 152.63 270.45 160.55 272.73 C 160.19 281.16 158.21 289.78 160.64 298.10 C 161.07 300.33 163.18 301.50 164.73 302.91 C 173.68 300.00 181.39 294.17 190.47 291.71 C 200.63 286.31 211.11 280.32 217.75 270.61 C 219.87 265.03 219.34 258.89 219.44 253.02 C 219.45 248.08 219.58 243.00 218.05 238.24 C 210.92 230.02 204.62 220.77 201.22 210.36 C 200.13 207.51 198.24 204.95 197.82 201.86 C 197.12 198.86 197.55 195.33 195.26 192.95 C 191.48 188.39 186.23 185.08 183.58 179.62 C 180.48 175.63 180.59 170.38 178.49 165.95 C 176.53 161.42 176.07 156.33 176.80 151.48 C 178.22 146.60 181.77 142.36 181.74 137.07 C 181.84 131.60 180.79 126.16 179.78 120.81 C 177.15 112.85 176.25 104.38 176.67 96.02 C 176.61 94.06 176.89 91.96 176.08 90.12 C 174.36 87.48 171.13 86.47 169.01 84.25 C 166.43 81.27 165.10 77.47 162.69 74.39 C 159.96 71.44 155.53 72.54 151.97 72.48 C 144.54 72.54 138.20 77.01 130.94 77.86 M 363.37 79.42 C 359.83 83.68 363.03 88.98 364.13 93.51 C 365.87 101.65 366.05 110.25 364.34 118.40 L 366.44 118.75 C 366.21 118.98 365.75 119.44 365.52 119.67 C 365.47 122.27 365.39 124.88 365.31 127.49 C 364.79 127.43 363.75 127.33 363.23 127.27 C 363.36 127.83 363.62 128.94 363.74 129.49 L 362.47 129.47 C 362.40 133.83 362.38 138.19 362.48 142.56 C 363.31 142.62 364.14 142.68 364.98 142.73 C 364.41 143.08 363.26 143.78 362.69 144.13 C 366.48 143.11 365.07 146.73 365.57 148.52 L 366.52 148.47 C 366.58 153.83 366.53 159.19 366.51 164.55 L 365.44 164.46 C 365.44 166.13 365.45 167.80 365.46 169.47 L 364.17 169.29 L 364.63 170.48 L 363.31 170.49 C 363.38 171.22 363.51 172.69 363.58 173.43 L 362.38 173.48 C 362.41 174.77 362.44 176.06 362.48 177.36 L 361.37 177.42 L 361.56 178.54 L 360.40 178.58 C 360.42 179.30 360.45 180.73 360.46 181.45 C 359.99 181.43 359.04 181.40 358.56 181.39 L 358.56 182.61 L 357.50 182.54 C 357.44 183.82 357.37 185.10 357.31 186.39 C 356.59 186.38 355.15 186.36 354.43 186.36 L 354.63 187.64 L 353.34 187.43 C 353.35 188.16 353.37 189.62 353.38 190.35 C 352.75 190.36 351.50 190.40 350.88 190.42 C 349.60 192.23 348.15 193.92 346.62 195.53 C 345.91 199.54 345.22 203.55 344.41 207.54 C 344.00 207.56 343.18 207.60 342.78 207.62 C 342.28 209.92 341.71 212.19 341.30 214.51 L 340.45 214.46 C 340.43 215.63 340.41 216.81 340.39 217.99 C 338.78 219.12 337.40 220.51 337.25 222.58 C 336.66 223.26 336.06 223.93 335.45 224.60 C 335.44 225.34 335.42 226.82 335.41 227.57 C 334.93 227.48 333.98 227.32 333.50 227.24 L 333.64 228.54 L 332.77 228.67 C 332.42 230.05 331.93 231.39 331.37 232.70 C 330.83 232.60 330.29 232.51 329.76 232.41 C 329.21 234.28 328.31 236.02 327.24 237.63 C 326.75 237.57 325.78 237.46 325.30 237.40 C 325.42 237.94 325.67 239.02 325.79 239.57 L 324.49 239.43 C 324.45 248.29 324.25 257.16 324.51 266.02 C 321.68 269.04 325.43 272.22 327.24 274.56 C 333.95 282.27 343.10 287.34 352.12 291.88 C 361.29 294.43 368.95 300.82 378.30 302.96 C 380.33 300.74 381.85 298.04 382.17 295.00 C 382.80 289.01 382.68 282.91 381.60 276.98 C 381.24 275.15 381.65 272.46 383.82 272.01 C 389.90 270.71 396.73 273.17 402.28 269.60 C 406.52 266.94 412.91 265.45 414.00 259.81 C 415.12 251.73 413.77 243.51 414.66 235.41 C 419.81 231.89 424.13 227.33 427.24 221.90 C 430.26 218.14 430.84 213.23 433.24 209.15 C 435.30 205.74 435.26 201.64 435.68 197.80 C 440.12 194.64 445.12 191.30 446.92 185.86 C 447.80 182.11 447.77 178.11 446.97 174.35 C 446.15 170.48 440.46 168.71 441.70 164.26 C 443.26 160.69 446.46 157.86 446.96 153.83 C 448.04 145.34 449.66 136.72 448.02 128.18 C 447.00 123.07 447.91 117.50 445.24 112.81 C 442.98 108.68 441.78 103.94 438.56 100.39 C 433.67 94.73 427.55 89.51 420.01 88.05 C 416.16 87.04 412.03 87.93 408.27 86.60 C 405.41 85.76 405.39 82.31 404.21 80.05 C 402.84 76.91 400.92 72.94 397.09 72.55 C 385.55 71.75 373.27 72.96 363.37 79.42 M 117.65 282.68 C 117.60 283.94 117.54 285.20 117.49 286.46 C 116.98 286.46 115.95 286.45 115.44 286.45 C 115.46 287.00 115.48 288.09 115.50 288.64 C 115.04 288.58 114.13 288.46 113.68 288.40 C 113.29 290.81 112.73 293.18 112.30 295.59 L 113.60 295.38 C 113.60 296.90 113.61 298.43 113.63 299.95 C 114.14 299.48 115.15 298.55 115.66 298.08 L 115.23 300.45 L 116.64 300.53 C 116.59 301.24 116.50 302.67 116.45 303.38 L 117.36 303.46 C 117.74 304.78 118.66 305.88 119.49 306.96 C 119.49 307.58 119.49 308.81 119.49 309.43 L 120.36 309.43 C 120.84 310.35 121.32 311.27 121.81 312.19 C 123.29 313.65 124.53 315.33 124.77 317.46 C 127.21 317.51 129.65 317.50 132.09 317.48 C 134.82 314.37 138.71 312.74 142.42 311.12 C 142.45 309.57 142.53 308.01 142.56 306.45 C 143.03 306.46 143.96 306.47 144.43 306.48 C 144.43 303.76 144.46 301.05 144.41 298.33 L 145.52 298.66 C 145.51 296.89 145.52 295.13 145.54 293.37 L 144.37 293.58 C 144.41 292.91 144.48 291.56 144.51 290.89 C 143.08 290.01 141.66 289.12 140.24 288.23 C 140.33 287.82 140.52 287.01 140.61 286.61 C 138.54 286.59 136.46 286.55 134.39 286.55 L 134.59 285.30 C 133.92 285.39 132.58 285.55 131.91 285.63 C 131.60 285.25 131.00 284.48 130.69 284.10 C 126.54 282.56 122.04 282.30 117.65 282.68 M 225.72 284.61 C 223.39 287.05 219.92 289.27 219.70 292.98 C 219.35 302.60 219.80 312.25 220.95 321.82 C 221.87 324.10 223.60 326.02 224.13 328.46 C 224.65 331.31 224.50 334.23 224.72 337.11 C 224.77 340.43 227.04 343.08 228.06 346.12 C 229.66 354.08 232.18 361.93 235.93 369.15 C 237.02 372.41 236.14 376.23 238.35 379.14 C 240.22 381.76 240.77 384.97 242.12 387.82 C 243.83 389.23 246.00 389.89 248.00 390.81 C 250.09 389.35 252.64 388.24 254.00 385.98 C 255.84 380.15 255.16 373.94 256.00 367.97 C 256.69 363.68 256.14 359.30 256.98 355.04 C 257.80 351.08 257.28 347.03 257.63 343.04 C 259.13 331.70 259.58 320.22 261.88 308.99 C 263.20 304.38 261.44 299.28 258.18 295.91 C 255.08 294.08 251.07 294.29 248.15 291.96 C 244.23 289.05 239.65 287.22 235.76 284.30 C 233.12 281.74 228.17 281.77 225.72 284.61 M 305.72 284.75 C 298.93 288.68 292.37 293.54 284.51 295.02 C 282.40 296.03 281.02 298.24 280.02 300.29 C 278.43 306.81 279.81 313.64 281.45 320.02 C 283.32 328.57 283.17 337.38 284.41 346.01 C 284.71 349.66 284.34 353.36 285.07 356.98 C 286.19 366.79 286.25 376.70 287.71 386.47 C 289.71 387.95 291.55 389.98 294.06 390.51 C 297.03 390.59 300.52 388.69 301.04 385.55 C 301.52 383.04 302.55 380.72 303.96 378.61 C 306.12 375.41 304.71 371.15 306.75 367.89 C 309.01 363.97 309.96 359.50 311.68 355.34 C 313.37 351.24 313.01 346.52 315.45 342.70 C 318.65 337.94 316.51 331.93 318.50 326.80 C 319.21 325.09 320.33 323.59 321.04 321.88 C 322.17 312.02 322.81 302.04 322.19 292.12 C 321.07 288.37 317.62 285.90 314.95 283.23 C 311.95 281.76 308.16 282.47 305.72 284.75 M 397.28 288.31 C 392.60 293.03 395.14 300.16 396.04 305.87 C 397.40 312.27 403.42 315.86 409.11 317.95 C 411.49 318.78 413.93 317.71 416.29 317.33 C 419.71 311.44 420.42 304.44 423.69 298.47 C 425.92 294.59 426.68 289.20 423.54 285.59 C 421.35 282.09 416.84 281.11 413.00 281.72 C 407.33 282.51 401.79 284.79 397.28 288.31 M 439.41 299.78 C 435.86 302.40 437.52 307.57 434.70 310.62 C 432.37 313.12 432.59 316.75 431.05 319.65 C 429.23 322.80 429.42 326.54 429.68 330.04 C 429.79 332.46 431.98 334.00 433.51 335.61 C 439.54 340.65 445.10 346.35 449.31 353.03 C 450.67 354.93 451.99 357.09 454.15 358.18 C 457.39 358.79 460.71 358.58 464.00 358.64 C 480.67 358.55 497.35 358.76 514.02 358.53 C 517.45 358.86 519.66 355.56 520.46 352.64 C 519.10 349.31 517.78 345.98 516.94 342.47 C 511.92 333.91 503.90 327.61 495.79 322.15 C 493.03 320.08 489.39 319.68 486.74 317.42 C 484.72 315.51 481.76 315.73 479.42 314.54 C 473.42 309.97 465.60 308.99 459.22 305.11 C 457.39 303.82 455.13 303.66 453.03 303.20 C 450.30 302.74 448.88 299.51 445.98 299.58 C 443.79 299.42 441.57 299.38 439.41 299.78 M 93.19 301.24 C 86.67 301.72 80.55 304.63 74.80 307.59 C 70.30 310.19 65.02 311.00 60.74 314.04 C 48.20 318.96 36.24 326.23 27.89 337.02 C 24.43 340.69 23.73 345.87 21.05 350.01 C 19.74 351.91 20.79 354.37 22.00 356.04 C 23.87 358.42 27.11 358.66 29.90 358.63 C 47.27 358.63 64.64 358.61 82.02 358.64 C 84.15 358.60 86.50 358.72 88.24 357.25 C 92.04 354.95 93.61 350.62 96.38 347.37 C 99.73 343.08 103.82 339.46 107.74 335.71 C 111.48 332.40 111.16 326.30 108.47 322.45 C 105.64 318.78 104.45 314.20 101.79 310.43 C 99.99 306.69 98.26 301.16 93.19 301.24 M 186.26 309.54 C 183.41 310.92 180.09 311.50 177.78 313.83 C 176.27 315.44 173.92 315.24 171.93 315.70 C 168.86 315.96 167.12 319.23 164.03 319.53 C 159.53 319.92 156.29 323.36 152.10 324.63 C 147.00 326.46 142.78 330.00 137.89 332.27 C 127.63 338.13 117.54 344.82 109.99 354.06 C 106.28 358.12 103.97 363.16 101.02 367.74 C 99.05 370.46 99.73 374.07 98.34 377.04 C 97.31 380.02 94.73 382.92 95.81 386.24 C 97.68 389.35 101.26 391.70 104.98 391.47 C 143.18 391.47 181.37 391.49 219.57 391.46 C 221.76 389.07 225.66 386.83 224.57 383.02 C 222.83 376.89 218.95 371.49 218.12 365.08 C 217.76 362.20 216.19 359.75 214.93 357.21 C 213.23 353.72 213.70 349.71 213.30 345.96 C 213.07 341.96 209.47 339.03 209.48 334.98 C 209.19 329.73 208.64 324.49 208.00 319.28 C 206.99 316.02 205.77 312.84 205.00 309.51 C 204.18 306.21 200.73 304.87 198.01 303.48 C 194.08 305.47 190.24 307.65 186.26 309.54 M 340.26 305.34 C 335.88 308.01 336.45 313.78 334.36 317.92 C 333.00 324.18 333.01 330.67 332.27 337.02 C 331.29 339.34 329.70 341.40 329.12 343.89 C 328.37 347.07 328.70 350.40 328.04 353.60 C 327.23 356.22 325.31 358.36 324.61 361.03 C 322.92 367.81 321.17 374.84 317.03 380.61 C 316.38 382.42 316.67 384.45 316.54 386.36 C 318.19 388.08 319.88 389.77 321.62 391.42 C 360.07 391.54 398.54 391.44 437.00 391.47 C 441.68 391.75 448.40 387.31 445.91 382.03 C 443.83 378.11 442.59 373.88 441.99 369.49 C 437.11 360.98 432.13 352.13 424.24 346.00 C 418.60 340.89 412.11 336.91 405.70 332.88 C 399.85 330.56 395.07 326.23 389.09 324.22 C 385.59 323.01 382.80 320.18 379.03 319.73 C 376.24 319.56 374.26 317.52 372.00 316.19 C 369.77 315.22 367.04 315.71 365.04 314.18 C 362.67 312.33 359.95 311.04 357.12 310.05 C 353.17 308.62 349.83 306.02 346.09 304.19 C 344.14 303.02 341.95 304.32 340.26 305.34 Z" />
</g>
</svg>
