<?xml version="1.0" encoding="UTF-8" ?>
<!DOCTYPE svg PUBLIC "-//W3C//DTD SVG 1.1//EN" "http://www.w3.org/Graphics/SVG/1.1/DTD/svg11.dtd">
<svg width="130pt" height="98pt" viewBox="0 0 130 98" version="1.1" xmlns="http://www.w3.org/2000/svg">
<g id="#d0a57eff">
<path fill="#d0a57e" opacity="1.00" d=" M 66.62 0.00 L 72.06 0.00 C 72.90 1.70 73.76 3.39 74.66 5.07 C 79.84 5.83 83.67 9.58 86.04 14.05 C 88.03 13.66 90.02 13.25 91.99 12.75 C 94.30 12.64 96.62 12.61 98.93 12.60 C 99.55 14.05 100.18 15.51 100.82 16.96 C 109.35 18.00 113.35 27.72 111.83 35.34 C 110.89 38.96 112.35 42.79 111.25 46.34 C 108.70 50.41 106.53 54.68 104.30 58.93 C 103.26 61.14 104.28 63.62 104.51 65.91 C 110.62 69.64 118.02 70.92 123.63 75.49 C 127.31 78.45 129.81 82.89 130.00 87.66 L 130.00 90.56 C 123.81 90.59 117.62 90.57 111.43 90.58 C 111.58 93.05 111.71 95.52 111.83 98.00 L 18.19 98.00 C 18.29 95.52 18.42 93.05 18.57 90.58 C 12.38 90.57 6.19 90.58 0.00 90.56 L 0.00 88.43 C -0.20 83.34 2.00 78.23 6.08 75.13 C 11.56 70.93 18.50 69.43 24.42 65.98 C 25.02 63.66 25.34 61.28 25.41 58.88 C 23.52 56.22 22.28 53.19 21.19 50.13 C 19.00 48.08 17.79 45.21 18.27 42.20 C 19.37 35.63 16.36 28.33 20.31 22.35 C 24.48 15.15 33.23 12.38 41.13 12.46 C 42.01 13.55 42.92 14.62 43.82 15.71 C 46.49 5.96 57.08 0.46 66.62 0.00 M 56.21 8.22 C 49.85 12.18 45.83 19.51 46.74 27.06 C 47.48 29.27 48.41 31.46 48.70 33.80 C 48.07 35.21 47.22 36.52 46.66 37.97 C 47.10 40.15 48.50 41.87 50.40 42.96 C 51.53 46.95 52.67 51.15 55.71 54.16 C 57.96 55.83 57.10 58.70 57.28 61.09 C 56.70 65.70 62.71 66.65 66.05 67.44 C 68.12 66.33 70.33 65.43 72.23 64.01 C 73.74 60.95 71.25 56.62 74.28 54.17 C 77.32 51.15 78.47 46.95 79.60 42.96 C 81.65 41.93 82.64 39.89 83.55 37.91 C 82.72 36.52 81.87 35.15 80.99 33.79 C 81.79 31.58 82.60 29.37 83.36 27.15 C 83.11 22.75 82.33 18.33 80.36 14.35 C 78.11 11.09 74.44 9.91 70.68 9.49 C 70.14 8.07 69.58 6.66 69.05 5.24 C 64.56 4.96 60.18 6.21 56.21 8.22 M 87.37 19.50 C 87.85 21.29 88.47 23.09 88.41 24.97 C 88.87 28.72 85.86 32.57 88.37 36.01 C 88.77 40.19 86.73 44.14 83.66 46.86 C 82.85 50.28 81.47 53.57 79.30 56.36 C 77.31 58.75 77.43 62.30 78.62 65.02 C 80.61 67.30 83.34 68.69 86.00 70.02 C 87.72 70.67 89.44 71.32 91.20 71.92 C 91.16 69.52 91.03 67.13 90.81 64.74 C 93.47 64.70 96.08 64.23 98.53 63.17 C 98.69 60.83 98.74 58.48 98.83 56.13 C 101.82 53.97 103.49 50.55 103.89 46.93 C 104.74 46.31 105.60 45.69 106.46 45.07 C 106.50 44.06 106.53 43.05 106.55 42.03 C 104.58 40.70 105.29 38.66 106.31 37.04 C 106.54 35.67 106.69 34.27 107.28 33.00 C 106.54 31.08 106.44 29.01 106.10 27.00 C 104.54 23.15 100.70 21.25 96.67 21.37 C 96.55 20.69 96.32 19.33 96.20 18.65 C 95.47 18.46 94.75 18.27 94.03 18.08 C 91.77 18.37 89.55 18.85 87.37 19.50 M 28.89 20.64 C 26.95 22.11 25.40 23.99 24.05 26.00 C 22.89 29.54 23.15 33.33 23.67 36.96 C 24.78 38.45 25.36 40.86 23.32 41.95 C 23.39 43.02 23.47 44.09 23.55 45.16 C 24.09 45.43 25.15 45.97 25.69 46.24 C 26.84 49.67 27.13 53.79 30.35 56.07 C 30.43 58.37 30.45 60.67 30.56 62.97 C 31.66 63.43 32.76 63.92 33.85 64.42 C 35.64 64.51 37.42 64.60 39.21 64.68 C 39.02 67.10 38.85 69.51 38.80 71.94 C 42.61 70.66 46.49 69.22 49.64 66.66 C 52.95 64.45 52.98 59.29 50.70 56.35 C 48.49 53.59 47.17 50.28 46.34 46.87 C 44.00 44.85 42.62 42.11 41.59 39.26 C 41.62 38.44 41.69 36.78 41.73 35.95 C 43.39 33.19 42.74 29.97 41.75 27.10 C 41.67 25.38 41.64 23.66 41.59 21.94 C 39.95 21.40 39.31 19.90 38.82 18.39 C 35.32 18.03 32.01 19.20 28.89 20.64 M 27.71 68.47 C 27.61 69.35 27.50 70.23 27.40 71.11 C 28.54 72.92 29.62 74.78 30.74 76.61 C 31.89 75.74 33.07 74.90 34.24 74.05 C 34.33 72.62 34.42 71.19 34.51 69.77 C 32.32 68.98 30.07 68.23 27.71 68.47 M 53.42 70.15 C 53.42 72.27 53.50 74.39 53.57 76.50 L 54.23 76.48 C 54.54 79.06 55.17 81.58 55.84 84.09 C 56.82 86.96 57.71 89.86 58.61 92.77 C 59.04 92.74 59.88 92.68 60.31 92.65 C 60.37 85.67 61.73 78.79 61.67 71.80 C 59.26 71.04 56.99 69.91 55.01 68.34 C 54.61 68.79 53.82 69.70 53.42 70.15 M 68.33 71.80 C 68.27 78.80 69.63 85.69 69.70 92.68 L 71.36 92.74 C 72.99 87.37 75.15 82.10 75.74 76.48 L 76.42 76.50 C 76.49 74.38 76.57 72.27 76.58 70.15 C 76.18 69.70 75.38 68.80 74.98 68.34 C 73.00 69.91 70.73 71.03 68.33 71.80 M 95.53 69.73 C 95.59 71.23 95.65 72.72 95.71 74.22 C 96.86 74.78 98.02 75.33 99.17 75.88 C 99.90 73.74 100.70 71.63 101.62 69.58 C 99.95 67.28 97.50 69.22 95.53 69.73 M 6.04 84.20 C 5.77 84.46 5.23 84.97 4.96 85.23 C 10.28 85.55 15.61 85.46 20.92 85.34 C 22.16 83.18 23.70 81.19 25.78 79.79 C 25.39 77.67 24.29 75.80 23.25 73.95 C 22.98 73.58 22.45 72.84 22.19 72.47 C 16.77 76.18 8.14 76.95 6.04 84.20 M 105.80 72.44 C 105.11 74.62 104.38 76.79 103.64 78.96 C 105.80 80.78 107.70 82.88 109.10 85.34 C 113.99 85.50 118.88 85.40 123.77 85.42 C 123.66 84.53 123.56 83.64 123.45 82.75 C 121.69 80.42 119.44 78.54 116.85 77.22 C 114.55 76.13 112.22 75.15 109.83 74.31 C 108.48 73.69 107.13 73.09 105.80 72.44 M 43.01 76.01 C 41.65 76.66 40.28 77.29 38.89 77.88 C 32.31 80.73 24.34 85.10 24.09 93.26 C 33.76 93.28 43.42 93.28 53.09 93.26 C 51.90 88.43 49.97 83.80 49.08 78.89 C 48.75 77.26 48.47 75.62 48.22 73.98 C 46.45 74.56 44.72 75.26 43.01 76.01 M 81.78 73.97 C 81.52 75.61 81.25 77.25 80.92 78.88 C 80.44 81.30 79.76 83.68 79.08 86.05 C 78.42 88.20 77.76 90.37 76.52 92.27 C 76.81 92.53 77.39 93.06 77.68 93.32 C 86.80 93.20 95.93 93.33 105.05 93.25 C 105.46 93.00 106.27 92.50 106.68 92.25 C 105.00 89.89 104.42 86.85 102.27 84.82 C 99.16 81.64 95.11 79.66 91.13 77.81 C 89.75 77.24 88.38 76.64 87.02 76.03 C 85.32 75.25 83.57 74.55 81.78 73.97 Z" />
</g>
</svg>
