<?xml version="1.0" encoding="UTF-8" ?>
<!DOCTYPE svg PUBLIC "-//W3C//DTD SVG 1.1//EN" "http://www.w3.org/Graphics/SVG/1.1/DTD/svg11.dtd">
<svg width="117pt" height="123pt" viewBox="0 0 117 123" version="1.1" xmlns="http://www.w3.org/2000/svg">
<g id="#d0a57eff">
<path fill="#d0a57e" opacity="1.00" d=" M 91.00 0.00 L 107.15 0.00 C 107.63 0.26 108.60 0.79 109.08 1.06 C 109.48 6.80 109.28 12.56 109.16 18.30 C 107.62 18.31 105.54 19.25 104.51 17.60 C 103.98 14.52 104.36 11.38 104.43 8.28 C 98.05 14.64 91.70 21.02 85.32 27.38 C 82.77 30.11 80.06 32.70 77.07 34.94 C 73.31 31.77 69.97 28.14 66.50 24.67 C 55.10 36.56 43.23 47.99 31.66 59.72 C 28.88 62.47 26.21 65.36 23.08 67.72 C 21.90 66.47 19.65 64.32 21.82 62.83 C 36.59 48.01 51.35 33.17 66.23 18.47 C 70.48 21.17 73.55 25.26 77.20 28.67 C 85.19 20.76 93.10 12.77 101.08 4.86 C 97.79 4.89 94.47 5.20 91.19 4.76 C 88.93 3.94 89.59 1.31 91.00 0.00 Z" />
<path fill="#d0a57e" opacity="1.00" d=" M 84.43 41.93 C 84.15 38.32 87.51 35.42 90.98 35.48 C 95.39 35.42 99.86 35.12 104.25 35.68 C 107.66 36.31 109.65 39.72 109.28 43.04 C 109.23 68.09 109.35 93.14 109.22 118.19 C 111.36 118.28 113.54 118.08 115.64 118.59 C 117.51 119.21 116.38 121.60 116.48 123.00 L 1.50 123.00 C -0.02 121.80 -0.31 119.61 1.55 118.60 C 3.76 118.06 6.07 118.29 8.32 118.20 C 8.36 110.84 8.16 103.47 8.37 96.11 C 8.40 92.75 11.71 90.28 14.89 90.29 C 18.89 90.18 22.90 90.13 26.90 90.33 C 29.92 90.43 32.99 92.76 32.81 96.00 C 33.03 103.42 32.81 110.84 32.88 118.26 C 37.37 118.27 41.86 118.27 46.35 118.26 C 46.30 104.82 46.36 91.38 46.31 77.94 C 46.25 75.86 46.53 73.60 48.15 72.12 C 50.93 69.14 55.38 70.11 59.01 69.89 C 62.59 70.08 67.05 69.23 69.62 72.40 C 71.38 74.15 71.25 76.75 71.27 79.04 C 71.17 92.11 71.32 105.18 71.18 118.25 C 75.60 118.27 80.02 118.27 84.44 118.26 C 84.39 92.82 84.41 67.37 84.43 41.93 M 90.23 40.34 C 89.01 41.17 89.44 42.74 89.34 43.98 C 89.37 68.74 89.43 93.49 89.31 118.25 C 94.31 118.28 99.31 118.26 104.31 118.26 C 104.27 93.83 104.28 69.40 104.31 44.98 C 104.30 43.41 104.15 41.84 103.95 40.29 C 99.38 40.21 94.79 39.99 90.23 40.34 M 51.75 74.74 C 51.49 76.13 51.27 77.54 51.29 78.96 C 51.31 92.06 51.38 105.15 51.26 118.25 C 56.26 118.28 61.26 118.26 66.27 118.26 C 66.15 104.16 66.40 90.05 66.15 75.96 C 65.83 75.68 65.17 75.11 64.84 74.82 C 60.49 74.54 56.11 74.80 51.75 74.74 M 12.98 95.68 C 13.20 103.20 13.13 110.72 13.02 118.25 C 18.09 118.28 23.16 118.26 28.23 118.26 C 28.15 111.14 28.31 104.02 28.17 96.91 C 28.49 95.11 26.33 94.92 25.11 94.95 C 21.08 95.06 16.87 94.34 12.98 95.68 Z" />
<path fill="#d0a57e" opacity="1.00" d=" M 13.50 71.38 C 15.19 69.31 17.28 71.57 18.34 73.04 C 17.28 74.04 16.16 74.96 14.98 75.80 C 13.68 74.84 11.77 72.93 13.50 71.38 Z" />
</g>
</svg>
