<?xml version="1.0" encoding="UTF-8" ?>
<!DOCTYPE svg PUBLIC "-//W3C//DTD SVG 1.1//EN" "http://www.w3.org/Graphics/SVG/1.1/DTD/svg11.dtd">
<svg width="100pt" height="100pt" viewBox="0 0 100 100" version="1.1" xmlns="http://www.w3.org/2000/svg">
<g id="#d0a57eff">
<path fill="#d0a57e" opacity="1.00" d=" M 64.15 1.08 C 66.79 -0.78 70.53 0.04 72.24 2.74 C 74.48 4.98 73.75 8.36 72.64 10.96 C 78.07 19.72 83.26 28.62 88.78 37.32 C 91.26 37.12 94.18 36.97 95.85 39.23 C 98.79 42.12 97.66 47.29 94.12 49.15 C 87.49 53.23 80.79 57.20 74.14 61.25 C 71.42 63.02 67.30 63.76 64.91 61.07 C 62.49 59.07 63.15 55.76 63.63 53.08 C 62.02 50.44 60.42 47.81 58.96 45.09 C 57.58 45.57 56.24 46.16 55.03 47.00 C 41.90 55.88 28.60 64.51 15.45 73.38 C 12.61 75.29 8.94 76.69 5.58 75.25 C 2.72 73.74 0.23 70.96 0.00 67.62 L 0.00 66.82 C 0.60 62.80 4.17 60.19 7.43 58.27 C 22.00 50.13 36.65 42.11 51.19 33.93 C 51.59 31.22 48.46 28.93 47.47 26.42 C 44.04 26.47 39.83 24.83 39.32 21.00 C 38.49 17.48 41.38 14.75 44.10 13.12 C 50.79 9.12 57.52 5.18 64.15 1.08 M 49.12 15.20 C 48.08 15.89 46.90 16.33 45.68 16.62 C 44.44 17.85 43.01 19.23 43.67 21.16 C 45.00 22.04 46.69 22.02 47.96 21.05 C 54.93 16.48 62.31 12.57 69.23 7.94 C 70.24 6.00 68.52 5.16 67.08 4.35 C 61.19 8.13 55.03 11.46 49.12 15.20 M 66.10 15.09 C 61.19 18.15 56.30 21.25 51.24 24.04 C 55.98 32.88 61.83 41.08 66.56 49.93 C 73.04 47.65 78.21 42.66 84.52 39.94 C 84.52 38.49 83.64 37.30 82.93 36.11 C 78.51 29.05 74.32 21.83 69.94 14.75 C 68.93 13.36 67.20 14.46 66.10 15.09 M 20.08 56.20 C 14.98 59.50 8.78 61.37 4.54 65.84 C 3.81 69.29 7.66 73.20 10.99 71.05 C 25.84 61.50 40.31 51.32 55.28 41.95 C 55.43 41.51 55.72 40.65 55.87 40.21 C 55.24 39.25 54.62 38.29 54.02 37.31 C 42.73 43.64 31.38 49.87 20.08 56.20 M 81.55 46.71 C 76.82 49.91 71.31 52.02 67.11 55.92 C 67.27 56.54 67.60 57.79 67.77 58.41 C 69.25 58.46 70.74 58.43 72.22 58.31 C 73.18 55.86 76.00 55.31 77.94 53.89 C 83.07 50.53 88.76 47.99 93.50 44.06 C 93.17 43.36 92.51 41.96 92.17 41.27 C 88.11 41.77 85.13 44.98 81.55 46.71 Z" />
<path fill="#d0a57e" opacity="1.00" d=" M 48.03 91.93 C 48.55 88.71 51.83 86.44 55.01 86.69 C 67.71 86.72 80.41 86.65 93.11 86.73 C 96.06 86.68 98.26 88.99 100.00 91.09 L 100.00 100.00 L 47.80 100.00 C 47.81 97.31 47.59 94.60 48.03 91.93 M 52.40 91.55 C 52.33 92.50 52.18 94.41 52.11 95.36 C 66.55 95.38 80.98 95.37 95.42 95.36 C 95.39 94.45 95.32 92.63 95.29 91.71 C 93.87 91.33 92.42 91.05 90.94 91.09 C 81.29 91.13 71.64 91.10 61.99 91.11 C 58.79 91.13 55.55 90.88 52.40 91.55 Z" />
</g>
</svg>
