<?xml version="1.0" encoding="UTF-8" ?>
<!DOCTYPE svg PUBLIC "-//W3C//DTD SVG 1.1//EN" "http://www.w3.org/Graphics/SVG/1.1/DTD/svg11.dtd">
<svg width="79pt" height="133pt" viewBox="0 0 79 133" version="1.1" xmlns="http://www.w3.org/2000/svg">
<g id="#d0a57eff">
<path fill="#d0a57e" opacity="1.00" d=" M 7.62 0.00 L 54.08 0.00 C 62.36 9.72 70.77 19.33 79.00 29.09 L 79.00 105.21 C 78.43 108.68 75.57 111.62 72.08 112.17 C 68.87 112.49 65.65 112.26 62.43 112.30 C 62.53 119.20 62.37 126.10 62.57 133.00 L 62.34 133.00 C 58.86 129.57 55.43 126.09 52.02 122.59 C 48.59 126.10 45.21 129.68 41.58 132.99 C 41.66 126.11 41.55 119.22 41.68 112.34 C 30.45 112.23 19.21 112.41 7.98 112.26 C 4.05 112.17 0.82 108.96 0.00 105.23 L 0.00 7.46 C 0.50 3.53 3.77 0.51 7.62 0.00 M 4.22 8.01 C 4.20 39.99 4.23 71.97 4.20 103.95 C 4.02 106.47 6.61 108.39 8.99 108.14 C 19.86 108.14 30.72 108.11 41.59 108.16 C 41.51 106.23 42.28 103.90 40.67 102.40 C 35.96 97.12 36.65 88.45 41.57 83.54 C 46.28 78.46 54.71 77.54 60.31 81.69 C 66.79 85.91 68.77 95.72 63.79 101.83 C 61.96 103.49 62.42 105.96 62.49 108.15 C 65.39 108.08 68.29 108.24 71.19 108.09 C 73.18 107.90 74.98 106.11 74.89 104.06 C 74.88 80.46 74.90 56.86 74.88 33.26 C 69.25 33.26 63.62 33.32 57.99 33.25 C 53.69 33.26 49.99 29.38 49.93 25.14 C 49.85 18.18 49.87 11.23 49.95 4.27 C 36.28 4.20 22.61 4.26 8.95 4.24 C 6.68 3.89 4.28 5.68 4.22 8.01 M 53.89 6.31 C 54.48 12.81 53.96 19.34 54.22 25.85 C 54.81 27.84 56.83 29.37 58.94 29.18 C 63.91 29.20 68.87 29.12 73.84 29.23 C 67.06 21.70 60.82 13.68 53.89 6.31 M 49.40 83.51 C 42.04 85.05 38.98 95.26 44.34 100.56 C 49.47 106.70 60.69 103.84 62.17 95.96 C 64.26 88.67 56.62 81.30 49.40 83.51 M 45.72 106.89 C 45.79 112.34 45.80 117.79 45.69 123.23 C 47.82 121.09 49.93 118.95 52.00 116.75 C 54.13 118.89 56.21 121.07 58.33 123.23 C 58.25 117.78 58.24 112.34 58.31 106.89 C 54.26 108.49 49.78 108.47 45.72 106.89 Z" />
<path fill="#d0a57e" opacity="1.00" d=" M 12.45 16.67 C 22.16 16.64 31.87 16.75 41.57 16.61 C 41.64 17.99 41.65 19.38 41.67 20.76 C 31.96 20.82 22.25 20.72 12.54 20.81 C 12.51 19.43 12.48 18.05 12.45 16.67 Z" />
<path fill="#d0a57e" opacity="1.00" d=" M 12.52 29.15 C 22.23 29.20 31.95 29.15 41.67 29.18 C 41.64 30.57 41.62 31.95 41.58 33.33 C 31.88 33.21 22.17 33.31 12.47 33.28 C 12.49 31.90 12.51 30.53 12.52 29.15 Z" />
<path fill="#d0a57e" opacity="1.00" d=" M 12.45 41.59 C 30.50 41.57 48.55 41.62 66.60 41.57 C 66.61 42.97 66.62 44.36 66.63 45.76 C 48.60 45.81 30.56 45.74 12.52 45.79 C 12.50 44.39 12.48 42.99 12.45 41.59 Z" />
<path fill="#d0a57e" opacity="1.00" d=" M 12.52 54.09 C 30.55 54.12 48.58 54.09 66.60 54.10 C 66.61 55.50 66.62 56.89 66.63 58.28 C 48.58 58.27 30.52 58.27 12.47 58.28 C 12.49 56.88 12.51 55.48 12.52 54.09 Z" />
<path fill="#d0a57e" opacity="1.00" d=" M 12.47 66.52 C 30.53 66.52 48.58 66.49 66.64 66.54 C 66.65 67.56 66.67 69.60 66.68 70.61 C 48.61 70.80 30.53 70.71 12.46 70.66 C 12.46 69.63 12.47 67.56 12.47 66.52 Z" />
</g>
</svg>
