<?xml version="1.0" encoding="UTF-8" ?>
<!DOCTYPE svg PUBLIC "-//W3C//DTD SVG 1.1//EN" "http://www.w3.org/Graphics/SVG/1.1/DTD/svg11.dtd">
<svg width="79pt" height="133pt" viewBox="0 0 79 133" version="1.1" xmlns="http://www.w3.org/2000/svg">
<g id="#d0a57eff">
<path fill="#d0a57e" opacity="1.00" d=" M 7.53 0.00 L 54.08 0.00 C 62.36 9.72 70.77 19.33 79.00 29.10 L 79.00 105.34 C 78.33 108.75 75.53 111.64 72.06 112.17 C 68.85 112.48 65.62 112.25 62.40 112.35 C 62.57 119.23 62.36 126.12 62.55 133.00 L 62.22 133.00 C 58.88 129.48 55.39 126.09 52.02 122.59 C 48.59 126.10 45.21 129.68 41.58 132.99 C 41.66 126.10 41.55 119.22 41.68 112.33 C 30.45 112.23 19.22 112.41 7.99 112.26 C 4.07 112.19 0.88 108.99 0.00 105.30 L 0.00 7.31 C 0.59 3.49 3.75 0.57 7.53 0.00 M 4.19 8.95 C 4.23 40.64 4.21 72.34 4.21 104.03 C 4.06 106.51 6.63 108.38 8.97 108.14 C 19.82 108.17 30.67 108.05 41.51 108.20 C 41.55 106.27 42.28 103.93 40.68 102.41 C 35.97 97.13 36.64 88.47 41.55 83.56 C 46.27 78.46 54.72 77.54 60.33 81.71 C 66.80 85.93 68.76 95.74 63.78 101.84 C 62.01 103.46 62.43 105.89 62.40 108.04 C 65.31 108.15 68.23 108.24 71.14 108.08 C 73.16 107.93 74.99 106.12 74.89 104.05 C 74.92 80.46 74.84 56.87 74.93 33.29 C 69.29 33.23 63.65 33.34 58.01 33.25 C 53.69 33.28 49.97 29.36 49.93 25.09 C 49.83 18.15 49.91 11.20 49.93 4.25 C 35.98 4.26 22.03 4.20 8.09 4.28 C 5.72 4.21 3.85 6.69 4.19 8.95 M 53.90 6.31 C 54.48 12.80 53.96 19.32 54.22 25.82 C 54.78 27.85 56.84 29.37 58.97 29.18 C 63.92 29.21 68.88 29.11 73.84 29.24 C 67.07 21.70 60.82 13.69 53.90 6.31 M 49.41 83.50 C 42.04 85.04 38.98 95.27 44.35 100.57 C 49.48 106.70 60.69 103.83 62.17 95.96 C 64.25 88.68 56.63 81.31 49.41 83.50 M 45.72 106.90 C 45.79 112.34 45.81 117.78 45.69 123.22 C 47.84 121.09 49.93 118.92 52.03 116.75 C 54.12 118.91 56.21 121.07 58.34 123.20 C 58.24 117.76 58.25 112.33 58.31 106.90 C 54.26 108.48 49.78 108.46 45.72 106.90 Z" />
<path fill="#d0a57e" opacity="1.00" d=" M 12.46 16.67 C 22.18 16.65 31.89 16.72 41.61 16.63 C 41.63 18.01 41.65 19.38 41.67 20.75 C 31.96 20.83 22.24 20.74 12.52 20.80 C 12.50 19.42 12.48 18.05 12.46 16.67 Z" />
<path fill="#d0a57e" opacity="1.00" d=" M 12.53 29.14 C 22.25 29.22 31.96 29.14 41.67 29.19 C 41.65 30.57 41.62 31.96 41.56 33.35 C 31.86 33.19 22.16 33.32 12.46 33.28 C 12.49 31.90 12.51 30.52 12.53 29.14 Z" />
<path fill="#d0a57e" opacity="1.00" d=" M 12.44 41.59 C 30.49 41.57 48.55 41.62 66.60 41.57 C 66.61 42.96 66.63 44.36 66.64 45.75 C 48.62 45.84 30.60 45.68 12.58 45.83 C 12.53 44.42 12.48 43.01 12.44 41.59 Z" />
<path fill="#d0a57e" opacity="1.00" d=" M 12.53 54.08 C 30.56 54.13 48.60 54.07 66.63 54.12 C 66.61 55.52 66.59 56.92 66.56 58.33 C 48.53 58.21 30.50 58.31 12.47 58.28 C 12.49 56.88 12.51 55.48 12.53 54.08 Z" />
<path fill="#d0a57e" opacity="1.00" d=" M 12.48 66.52 C 30.53 66.52 48.58 66.49 66.63 66.54 C 66.65 67.55 66.69 69.57 66.71 70.57 C 48.62 70.81 30.51 70.77 12.41 70.60 C 12.43 69.58 12.47 67.54 12.48 66.52 Z" />
</g>
</svg>
