<?xml version="1.0" encoding="UTF-8" ?>
<!DOCTYPE svg PUBLIC "-//W3C//DTD SVG 1.1//EN" "http://www.w3.org/Graphics/SVG/1.1/DTD/svg11.dtd">
<svg width="109pt" height="121pt" viewBox="0 0 109 121" version="1.1" xmlns="http://www.w3.org/2000/svg">
<g id="#c69d78f3">
<path fill="#c69d78" opacity="0.95" d=" M 30.22 0.00 L 80.24 0.00 C 83.14 2.64 84.63 6.28 85.87 9.91 C 88.12 16.26 93.54 21.13 99.83 23.35 C 103.20 24.42 106.26 26.21 109.00 28.43 L 109.00 55.79 C 107.66 58.28 106.72 60.95 106.05 63.69 C 101.20 82.25 89.89 99.15 74.27 110.35 C 68.50 114.61 62.04 117.79 55.66 121.00 L 53.36 121.00 C 43.53 116.21 33.70 110.90 25.95 103.05 C 14.81 92.24 6.59 78.38 2.77 63.32 C 2.03 60.24 1.10 57.21 0.00 54.24 L 0.00 29.85 C 3.75 23.83 11.73 24.20 16.52 19.50 C 19.36 17.07 21.21 13.76 23.90 11.20 C 24.66 11.55 26.19 12.24 26.96 12.59 C 23.75 18.91 18.65 24.56 11.85 26.98 C 9.08 28.35 4.45 28.55 3.97 32.35 C 2.57 51.92 7.22 72.29 18.70 88.41 C 27.25 101.10 39.99 110.65 54.08 116.38 C 59.89 115.06 64.98 111.33 70.02 108.21 C 87.77 96.40 99.97 76.80 103.47 55.84 C 105.15 47.69 104.82 39.28 104.48 31.03 C 102.54 28.30 98.86 28.06 96.07 26.61 C 88.97 23.39 83.28 17.04 80.99 9.57 C 80.17 7.29 79.18 3.79 76.05 4.31 C 60.98 4.23 45.91 4.32 30.84 4.28 C 30.66 2.85 30.47 1.42 30.22 0.00 Z" />
<path fill="#c69d78" opacity="0.95" d=" M 42.57 17.06 C 49.86 16.16 57.37 16.78 64.74 16.73 C 71.79 17.72 73.76 25.35 78.53 29.46 C 79.96 31.05 82.74 32.76 81.26 35.26 C 79.38 36.60 77.77 34.58 76.48 33.47 C 73.09 30.48 70.74 26.59 67.88 23.14 C 65.98 20.74 62.66 21.52 60.01 21.37 C 54.37 21.59 48.70 21.02 43.10 21.66 C 39.32 23.99 37.76 28.56 34.47 31.47 C 31.12 35.45 26.10 37.63 22.90 41.72 C 20.07 62.88 33.09 84.69 52.46 93.32 C 55.83 94.51 58.95 92.20 61.73 90.61 C 77.22 81.09 87.36 63.26 86.52 44.95 C 86.09 42.61 88.51 41.73 90.31 42.69 C 92.62 66.47 76.87 91.18 54.06 98.41 C 32.48 90.43 17.43 67.94 18.39 44.95 C 17.89 40.76 20.99 37.41 24.09 35.07 C 28.43 31.85 32.40 28.06 35.46 23.58 C 37.31 20.93 39.28 17.99 42.57 17.06 Z" />
<path fill="#c69d78" opacity="0.95" d=" M 65.51 50.62 C 66.61 50.41 67.72 50.27 68.83 50.18 C 68.55 51.66 68.87 53.49 67.48 54.50 C 63.14 58.81 58.81 63.14 54.49 67.49 C 53.32 69.11 50.71 68.99 49.54 67.44 C 47.26 65.16 44.60 63.04 43.37 59.98 C 46.86 54.84 49.26 64.73 53.42 62.47 C 57.65 58.73 61.25 54.33 65.51 50.62 Z" />
</g>
</svg>
