<?xml version="1.0" encoding="UTF-8" ?>
<!DOCTYPE svg PUBLIC "-//W3C//DTD SVG 1.1//EN" "http://www.w3.org/Graphics/SVG/1.1/DTD/svg11.dtd">
<svg width="107pt" height="111pt" viewBox="0 0 107 111" version="1.1" xmlns="http://www.w3.org/2000/svg">
<g id="#000000ff">
<path fill="#000000" opacity="1.00" d=" M 51.59 0.00 L 55.29 0.00 C 55.70 2.93 55.70 5.90 55.76 8.86 C 69.60 9.56 83.50 14.57 93.35 24.55 C 101.67 32.98 106.55 44.67 107.00 56.48 L 107.00 59.17 C 106.00 59.43 105.00 59.69 104.00 59.96 C 98.58 54.92 91.75 49.86 83.87 51.32 C 78.23 51.74 74.62 56.33 70.75 59.82 C 68.46 59.92 67.40 57.40 65.81 56.16 C 63.21 53.22 59.38 52.02 55.75 50.93 C 55.61 65.63 55.76 80.33 55.69 95.03 C 56.08 103.28 48.92 110.82 40.68 111.00 L 38.13 111.00 C 30.27 109.79 24.71 102.64 24.35 94.89 C 24.76 94.48 25.57 93.67 25.98 93.27 C 26.58 93.32 27.78 93.43 28.38 93.49 C 29.18 98.16 30.61 103.57 35.52 105.50 C 42.25 109.15 51.04 103.51 51.24 96.06 C 51.39 81.02 51.31 65.97 51.25 50.93 C 47.62 52.03 43.76 53.21 41.18 56.18 C 39.59 57.41 38.54 59.87 36.27 59.84 C 32.37 56.32 28.71 51.69 23.02 51.32 C 15.21 49.88 7.75 53.96 3.05 59.99 C 2.03 59.72 1.02 59.45 0.00 59.19 L 0.00 56.49 C 0.49 40.88 9.02 25.63 22.49 17.55 C 31.02 11.90 41.21 9.65 51.27 8.75 C 51.34 5.83 51.39 2.91 51.59 0.00 M 25.06 21.07 C 14.39 27.61 6.88 38.98 5.33 51.44 C 11.02 47.80 18.03 45.37 24.79 47.16 C 29.49 48.05 33.37 51.01 36.90 54.06 C 42.56 48.32 51.20 44.86 59.15 47.45 C 63.39 48.38 66.66 51.28 70.05 53.78 C 73.62 51.69 76.59 48.34 80.86 47.51 C 88.11 44.95 95.72 47.87 101.68 52.06 C 100.14 36.53 89.01 22.87 74.56 17.33 C 58.69 10.91 39.72 12.07 25.06 21.07 Z" />
</g>
</svg>
