<?xml version="1.0" standalone="no"?>
<!DOCTYPE svg PUBLIC "-//W3C//DTD SVG 20010904//EN"
 "http://www.w3.org/TR/2001/REC-SVG-20010904/DTD/svg10.dtd">
<svg version="1.0" xmlns="http://www.w3.org/2000/svg"
 width="119.000000pt" height="119.000000pt" viewBox="0 0 119.000000 119.000000"
 preserveAspectRatio="xMidYMid meet">
<metadata>
Created by potrace 1.14, written by Peter Selinger 2001-2017
</metadata>
<g transform="translate(0.000000,119.000000) scale(0.100000,-0.100000)"
fill="#000000" stroke="none">
<path d="M574 1180 c-11 -11 -109 -47 -146 -54 -13 -3 -44 -5 -70 -5 l-48 -1
0 -67 c0 -48 3 -64 10 -53 7 11 10 11 10 2 0 -8 5 -10 13 -6 6 4 9 4 6 1 -21
-25 -176 -99 -205 -99 -14 0 -26 -8 -30 -20 -7 -22 3 -38 14 -22 4 6 22 11 40
12 47 1 69 10 119 48 25 19 50 34 56 33 8 0 8 -2 0 -6 -7 -2 -13 -14 -13 -26
0 -18 -2 -19 -10 -7 -7 12 -10 8 -10 -15 0 -23 3 -27 10 -15 8 12 10 10 10 -8
0 -13 -4 -20 -10 -17 -6 4 -10 -5 -10 -19 0 -14 5 -26 10 -26 6 0 10 -8 10
-17 0 -15 -2 -16 -10 -3 -8 12 -10 9 -10 -12 0 -16 5 -28 10 -28 6 0 10 -8 10
-17 0 -15 -2 -16 -10 -3 -8 12 -10 9 -10 -12 0 -16 5 -28 10 -28 6 0 10 -8 10
-17 0 -15 -2 -16 -10 -3 -8 12 -10 9 -10 -12 0 -16 5 -28 10 -28 6 0 10 -8 10
-17 0 -15 -2 -16 -10 -3 -7 10 -10 -11 -10 -70 0 -132 32 -184 142 -235 147
-67 341 -15 405 109 20 38 23 208 5 214 -7 2 -12 8 -12 13 0 4 6 6 14 3 10 -4
13 0 11 13 -2 10 -4 22 -4 26 -1 5 -5 5 -11 2 -5 -3 -10 -1 -10 4 0 6 6 11 13
11 10 0 13 25 11 112 -2 62 -7 114 -12 116 -5 1 -18 10 -28 18 -11 8 -1 6 23
-5 23 -12 44 -25 48 -31 13 -21 66 -40 119 -43 48 -3 54 -2 46 12 -4 9 -21 18
-36 19 -27 2 -60 17 -131 58 -29 17 -32 23 -31 69 1 98 4 93 -57 94 -63 0
-142 22 -192 51 -40 23 -36 23 -49 10z m71 -36 c31 -14 89 -32 128 -39 40 -7
58 -14 42 -14 -41 -1 -136 24 -185 49 l-38 20 -54 -25 c-53 -24 -168 -48 -168
-35 0 4 25 10 55 13 41 4 127 34 161 56 1 1 27 -11 59 -25z m-305 -48 c0 -3
-4 -8 -10 -11 -5 -3 -10 -1 -10 4 0 6 5 11 10 11 6 0 10 -2 10 -4z m517 -28
c-3 -7 -5 -2 -5 12 0 14 2 19 5 13 2 -7 2 -19 0 -25z m-530 -20 c-3 -8 -6 -5
-6 6 -1 11 2 17 5 13 3 -3 4 -12 1 -19z m314 -6 c-7 -2 -18 1 -23 6 -8 8 -4 9
13 5 13 -4 18 -8 10 -11z m74 -12 c3 -6 -1 -7 -9 -4 -18 7 -21 14 -7 14 6 0
13 -4 16 -10z m148 -10 c-3 -11 -7 -20 -9 -20 -2 0 -4 9 -4 20 0 11 4 20 9 20
5 0 7 -9 4 -20z m-258 0 c-3 -5 -10 -10 -16 -10 -5 0 -9 5 -9 10 0 6 7 10 16
10 8 0 12 -4 9 -10z m17 -45 c-14 -23 -7 -75 24 -157 27 -73 29 -89 18 -99
-17 -14 -18 -59 -1 -59 8 0 9 -3 1 -8 -6 -4 -12 -30 -13 -58 -3 -69 19 -79 64
-29 18 19 38 35 45 35 9 0 7 -6 -5 -20 -17 -19 -17 -19 14 -10 17 5 31 5 31 1
0 -13 -51 -61 -66 -62 -8 -1 -18 -3 -24 -4 -5 -1 -14 -3 -20 -4 -16 -2 -82
-108 -84 -134 0 -14 -4 -23 -8 -21 -3 2 -9 -2 -12 -8 -3 -7 -4 -4 -2 7 7 30
-63 137 -99 153 -59 25 -78 37 -92 58 -13 20 -12 21 13 16 24 -4 25 -3 14 17
-11 22 -11 22 14 6 13 -9 32 -27 41 -41 17 -26 23 -28 44 -15 15 10 23 69 10
76 -4 3 -6 12 -2 20 3 9 -1 15 -8 15 -9 0 -7 4 4 13 15 11 15 15 1 44 -13 27
-14 38 -4 65 30 82 30 85 2 84 -27 -1 -32 -8 -62 -78 -13 -34 -25 -48 -38 -48
-19 0 -19 2 2 58 39 104 60 123 109 97 23 -12 26 -11 31 9 3 11 6 38 6 59 0
35 2 37 29 35 18 -1 27 -6 23 -13z m65 9 c-3 -3 -12 -4 -19 -1 -8 3 -5 6 6 6
11 1 17 -2 13 -5z m-250 -20 c-3 -3 -12 -4 -19 -1 -8 3 -5 6 6 6 11 1 17 -2
13 -5z m368 -12 c-3 -3 -11 0 -18 7 -9 10 -8 11 6 5 10 -3 15 -9 12 -12z
m-412 1 c-7 -2 -19 -2 -25 0 -7 3 -2 5 12 5 14 0 19 -2 13 -5z m314 -68 c12
-8 31 -39 41 -68 11 -28 23 -60 27 -69 6 -14 2 -18 -14 -18 -14 0 -25 9 -31
28 -32 86 -43 103 -66 98 -31 -8 -41 22 -11 34 30 12 30 12 54 -5z m150 -47
c-3 -8 -6 -5 -6 6 -1 11 2 17 5 13 3 -3 4 -12 1 -19z m0 -50 c-3 -7 -5 -2 -5
12 0 14 2 19 5 13 2 -7 2 -19 0 -25z m0 -40 c-3 -8 -6 -5 -6 6 -1 11 2 17 5
13 3 -3 4 -12 1 -19z m0 -150 c-3 -8 -6 -5 -6 6 -1 11 2 17 5 13 3 -3 4 -12 1
-19z m0 -80 c-2 -13 -4 -3 -4 22 0 25 2 35 4 23 2 -13 2 -33 0 -45z m-530 20
c-3 -7 -5 -2 -5 12 0 14 2 19 5 13 2 -7 2 -19 0 -25z m51 -153 c31 -35 118
-74 180 -82 60 -7 138 11 198 44 49 27 69 52 90 111 7 20 13 29 14 19 1 -57
-55 -123 -135 -158 -105 -46 -243 -31 -332 37 -36 27 -73 93 -72 129 0 11 8
-1 17 -27 9 -26 27 -59 40 -73z"/>
<path d="M580 846 c0 -8 -3 -21 -6 -30 -4 -12 0 -16 15 -16 23 0 24 3 15 38
-7 24 -24 30 -24 8z"/>
<path d="M557 764 c-14 -14 -6 -19 33 -20 24 0 39 4 37 10 -4 13 -59 20 -70
10z"/>
<path d="M585 459 c3 -100 15 -117 15 -21 0 38 3 77 6 86 4 10 1 16 -9 16 -12
0 -14 -14 -12 -81z"/>
<path d="M1070 846 c0 -2 8 -10 18 -17 15 -13 16 -12 3 4 -13 16 -21 21 -21
13z"/>
<path d="M146 817 c3 -10 9 -15 12 -12 3 3 0 11 -7 18 -10 9 -11 8 -5 -6z"/>
<path d="M175 750 c3 -5 8 -10 11 -10 2 0 4 5 4 10 0 6 -5 10 -11 10 -5 0 -7
-4 -4 -10z"/>
<path d="M27 713 c-13 -13 -7 -23 26 -43 40 -25 82 -25 126 -2 44 24 40 37
-11 33 -26 -2 -44 2 -49 11 -7 10 -9 10 -9 1 0 -8 -15 -13 -41 -13 -24 0 -38
4 -34 10 7 11 2 13 -8 3z"/>
<path d="M1060 712 c0 -9 -13 -13 -42 -12 -65 3 -66 1 -23 -25 22 -14 54 -25
70 -25 17 0 48 11 70 25 43 26 41 28 -19 25 -23 -1 -42 4 -47 12 -7 11 -9 11
-9 0z"/>
<path d="M45 175 c4 -26 1 -35 -10 -35 -8 0 -15 5 -15 10 0 6 -4 10 -10 10
-19 0 -10 -29 10 -35 29 -9 47 9 52 50 3 28 1 35 -14 35 -14 0 -16 -7 -13 -35z"/>
<path d="M96 188 c-13 -19 -14 -25 -2 -43 21 -31 68 -27 80 7 18 52 -46 82
-78 36z m60 -21 c-4 -27 -17 -38 -32 -26 -17 14 -18 31 -2 47 13 13 37 -1 34
-21z"/>
<path d="M195 165 c0 -37 3 -45 18 -45 14 0 17 5 12 20 -5 15 -2 20 10 20 12
0 16 -6 12 -20 -4 -14 0 -20 12 -20 13 0 17 9 17 45 0 36 -4 45 -17 45 -12 0
-16 -6 -12 -18 3 -12 -1 -19 -11 -19 -11 0 -14 6 -10 19 4 13 0 18 -13 18 -15
0 -18 -8 -18 -45z"/>
<path d="M297 199 c6 -6 8 -23 3 -45 -7 -30 -5 -34 11 -34 16 0 18 5 14 28
l-6 27 16 -27 c22 -40 32 -35 37 17 3 38 0 45 -15 45 -15 0 -16 -3 -7 -20 7
-12 7 -20 1 -20 -5 0 -13 9 -16 20 -4 12 -15 20 -28 20 -15 0 -18 -3 -10 -11z"/>
<path d="M446 170 c-20 -50 -20 -50 0 -50 10 0 14 6 10 15 -4 10 1 15 14 15
13 0 18 -5 14 -15 -5 -12 2 -15 34 -15 37 0 39 1 35 28 l-4 27 18 -27 c10 -16
21 -28 24 -28 4 0 9 20 11 45 3 38 0 45 -15 45 -15 0 -16 -3 -7 -20 7 -12 7
-20 1 -20 -5 0 -13 9 -16 20 -4 12 -15 20 -28 20 -14 0 -18 -3 -11 -10 11 -11
6 -70 -6 -70 -4 0 -14 18 -23 40 -8 22 -20 40 -25 40 -5 0 -17 -18 -26 -40z"/>
<path d="M625 165 c0 -41 2 -45 25 -45 32 0 51 12 54 36 6 33 -12 54 -47 54
-31 0 -32 -1 -32 -45z m55 -1 c0 -15 -6 -24 -15 -24 -10 0 -15 10 -15 30 0 22
4 28 15 24 8 -4 15 -17 15 -30z"/>
<path d="M724 165 c0 -44 1 -45 32 -45 20 0 34 6 38 16 9 24 7 29 -6 16 -15
-15 -38 -16 -38 -2 0 5 3 9 8 7 4 -1 8 3 9 8 0 6 -3 9 -8 8 -5 -2 -9 2 -9 8 0
7 10 9 25 5 19 -5 23 -3 19 9 -4 9 -19 15 -38 15 -31 0 -32 -1 -32 -45z"/>
<path d="M815 165 c0 -37 3 -45 18 -45 14 0 17 5 12 23 l-6 22 20 -22 c20 -23
41 -30 41 -14 0 5 -6 11 -12 14 -10 3 -10 9 -1 24 15 27 -1 43 -41 43 -30 0
-31 -2 -31 -45z m55 15 c0 -5 -4 -10 -9 -10 -6 0 -13 5 -16 10 -3 6 1 10 9 10
9 0 16 -4 16 -10z"/>
<path d="M917 203 c-2 -5 -5 -24 -5 -44 -1 -34 0 -36 31 -35 25 1 33 6 35 23
3 17 -3 24 -22 29 -14 3 -23 10 -20 16 3 5 12 4 20 -3 16 -13 30 -6 19 10 -7
12 -52 15 -58 4z m38 -53 c3 -5 -1 -10 -9 -10 -8 0 -18 5 -21 10 -3 6 1 10 9
10 8 0 18 -4 21 -10z"/>
<path d="M1006 195 c-20 -21 -20 -39 0 -59 20 -21 47 -20 67 2 35 39 -29 94
-67 57z m54 -26 c0 -24 -29 -37 -40 -18 -12 18 7 50 25 43 8 -4 15 -15 15 -25z"/>
<path d="M1099 188 c5 -13 5 -33 0 -45 -7 -19 -5 -23 11 -23 17 0 19 5 15 28
-6 26 -6 26 9 8 9 -11 16 -23 16 -28 0 -4 4 -8 9 -8 5 0 11 20 13 45 3 39 0
45 -16 45 -15 0 -16 -3 -7 -14 8 -9 8 -16 2 -20 -5 -4 -12 3 -16 14 -3 11 -15
20 -25 20 -16 0 -18 -4 -11 -22z"/>
<path d="M426 48 c-9 -29 -2 -44 23 -45 26 -2 26 -2 3 8 -17 6 -22 14 -17 29
3 11 4 20 0 20 -3 0 -7 -6 -9 -12z"/>
<path d="M520 56 c0 -3 5 -17 12 -31 8 -19 14 -22 20 -13 6 11 10 10 17 0 7
-11 9 -10 14 3 4 9 3 13 -3 10 -6 -3 -10 1 -10 9 0 8 -5 18 -12 22 -8 5 -9 2
-5 -9 3 -9 2 -19 -3 -22 -6 -4 -10 1 -10 9 0 8 -4 18 -10 21 -5 3 -10 4 -10 1z"/>
<path d="M585 50 c-3 -5 0 -7 8 -4 10 3 18 -4 25 -23 8 -22 11 -24 11 -7 1 11
7 26 14 34 10 12 9 12 -5 2 -11 -9 -18 -10 -23 -2 -8 13 -22 13 -30 0z"/>
<path d="M661 43 c-1 -26 24 -31 33 -7 10 25 6 31 -6 9 -11 -19 -11 -19 -19 0
-7 19 -8 18 -8 -2z"/>
<path d="M722 30 c0 -19 2 -27 5 -17 2 9 2 25 0 35 -3 9 -5 1 -5 -18z"/>
<path d="M747 39 c-4 -13 -1 -28 5 -34 8 -7 9 -6 3 4 -4 7 -3 16 3 20 6 4 7
12 3 20 -6 9 -10 6 -14 -10z"/>
<path d="M484 41 c4 -5 3 -11 -1 -14 -5 -2 -2 -2 5 -1 6 2 12 -3 12 -11 0 -8
4 -15 10 -15 6 0 5 10 -2 25 -6 14 -15 25 -20 25 -5 0 -7 -4 -4 -9z"/>
<path d="M190 21 c0 -9 166 -9 175 0 3 4 -35 7 -85 7 -49 1 -90 -2 -90 -7z"/>
<path d="M824 23 c10 -10 166 -11 172 -1 3 4 -36 8 -87 8 -51 0 -89 -3 -85 -7z"/>
</g>
</svg>
