<?xml version="1.0" standalone="no"?>
  <!DOCTYPE svg PUBLIC "-//W3C//DTD SVG 1.1//EN" "http://www.w3.org/Graphics/SVG/1.1/DTD/svg11.dtd" >
  <svg>
  <metadata>
  Created by font-carrier
  </metadata>
  <defs>
  <font id="Complex" horiz-adv-x="2613" vert-adv-y="2613" >
    <font-face
      
      font-family="Complex"
      
      font-weight="400"
      
      font-stretch="normal"
      
      units-per-em="2048"
      
      ascent="1538"
      
      descent="-502"
      
    />
      <missing-glyph />

      

      
      <glyph glyph-name="uni2d" unicode="&#x2d;" d="M1522 645L231 645L231 678L1522 678L1522 645Z"  horiz-adv-x="1825" vert-adv-y="2048"  />

      
      <glyph glyph-name="uni2010" unicode="&#x2010;" d="M1522 645L231 645L231 678L1522 678L1522 645Z"  horiz-adv-x="1825" vert-adv-y="2048"  />

      
      <glyph glyph-name="uni221E" unicode="&#x221E;" d="M1251 729L1176 578L1024 502L799 502L690 610L674 578L522 502L297 502L143 655L143 809L219 961L371 1036L596 1036L705 928L721 961L872 1036L1098 1036L1251 883L1251 729M1147 737L1147 872L1081 1004L883 1004L819 938L750 801L750 666L815 535L1014 535Q1027 546 1042.50 562.50Q1058 579 1077 600L1147 737M645 737L645 872L580 1004L381 1004L317 938L248 801L248 666L313 535L512 535Q525 546 540.50 562.50Q556 579 575 600L645 737Z"  horiz-adv-x="1538" vert-adv-y="2048"  />

      
      <glyph glyph-name="uni2264" unicode="&#x2264;" d="M1458 246L1442 217L123 877L1442 1536L1458 1507L197 877L1458 246M1450 72L160 72L160 104L1450 104L1450 72Z"  horiz-adv-x="1896" vert-adv-y="2048"  />

      
      <glyph glyph-name="unib5" unicode="&#xb5;" d="M1593 0L1290 0L1290 193L1171 74L950 0L803 0L578 74L502 227L502 319L389-351L168-499L147-472L289-333L502 1004L303 1004L303 1036L606 1036L606 236L674 100L809 33L946 33Q962 38 1013.50 55.50Q1065 73 1155 102L1290 238L1290 1004L1092 1004L1092 1036L1395 1036L1395 33L1593 33L1593 0Z"  horiz-adv-x="1753" vert-adv-y="2048"  />

      
      <glyph glyph-name="uni03BC" unicode="&#x03BC;" d="M1593 0L1290 0L1290 193L1171 74L950 0L803 0L578 74L502 227L502 319L389-351L168-499L147-472L289-333L502 1004L303 1004L303 1036L606 1036L606 236L674 100L809 33L946 33Q962 38 1013.50 55.50Q1065 73 1155 102L1290 238L1290 1004L1092 1004L1092 1036L1395 1036L1395 33L1593 33L1593 0Z"  horiz-adv-x="1753" vert-adv-y="2048"  />

      
      <glyph glyph-name="uni2202" unicode="&#x2202;" d="M1180 803L1108 442L1034 223L885 74L664 0L514 0L365 74L289 150L215 299L215 520L289 741L436 963L659 1036L809 1036L958 963L1034 885L1069 778L1075 807L1075 1161L1006 1370L870 1505L666 1505L528 1436L463 1372L463 1323L502 1323L502 1378L535 1378L535 1290L430 1290L430 1384L508 1464L657 1538L881 1538L1030 1464L1106 1386L1180 1165L1180 803M1057 715L1006 868L938 934L801 1004L666 1004L528 936L389 725L319 516L319 236L387 100L522 33L657 33L795 102L934 240L1004 451L1057 715Z"  horiz-adv-x="1395" vert-adv-y="2048"  />

      
      <glyph glyph-name="uni03C0" unicode="&#x03C0;" d="M1450 932L1110 932L1180 18L1147 12L1075 12L1075 932L676 932L463 12L391 12L358 20L639 932L520 932L309 862L76 745L295 963L516 1036L1450 1036L1450 932Z"  horiz-adv-x="1610" vert-adv-y="2048"  />

      
      <glyph glyph-name="uni21" unicode="&#x21;" d="M319 1382L248 516L215 516L143 1382L231 1559L319 1382M326 88L231-5L137 88L231 182L326 88Z"  horiz-adv-x="821" vert-adv-y="2048"  />

      
      <glyph glyph-name="uni22" unicode="&#x22;" d="M750 1589Q736 1559 717.50 1522Q699 1485 676 1440L602 1366L578 1391L647 1460L717 1597L717 1698L662 1642L567 1737L662 1831L750 1743L750 1589M319 1589Q305 1559 287 1522Q269 1485 246 1440L172 1366L147 1391L217 1460L287 1597L287 1698L231 1642L137 1737L231 1831L319 1743L319 1589Z"  horiz-adv-x="1108" vert-adv-y="2048"  />

      
      <glyph glyph-name="uni23" unicode="&#x23;" d="M1235 717L979 717L879 319L1163 319L1163 287L870 287L678-488L645-480L838 287L440 287L248-488L215-480L408 287L160 287L160 319L416 319L516 717L231 717L231 750L524 750L717 1526L750 1518L557 750L954 750L1147 1526L1180 1518L987 750L1235 750L1235 717M946 717L549 717L449 319L846 319L946 717Z"  horiz-adv-x="1538" vert-adv-y="2048"  />

      
      <glyph glyph-name="uni24" unicode="&#x24;" d="M1251 225L1100 74L893 4L893-269L860-269L860 0L606 0L606-269L573-269L573 4L367 74L215 225L215 309L303 397L397 303L315 219L291 244L352 303L303 352L248 297L248 238L383 102L573 39L573 842Q538 849 463 886L365 934L289 1010Q288 1012 270 1047.50Q252 1083 217 1153L215 1157L215 1313L367 1464L573 1534L573 1808L606 1808L606 1538L860 1538L860 1808L893 1808L893 1534L1100 1464L1251 1313L1251 1229L1163 1141L1069 1235L1151 1319L1176 1294L1114 1235L1163 1186L1219 1241L1219 1300L1083 1436L893 1499L893 840Q1014 809 1102 748L1178 672L1251 524L1251 225M860 852L860 1505L606 1505L606 936L860 852M573 946L573 1499L383 1436L248 1300L248 1169Q276 1140 310 1106Q344 1072 385 1034Q407 1018 477 985Q547 952 573 946M1219 238L1219 512Q1163 569 1081 647Q1059 663 989 696Q915 730 893 735L893 39L1083 102L1219 238M860 33L860 745L606 829L606 33L860 33Z"  horiz-adv-x="1466" vert-adv-y="2048"  />

      
      <glyph glyph-name="uni25" unicode="&#x25;" d="M1587 1573L244 6L219 27L1456 1470Q1446 1465 1428 1456Q1410 1447 1384 1436Q1191 1362 1165 1362L946 1362L727 1436L674 1462L750 1384L750 1231L674 1079L522 1004L369 1004L215 1157L215 1311L291 1462L442 1538L563 1538L553 1559L594 1538L596 1538L600 1536Q623 1522 658 1504Q693 1486 739 1464L950 1395L1161 1395Q1167 1397 1184.50 1402.50Q1202 1408 1231 1418L1372 1464L1444 1500L1587 1573M1538 227L1462 76L1311 0L1157 0L1004 154L1004 307L1079 459L1231 535L1384 535L1538 381L1538 227M645 1239L645 1374L580 1505L453 1505L389 1440Q376 1415 359 1381Q342 1347 319 1303L319 1167L385 1036L512 1036Q537 1058 575 1102L645 1239M1434 236L1434 371L1368 502L1241 502Q1215 479 1178 436L1108 299L1108 164L1174 33L1300 33L1364 98L1434 236Z"  horiz-adv-x="1753" vert-adv-y="2048"  />

      
      <glyph glyph-name="uni26" unicode="&#x26;" d="M1538 82L1456 0L1376 0Q1360 5 1305 23.50Q1250 42 1155 74Q1117 109 1074.50 154Q1032 199 983 254Q979 247 974 239Q969 231 961 221Q930 189 894 152.50Q858 116 815 74L666 0L444 0L219 74L143 227L143 451L219 600L575 838Q558 862 540.50 887.50Q523 913 504 940Q503 942 493.50 969.50Q484 997 467 1051L430 1161L430 1311L506 1462L662 1540L817 1462L893 1311L893 1159L819 1010Q789 981 752.50 944.50Q716 908 672 864L659 854L1016 362Q1059 420 1104 508Q1149 596 1197 716L1292 956L1372 1036L1456 1036L1538 954L1538 870L1450 782L1356 877L1438 961L1462 936L1401 877L1450 827L1505 883L1505 942L1444 1004L1384 1004L1321 940L1226 703Q1201 640 1180.50 593Q1160 546 1144 512Q1094 407 1036 334L1104 242L1211 138Q1219 129 1232.50 116Q1246 103 1264 86L1380 33L1444 33L1505 94L1505 160L1538 160L1538 82M860 1167L860 1303L793 1438L662 1503L530 1438L463 1303L463 1167Q474 1143 491 1108.50Q508 1074 532 1028Q550 1003 577 966.50Q604 930 639 881Q641 883 644 885Q647 887 651 889Q681 918 716 953Q751 988 791 1030L860 1167M963 283L594 811Q568 795 533.50 772.50Q499 750 457 721L364 627Q348 614 317 580L248 442L248 236L315 100L451 33L657 33L795 102Q824 130 859 165Q894 200 936 242Q942 252 948.50 262Q955 272 963 283Z"  horiz-adv-x="1681" vert-adv-y="2048"  />

      
      <glyph glyph-name="uni27" unicode="&#x27;" d="M319 1589Q305 1559 287 1522Q269 1485 246 1440L172 1366L147 1391L217 1460L287 1597L287 1698L231 1642L137 1737L231 1831L319 1743L319 1589Z"  horiz-adv-x="678" vert-adv-y="2048"  />

      
      <glyph glyph-name="uni28" unicode="&#x28;" d="M817-472L793-497L649-351L504-134L407 58Q398 72 386 96Q374 120 358 154L287 516L287 807Q289 817 295 847Q301 877 311 928L358 1169Q362 1177 374.50 1201Q387 1225 407 1265L504 1458L601 1603Q613 1622 649 1675L793 1823L817 1798L676 1655Q672 1647 660 1623.50Q648 1600 628 1561L532 1372L463 1159L391 803L391 520L463 164L509 22Q511 11 517-6.50Q523-24 532-48L628-237Q639-265 676-331L817-472Z"  horiz-adv-x="1036" vert-adv-y="2048"  />

      
      <glyph glyph-name="uni29" unicode="&#x29;" d="M750 516L678 154Q671 141 659 117Q647 93 629 58L532-134L435-279Q423-299 387-351L244-497L219-472L360-331Q364-323 376-299.50Q388-276 408-237L504-48L573 164L645 520L645 803L573 1159L527 1301Q523 1322 504 1372L408 1561Q402 1574 390 1597.50Q378 1621 360 1655L219 1798L244 1823L387 1675Q400 1655 435 1603L532 1458L629 1265Q638 1251 650 1227Q662 1203 678 1169L750 807L750 516Z"  horiz-adv-x="1036" vert-adv-y="2048"  />

      
      <glyph glyph-name="uni2a" unicode="&#x2a;" d="M965 860L870 860L614 1053L680 727L590 639L500 727L565 1053L309 860L215 860L215 958L545 1092L215 1225L215 1323L309 1323L565 1130L500 1456L590 1544L680 1456L614 1130L870 1323L965 1323L965 1225L635 1092L965 958L965 860Z"  horiz-adv-x="1180" vert-adv-y="2048"  />

      
      <glyph glyph-name="uni2b" unicode="&#x2b;" d="M1522 645L893 645L893 16L860 16L860 645L231 645L231 678L860 678L860 1307L893 1307L893 678L1522 678L1522 645Z"  horiz-adv-x="1825" vert-adv-y="2048"  />

      
      <glyph glyph-name="uni2c" unicode="&#x2c;" d="M319-58Q305-89 287-126Q269-163 246-208L172-282L147-257L217-187L287-50L287 49L231-5L137 88L231 182L319 94L319-58Z"  horiz-adv-x="678" vert-adv-y="2048"  />

      
      <glyph glyph-name="uni2e" unicode="&#x2e;" d="M326 88L231-5L137 88L231 182L326 88Z"  horiz-adv-x="821" vert-adv-y="2048"  />

      
      <glyph glyph-name="uni2f" unicode="&#x2f;" d="M1464 1800L174-493L145-476L1436 1817L1464 1800Z"  horiz-adv-x="1610" vert-adv-y="2048"  />

      
      <glyph glyph-name="uni30" unicode="&#x30;" d="M1251 659L1180 297L1030 74L807 0L659 0Q607 17 551.50 35.50Q496 54 436 74L287 297L215 659L215 879L287 1241L436 1464L659 1538L807 1538Q859 1521 914.50 1502.50Q970 1484 1030 1464L1180 1241L1251 879L1251 659M1147 664L1147 874L1099 1111Q1096 1127 1090 1156.50Q1084 1186 1075 1229L1006 1368L938 1436L801 1505L666 1505Q612 1479 528 1436L461 1368L414 1275Q409 1268 403.50 1257Q398 1246 391 1229L319 874L319 664L367 427Q370 411 376 381.50Q382 352 391 309Q393 305 398.50 293.50Q404 282 414 263L461 170L528 102L666 33L801 33Q827 45 861.50 62Q896 79 938 102L1006 170L1052 263Q1057 270 1062.50 281Q1068 292 1075 309Q1078 325 1084 354.50Q1090 384 1099 427L1147 664Z"  horiz-adv-x="1466" vert-adv-y="2048"  />

      
      <glyph glyph-name="uni31" unicode="&#x31;" d="M877 0L231 0L231 33L502 33L502 1411Q478 1385 449 1355.50Q420 1326 385 1292L240 1221L223 1249L365 1321Q376 1332 396 1352Q416 1372 445 1401L606 1561L606 33L877 33L877 0Z"  horiz-adv-x="1108" vert-adv-y="2048"  />

      
      <glyph glyph-name="uni32" unicode="&#x32;" d="M1294 315L1217 157Q1212 146 1202 126.50Q1192 107 1178 78L1098 0L801 0L442 215L309 215L248 154L248 16L215 16L215 233L289 455Q320 488 356.50 525Q393 562 436 604L584 676L868 819L1079 958L1147 1096L1147 1231Q1134 1257 1117 1291.50Q1100 1326 1077 1368L1010 1436L872 1505L592 1505L383 1436Q367 1420 350.50 1403Q334 1386 317 1368L248 1231L248 1169L303 1114L352 1163L291 1223L315 1247L397 1163L303 1069L215 1157L215 1239Q229 1270 247.50 1307Q266 1344 289 1389Q325 1423 367 1464L588 1538L879 1538L1100 1464L1178 1389L1251 1239L1251 1087L1176 938L1029 840Q1018 832 1000 819.50Q982 807 956 791Q936 783 836 743Q756 715 550 623L457 575L317 438L248 229L248 199L297 248L451 248L809 104L1016 104Q1048 120 1082.50 137.50Q1117 155 1153 174L1294 315Z"  horiz-adv-x="1466" vert-adv-y="2048"  />

      
      <glyph glyph-name="uni33" unicode="&#x33;" d="M1251 299Q1223 238 1178 150L1100 74L879 0L588 0L367 74L289 150L215 299L215 381L303 469L397 375L315 291L291 315L352 375L303 424L248 369L248 307Q260 281 277 246.50Q294 212 317 170L383 102L592 33L872 33L1079 170L1147 307L1147 516L1077 725L1010 791L872 860L662 860L662 893L872 893L1008 961L1075 1096L1075 1303L1008 1438L872 1505L592 1505L383 1436Q367 1420 350.50 1403Q334 1386 317 1368L248 1231L248 1169L303 1114L352 1163L291 1223L315 1247L397 1163L303 1069L215 1157L215 1239Q229 1270 247.50 1307Q266 1344 289 1389Q325 1423 367 1464L588 1538L879 1538L1104 1464L1180 1311L1180 1087L1104 934L920 874L1030 819Q1034 816 1178 672L1251 522L1251 299Z"  horiz-adv-x="1466" vert-adv-y="2048"  />

      
      <glyph glyph-name="uni34" unicode="&#x34;" d="M1307 430L965 430L965 0L860 0L860 430L127 430L965 1571L965 463L1307 463L1307 430M860 463L860 1374L193 463L860 463Z"  horiz-adv-x="1538" vert-adv-y="2048"  />

      
      <glyph glyph-name="uni35" unicode="&#x35;" d="M1251 444L1178 223L1028 74L807 0L588 0L367 74L289 150L215 299L215 381L303 469L397 375L315 291L291 315L352 375L303 424L248 369L248 307Q260 281 277 246.50Q294 212 317 170L383 102L592 33L801 33Q833 49 867.50 66Q902 83 938 102Q966 130 1000.50 164Q1035 198 1077 240Q1093 284 1110.50 336Q1128 388 1147 449L1147 588L1077 797Q1049 826 1014.50 860.50Q980 895 938 934L801 1004L592 1004L383 934L205 756L360 1538L1092 1538L1096 1505L735 1434L375 1434L258 854L367 963L588 1036L807 1036L1028 963L1178 813L1227 666Q1234 648 1251 592L1251 444Z"  horiz-adv-x="1466" vert-adv-y="2048"  />

      
      <glyph glyph-name="uni36" unicode="&#x36;" d="M1251 444L1178 223L1028 74L807 0L659 0Q643 5 588 23.50Q533 42 438 74L289 223L215 444L215 879L287 1169L336 1268Q340 1284 360 1317L510 1464L731 1538L952 1538L1104 1462L1180 1311L1180 1229L1092 1141L997 1235L1079 1319L1104 1294L1042 1235L1092 1186L1147 1241L1147 1303L1079 1438L944 1505L737 1505L600 1436Q598 1434 593 1429Q588 1424 581.50 1417Q575 1410 567.50 1402.50Q560 1395 554 1389L461 1296Q429 1234 412 1199.50Q395 1165 391 1157L319 874L319 618L360 741L510 891L657 940Q667 944 685.50 950Q704 956 731 965L807 965L1028 891L1178 741L1227 594Q1234 576 1251 520L1251 444M1147 516L1077 725Q1049 754 1014.50 788.50Q980 823 938 862L801 932L735 932L526 862L389 725Q375 687 357.50 635Q340 583 319 516L319 449Q336 400 353 348.50Q370 297 389 240Q418 210 452 175.50Q486 141 528 102Q589 70 666 33L801 33Q833 49 867.50 66Q902 83 938 102Q966 130 1000.50 164Q1035 198 1077 240Q1091 278 1108.50 330Q1126 382 1147 449L1147 516Z"  horiz-adv-x="1466" vert-adv-y="2048"  />

      
      <glyph glyph-name="uni37" unicode="&#x37;" d="M1180 1305L1104 1081L914 844Q901 828 877.50 798.50Q854 769 819 725Q785 659 767.50 624Q750 589 748 584Q746 578 740.50 560.50Q735 543 725 514L678 373L678 0L573 0L573 379L719 741L1077 1100Q1093 1145 1110.50 1196.50Q1128 1248 1147 1309L1147 1452Q1137 1432 1127 1411Q1117 1390 1106 1368Q1091 1354 1071 1334.50Q1051 1315 1026 1290L872 1290L868 1292L514 1434L379 1434L244 1366L176 1231L176 1092L143 1092L143 1522L176 1522L176 1305L217 1389L369 1538L522 1538L881 1323L1014 1323L1077 1389Q1081 1398 1111 1456L1180 1591L1180 1305Z"  horiz-adv-x="1466" vert-adv-y="2048"  />

      
      <glyph glyph-name="uni38" unicode="&#x38;" d="M1251 299Q1223 238 1178 150L1100 74L879 0L588 0L367 74L289 150L215 299L215 594Q229 625 247.50 661.50Q266 698 289 743L367 819L539 877L362 934L287 1087L287 1311L362 1464L588 1538L879 1538L1104 1464L1180 1311L1180 1087L1104 934L928 877L1100 819L1178 743Q1207 683 1251 594L1251 299M1075 1096L1075 1303L1008 1438L872 1505L594 1505L459 1438L391 1303L391 1096L459 961L594 893L872 893L1008 961L1075 1096M1147 307L1147 586Q1134 612 1117 646.50Q1100 681 1077 723L1010 791L872 860L594 860L457 791L389 723L319 586L319 307Q332 281 349 246.50Q366 212 389 170L457 102L594 33L872 33L1010 102L1077 170Q1090 195 1107.50 229Q1125 263 1147 307Z"  horiz-adv-x="1466" vert-adv-y="2048"  />

      
      <glyph glyph-name="uni39" unicode="&#x39;" d="M1251 659Q1249 651 1243 627Q1237 603 1227 562L1180 369L1131 270Q1125 253 1106 221L956 74L735 0L514 0L362 76L287 227L287 309L375 397L469 303L387 219L362 244L424 303L375 352L319 297L319 236L387 100L522 33L729 33Q761 49 795.50 66Q830 83 866 102L1006 242L1075 381L1147 664L1147 920L1106 797L956 647L809 598Q799 594 780.50 588Q762 582 735 573L659 573L438 647L289 797L240 944Q236 954 230 972.50Q224 991 215 1018L215 1094Q220 1110 238.50 1165Q257 1220 289 1315L438 1464L659 1538L807 1538L1028 1464L1178 1315L1251 1094L1251 659M1147 1090Q1130 1139 1113 1190.50Q1096 1242 1077 1298Q1048 1327 1014 1361.50Q980 1396 938 1436L801 1505L666 1505Q601 1473 528 1436Q500 1408 465.50 1374Q431 1340 389 1298Q375 1260 357.50 1208.50Q340 1157 319 1090L319 1022Q336 973 353 921.50Q370 870 389 813Q418 784 452 749.50Q486 715 528 676L666 606L731 606Q780 623 831.50 640Q883 657 940 676L1077 813Q1091 851 1108.50 903Q1126 955 1147 1022L1147 1090Z"  horiz-adv-x="1466" vert-adv-y="2048"  />

      
      <glyph glyph-name="uni3a" unicode="&#x3a;" d="M326 948L231 854L137 948L231 1042L326 948M326 88L231-5L137 88L231 182L326 88Z"  horiz-adv-x="1108" vert-adv-y="2048"  />

      
      <glyph glyph-name="uni3b" unicode="&#x3b;" d="M326 948L231 854L137 948L231 1042L326 948M319-58Q305-89 287-126Q269-163 246-208L172-282L147-257L217-187L287-50L287 49L231-5L137 88L231 182L319 94L319-58Z"  horiz-adv-x="1036" vert-adv-y="2048"  />

      
      <glyph glyph-name="uni3c" unicode="&#x3c;" d="M1315 31L1298 2L127 662L1298 1321L1315 1292L193 662L1315 31Z"  horiz-adv-x="1466" vert-adv-y="2048"  />

      
      <glyph glyph-name="uni3d" unicode="&#x3d;" d="M1593 860L303 860L303 893L1593 893L1593 860M1593 430L303 430L303 463L1593 463L1593 430Z"  horiz-adv-x="1896" vert-adv-y="2048"  />

      
      <glyph glyph-name="uni3e" unicode="&#x3e;" d="M1339 662L168 2L152 31L1274 662L152 1292L168 1321L1339 662Z"  horiz-adv-x="1466" vert-adv-y="2048"  />

      
      <glyph glyph-name="uni3f" unicode="&#x3f;" d="M1036 1087Q1009 1026 963 938Q946 920 926.50 901Q907 882 887 862Q879 858 855.50 847Q832 836 793 816L606 723L606 518L573 518L573 743L723 819Q771 867 805.50 901Q840 935 862 958L932 1096L932 1231Q919 1257 902 1291.50Q885 1326 862 1368L795 1436L657 1505L451 1505L313 1436L246 1368Q233 1343 215.50 1309Q198 1275 176 1231L176 1169L231 1114L281 1163L219 1223L244 1247L326 1163L231 1069L143 1157L143 1239L217 1389L293 1464Q322 1478 359 1496.50Q396 1515 442 1538L664 1538L885 1464L963 1389L1036 1239L1036 1087M684 88L590-5L496 88L590 182L684 88Z"  horiz-adv-x="1395" vert-adv-y="2048"  />

      
      <glyph glyph-name="uni40" unicode="&#x40;" d="M1681 731L1608 510L1456 358L1372 358L1368 360Q1347 371 1311.50 388.50Q1276 406 1225 432L1163 496L1102 432L952 358L729 358Q698 372 661.50 390.50Q625 409 580 432L502 512L502 594L578 745L727 821Q737 823 766.50 828.50Q796 834 846 844L1083 891L1147 954L1147 1014Q1124 1039 1081 1077L944 1147L809 1147Q783 1135 749 1117.50Q715 1100 672 1077L606 1014L606 965L645 965L645 1020L678 1020L678 932L573 932L573 1026L651 1106Q680 1120 717.50 1138.50Q755 1157 801 1180L952 1180Q983 1166 1020 1147.50Q1057 1129 1102 1106L1178 1030L1251 881L1251 524L1384 391L1444 391L1507 455L1577 664L1577 946Q1575 952 1569.50 969.50Q1564 987 1554 1016L1507 1155Q1501 1165 1489.50 1182Q1478 1199 1461 1225L1368 1366Q1342 1380 1307.50 1398Q1273 1416 1229 1436Q1225 1438 1197.50 1447Q1170 1456 1119 1473L1018 1505L807 1505Q618 1447 596 1436L457 1366L364 1225Q356 1215 344.50 1197.50Q333 1180 317 1155L248 946L248 592Q250 586 255.50 568.50Q261 551 271 522L317 383Q321 377 332.50 359.50Q344 342 364 313L457 172Q483 158 517.50 140Q552 122 596 102Q602 99 707 65L807 33L1018 33Q1024 35 1041.50 40.50Q1059 46 1088 56L1229 102L1322 150Q1328 153 1339.50 159Q1351 165 1368 174L1438 244L1462 219L1389 145Q1342 115 1241 74Q1231 70 1202 60Q1173 50 1124 33Q1026 0 1022 0L803 0L657 49Q647 52 628.50 58Q610 64 584 74Q582 75 545.50 92.50Q509 110 436 145L387 194L289 293L217 440Q215 446 209 464Q203 482 192 513L143 659L143 879L192 1025Q195 1035 201 1053.50Q207 1072 217 1098Q218 1102 289 1245L387 1344L436 1393L584 1464Q593 1467 611 1473Q629 1479 657 1489L803 1538L1022 1538L1168 1489Q1178 1486 1196.50 1480Q1215 1474 1241 1464Q1243 1463 1279.50 1445.50Q1316 1428 1389 1393L1536 1245L1608 1098Q1657 999 1681 879L1681 731M1147 524L1147 909L1100 862L741 791Q715 767 676 723L606 586L606 524L739 391L944 391Q970 403 1004 420.50Q1038 438 1081 461L1147 524Z"  horiz-adv-x="1896" vert-adv-y="2048"  />

      
      <glyph glyph-name="uni41" unicode="&#x41;" d="M1450 0L1020 0L1020 33L1212 33L1079 430L459 430L326 33L590 33L590 0L160 0L160 33L291 33L793 1538L817 1538L1319 33L1450 33L1450 0M1069 463L770 1362L469 463L1069 463Z"  horiz-adv-x="1538" vert-adv-y="2048"  />

      
      <glyph glyph-name="uni42" unicode="&#x42;" d="M1395 299Q1381 268 1362.50 231.50Q1344 195 1321 150L1243 74L1022 0L160 0L160 33L358 33L358 1505L160 1505L160 1538L1022 1538Q1038 1533 1093 1514.50Q1148 1496 1243 1464L1321 1389Q1335 1360 1353.50 1322.50Q1372 1285 1395 1239L1395 1087Q1381 1056 1362.50 1019.50Q1344 983 1321 938L1243 862L1071 805L1243 748L1321 672Q1335 643 1353.50 605.50Q1372 568 1395 522L1395 299M1290 1096L1290 1231L1221 1368L1153 1436L1016 1505L463 1505L463 821L1016 821Q1042 834 1076.50 851Q1111 868 1153 891L1221 958L1290 1096M1290 307L1290 514L1221 651L1153 719L1016 788L463 788L463 33L1016 33L1153 102L1221 170L1290 307Z"  horiz-adv-x="1610" vert-adv-y="2048"  />

      
      <glyph glyph-name="uni43" unicode="&#x43;" d="M1251 991L1149 1298L1012 1436L803 1505L666 1505Q600 1473 528 1436L389 1296L317 1157Q315 1151 309.50 1133.50Q304 1116 294 1087L248 946L248 592L294 451Q297 441 303 424Q309 407 317 381Q318 378 389 242L528 102Q589 70 666 33L803 33Q819 38 870.50 55.50Q922 73 1012 102Q1071 159 1149 242L1221 383L1249 367L1178 221L1028 74L807 0L659 0Q643 5 588 23.50Q533 42 438 74L289 221Q287 225 281 237.50Q275 250 265 270L217 369L168 515Q166 520 162 529Q158 538 152 551Q143 570 143 588L143 950Q143 967 152 987Q159 1001 162.50 1010Q166 1019 168 1023L217 1169L265 1268Q270 1283 289 1317L438 1464L659 1538L807 1538L1028 1464L1157 1337L1251 1622L1251 991Z"  horiz-adv-x="1538" vert-adv-y="2048"  />

      
      <glyph glyph-name="uni44" unicode="&#x44;" d="M1395 588Q1395 570 1386 551Q1379 537 1375.50 528Q1372 519 1370 515L1321 369L1273 270Q1268 255 1249 221L1100 74L879 0L160 0L160 33L358 33L358 1505L160 1505L160 1538L879 1538L1100 1464L1249 1317Q1252 1310 1258 1298Q1264 1286 1273 1268L1321 1169L1370 1023Q1372 1018 1376 1009Q1380 1000 1386 987Q1395 967 1395 950L1395 588M1290 592L1290 946L1244 1087Q1241 1097 1235 1114Q1229 1131 1221 1157Q1220 1160 1149 1296L1010 1436Q948 1467 872 1505L463 1505L463 33L872 33Q938 64 1010 102L1149 242L1221 381Q1225 392 1230.50 410Q1236 428 1244 451L1290 592Z"  horiz-adv-x="1610" vert-adv-y="2048"  />

      
      <glyph glyph-name="uni45" unicode="&#x45;" d="M1323 0L160 0L160 33L358 33L358 1505L160 1505L160 1538L1323 1538L1323 1092L1290 1090L1221 1505L463 1505L463 821L860 821L860 1092L893 1092L893 518L860 518L860 788L463 788L463 33L1221 33L1290 449L1323 446L1323 0Z"  horiz-adv-x="1538" vert-adv-y="2048"  />

      
      <glyph glyph-name="uni46" unicode="&#x46;" d="M1323 1092L1290 1090L1221 1505L463 1505L463 821L860 821L860 1092L893 1092L893 518L860 518L860 788L463 788L463 33L662 33L662 0L160 0L160 33L358 33L358 1505L160 1505L160 1538L1323 1538L1323 1092Z"  horiz-adv-x="1466" vert-adv-y="2048"  />

      
      <glyph glyph-name="uni47" unicode="&#x47;" d="M1522 573L1323 573L1323 0L1219 0L1219 193L1100 74L879 0L731 0Q715 5 660 23.50Q605 42 510 74Q444 135 360 221Q358 225 352 237.50Q346 250 336 270L289 369Q284 381 249 482Q215 581 215 588L215 950Q215 956 249 1055Q266 1106 276 1134Q286 1162 289 1169L336 1268Q339 1275 345 1287Q351 1299 360 1317L510 1464L731 1538L879 1538L1100 1464L1229 1337L1323 1622L1323 991L1221 1298L1083 1436L874 1505L737 1505Q705 1489 670.50 1472Q636 1455 600 1436L461 1296L389 1157Q387 1151 381.50 1133.50Q376 1116 366 1087L319 946L319 592L366 451Q369 441 375 424Q381 407 389 381Q390 376 461 242Q503 199 537.50 164Q572 129 600 102Q631 86 665 69Q699 52 737 33L874 33L1083 102L1219 238L1219 573L1020 573L1020 606L1522 606L1522 573Z"  horiz-adv-x="1681" vert-adv-y="2048"  />

      
      <glyph glyph-name="uni48" unicode="&#x48;" d="M1593 0L1092 0L1092 33L1290 33L1290 788L463 788L463 33L662 33L662 0L160 0L160 33L358 33L358 1505L160 1505L160 1538L662 1538L662 1505L463 1505L463 821L1290 821L1290 1505L1092 1505L1092 1538L1593 1538L1593 1505L1395 1505L1395 33L1593 33L1593 0Z"  horiz-adv-x="1753" vert-adv-y="2048"  />

      
      <glyph glyph-name="uni49" unicode="&#x49;" d="M662 0L160 0L160 33L358 33L358 1505L160 1505L160 1538L662 1538L662 1505L463 1505L463 33L662 33L662 0Z"  horiz-adv-x="821" vert-adv-y="2048"  />

      
      <glyph glyph-name="uni4a" unicode="&#x4a;" d="M948 1505L750 1505L750 301Q733 248 714.50 192Q696 136 676 76L522 0L371 0L219 76L143 227L143 381L231 469L326 375L244 291L219 315L281 375L231 424L176 369L176 236L244 100L379 33L512 33L575 96L645 305L645 1505L446 1505L446 1538L948 1538L948 1505Z"  horiz-adv-x="1108" vert-adv-y="2048"  />

      
      <glyph glyph-name="uni4b" unicode="&#x4b;" d="M1522 0L1092 0L1092 33L1276 33L731 850L463 584L463 33L662 33L662 0L160 0L160 33L358 33L358 1505L160 1505L160 1538L662 1538L662 1505L463 1505L463 629L1339 1505L1092 1505L1092 1538L1522 1538L1522 1505L1384 1505L797 918L1386 33L1522 33L1522 0Z"  horiz-adv-x="1610" vert-adv-y="2048"  />

      
      <glyph glyph-name="uni4c" unicode="&#x4c;" d="M1251 0L160 0L160 33L358 33L358 1505L160 1505L160 1538L662 1538L662 1505L463 1505L463 33L1149 33L1219 449L1251 446L1251 0Z"  horiz-adv-x="1323" vert-adv-y="2048"  />

      
      <glyph glyph-name="uni4d" unicode="&#x4d;" d="M1665 0L1163 0L1163 33L1362 33L1362 1421L889 0L865 0L391 1421L391 33L590 33L590 0L160 0L160 33L358 33L358 1505L160 1505L160 1538L459 1538L913 178L1366 1538L1665 1538L1665 1505L1466 1505L1466 33L1665 33L1665 0Z"  horiz-adv-x="1825" vert-adv-y="2048"  />

      
      <glyph glyph-name="uni4e" unicode="&#x4e;" d="M1522 1505L1323 1505L1323 0L1297 0L463 1321L463 33L590 33L590 0L160 0L160 33L358 33L358 1505L160 1505L160 1538L455 1538L1290 217L1290 1505L1092 1505L1092 1538L1522 1538L1522 1505Z"  horiz-adv-x="1681" vert-adv-y="2048"  />

      
      <glyph glyph-name="uni4f" unicode="&#x4f;" d="M1395 659L1323 369L1274 270Q1268 253 1249 221L1100 74L881 0L729 0L727 2L510 74L360 221Q358 225 352 237.50Q346 250 336 270L287 369L215 659L215 879L287 1169L336 1268Q340 1284 360 1317L510 1464L729 1538L881 1538L883 1536L1100 1464L1249 1317Q1251 1313 1257 1300.50Q1263 1288 1274 1268L1323 1169L1395 879L1395 659M1290 664L1290 874Q1288 882 1282 905.50Q1276 929 1266 968L1219 1157Q1203 1189 1185.50 1224Q1168 1259 1149 1296L1056 1389Q1049 1397 1038 1408.50Q1027 1420 1010 1436L872 1505L737 1505L600 1436Q598 1434 593 1429Q588 1424 581.50 1417Q575 1410 567.50 1402.50Q560 1395 554 1389L461 1296Q429 1234 412 1199.50Q395 1165 391 1157L319 874L319 664L391 381Q405 353 422.50 318.50Q440 284 461 242L554 149Q561 141 572 129.50Q583 118 600 102L737 33L872 33L1010 102Q1011 103 1016.50 108.50Q1022 114 1028.50 121Q1035 128 1042.50 135.50Q1050 143 1056 149L1149 242L1219 381L1290 664Z"  horiz-adv-x="1610" vert-adv-y="2048"  />

      
      <glyph glyph-name="uni50" unicode="&#x50;" d="M1395 1016Q1381 985 1362.50 948Q1344 911 1321 866Q1285 831 1243 791L1022 717L463 717L463 33L662 33L662 0L160 0L160 33L358 33L358 1505L160 1505L160 1538L1022 1538Q1038 1533 1093 1514.50Q1148 1496 1243 1464L1321 1389Q1335 1360 1353.50 1322.50Q1372 1285 1395 1239L1395 1016M1290 1024L1290 1231L1221 1368L1153 1436L1016 1505L463 1505L463 750L1016 750L1153 819L1221 887L1290 1024Z"  horiz-adv-x="1610" vert-adv-y="2048"  />

      
      <glyph glyph-name="uni51" unicode="&#x51;" d="M1395-202L1317-357L1157-357L1075-278L1030 49L881 0L729 0L727 2L510 74L360 221Q358 225 352 237.50Q346 250 336 270L287 369L215 659L215 879L287 1169L336 1268Q340 1284 360 1317L510 1464L729 1538L881 1538L883 1536L1100 1464L1249 1317Q1251 1313 1257 1300.50Q1263 1288 1274 1268L1323 1169L1395 879L1395 659L1323 369L1274 270Q1268 253 1249 221L1100 74L1077 66Q1082 46 1089.50 17.50Q1097-11 1108-48Q1124-88 1141.50-123Q1159-158 1178-187L1241-253L1300-253L1362-192L1362-126L1395-126L1395-202M1290 664L1290 874Q1288 882 1282 905.50Q1276 929 1266 968L1219 1157Q1203 1189 1185.50 1224Q1168 1259 1149 1296L1056 1389Q1049 1397 1038 1408.50Q1027 1420 1010 1436L872 1505L737 1505L600 1436Q598 1434 593 1429Q588 1424 581.50 1417Q575 1410 567.50 1402.50Q560 1395 554 1389L461 1296Q429 1234 412 1199.50Q395 1165 391 1157L319 874L319 664L391 381L461 242L502 199L502 236L578 387L729 463L809 463L961 387Q975 362 993.50 324.50Q1012 287 1036 236L1057 150L1149 242Q1151 246 1156.50 257.50Q1162 269 1172 288L1219 381L1290 664M1020 113Q1016 140 1012.50 168.50Q1009 197 1004 227L936 362L801 430L737 430L602 362L535 227L535 166L600 102L737 33L872 33L1010 102L1020 113Z"  horiz-adv-x="1610" vert-adv-y="2048"  />

      
      <glyph glyph-name="uni52" unicode="&#x52;" d="M1466 156L1389 0L1229 0L1149 80L1006 584L936 721L801 788L463 788L463 33L662 33L662 0L160 0L160 33L358 33L358 1505L160 1505L160 1538L1022 1538Q1038 1533 1093 1514.50Q1148 1496 1243 1464L1321 1389Q1335 1360 1353.50 1322.50Q1372 1285 1395 1239L1395 1087Q1381 1056 1362.50 1019.50Q1344 983 1321 938L1243 862L1096 813Q1075 803 1022 788L874 788L958 748L1034 670L1130 429Q1153 369 1177 316.50Q1201 264 1225 216Q1229 208 1235 196.50Q1241 185 1249 170L1313 104L1372 104L1434 166L1434 231L1466 231L1466 156M1290 1096L1290 1231L1221 1368L1153 1436L1016 1505L463 1505L463 821L1016 821Q1042 834 1076.50 851Q1111 868 1153 891L1221 958L1290 1096Z"  horiz-adv-x="1610" vert-adv-y="2048"  />

      
      <glyph glyph-name="uni53" unicode="&#x53;" d="M1251 225L1100 74L879 0L659 0Q643 5 588 23.50Q533 42 438 74L309 201L215-83L215 547L317 240L455 102L664 33L874 33L1083 102L1219 238L1219 512Q1163 569 1081 647Q1075 650 1063.50 656Q1052 662 1035 671L942 719L655 814Q599 830 463 886L365 934L289 1010Q288 1012 270 1047.50Q252 1083 217 1153L215 1157L215 1313L367 1464L588 1538L807 1538L1028 1464L1157 1337L1251 1622L1251 991L1149 1298L1012 1436L803 1505L592 1505L383 1436L248 1300L248 1169Q276 1140 310 1106Q344 1072 385 1034Q389 1032 400.50 1026Q412 1020 431 1010L524 963L811 867Q865 850 1003 795L1102 748L1178 672L1251 524L1251 225Z"  horiz-adv-x="1466" vert-adv-y="2048"  />

      
      <glyph glyph-name="uni54" unicode="&#x54;" d="M1251 1092L1219 1090L1149 1505L750 1505L750 33L948 33L948 0L446 0L446 33L645 33L645 1505L246 1505L176 1090L143 1092L143 1538L1251 1538L1251 1092Z"  horiz-adv-x="1395" vert-adv-y="2048"  />

      
      <glyph glyph-name="uni55" unicode="&#x55;" d="M1593 1505L1395 1505L1395 444L1321 223L1171 74L950 0L803 0Q787 5 732 23.50Q677 42 582 74L432 223L358 444L358 1505L160 1505L160 1538L662 1538L662 1505L463 1505L463 449L532 240Q561 211 595.50 176.50Q630 142 672 102L809 33L946 33Q962 38 1013.50 55.50Q1065 73 1155 102L1292 240L1362 449L1362 1505L1163 1505L1163 1538L1593 1538L1593 1505Z"  horiz-adv-x="1753" vert-adv-y="2048"  />

      
      <glyph glyph-name="uni56" unicode="&#x56;" d="M1378 1505L1247 1505L745 0L721 0L219 1505L88 1505L88 1538L518 1538L518 1505L326 1505L770 180L1212 1505L948 1505L948 1538L1378 1538L1378 1505Z"  horiz-adv-x="1466" vert-adv-y="2048"  />

      
      <glyph glyph-name="uni57" unicode="&#x57;" d="M1665 1505L1464 1505L1177 0L1149 0L877 1434L604 0L576 0L289 1505L88 1505L88 1538L590 1538L590 1505L395 1505L625 287L862 1538L963 1538L1198 287L1430 1505L1235 1505L1235 1538L1665 1538L1665 1505Z"  horiz-adv-x="1753" vert-adv-y="2048"  />

      
      <glyph glyph-name="uni58" unicode="&#x58;" d="M1378 0L948 0L948 33L1135 33L715 711L262 33L518 33L518 0L88 0L88 33L223 33L694 741L223 1505L88 1505L88 1538L518 1538L518 1505L332 1505L752 827L1204 1505L948 1505L948 1538L1378 1538L1378 1505L1243 1505L772 797L1243 33L1378 33L1378 0Z"  horiz-adv-x="1466" vert-adv-y="2048"  />

      
      <glyph glyph-name="uni59" unicode="&#x59;" d="M1450 1505L1315 1505L821 729L821 33L1020 33L1020 0L518 0L518 33L717 33L717 729L223 1505L88 1505L88 1538L518 1538L518 1505L334 1505L805 764L1276 1505L1020 1505L1020 1538L1450 1538L1450 1505Z"  horiz-adv-x="1538" vert-adv-y="2048"  />

      
      <glyph glyph-name="uni5a" unicode="&#x5a;" d="M1264 1538L332 33L1149 33L1219 449L1251 446L1251 0L203 0L1135 1505L317 1505L248 1090L215 1092L215 1538L1264 1538Z"  horiz-adv-x="1466" vert-adv-y="2048"  />

      
      <glyph glyph-name="uni5b" unicode="&#x5b;" d="M805-501L287-501L287 1825L805 1825L805 1792L391 1792L391-468L805-468L805-501Z"  horiz-adv-x="1108" vert-adv-y="2048"  />

      
      <glyph glyph-name="uni5c" unicode="&#x5c;" d="M1464-476L1436-493L145 1800L174 1817L1464-476Z"  horiz-adv-x="1610" vert-adv-y="2048"  />

      
      <glyph glyph-name="uni5d" unicode="&#x5d;" d="M821-501L303-501L303-468L717-468L717 1792L303 1792L303 1825L821 1825L821-501Z"  horiz-adv-x="1108" vert-adv-y="2048"  />

      
      <glyph glyph-name="uni5e" unicode="&#x5e;" d="M1386 1464L1370 1436L805 1718L240 1436L223 1464L805 1827L1386 1464Z"  horiz-adv-x="1610" vert-adv-y="2048"  />

      
      <glyph glyph-name="uni5f" unicode="&#x5f;" d="M1593-142L160-142L160-110L1593-110L1593-142Z"  horiz-adv-x="1753" vert-adv-y="2048"  />

      
      <glyph glyph-name="uni60" unicode="&#x60;" d="M397 1737L303 1642L248 1698L248 1597Q261 1570 278 1536Q295 1502 317 1460L387 1391L362 1366L289 1440L215 1589L215 1743L303 1831L397 1737Z"  horiz-adv-x="678" vert-adv-y="2048"  />

      
      <glyph glyph-name="uni61" unicode="&#x61;" d="M1307 0L1229 0Q1218 6 1180.50 25Q1143 44 1079 76L1016 203Q963 147 887 74L737 0L516 0Q463 17 407 35.50Q351 54 291 74L215 227L215 379L291 532L514 606L940 676L1004 739L1004 870Q993 883 976.50 899Q960 915 938 934Q913 947 879 964Q845 981 801 1004L522 1004Q470 980 385 934L319 870L319 821L358 821L358 877L391 877L391 788L287 788L287 883L365 963Q394 977 431 995.50Q468 1014 514 1036L809 1036L958 963L1034 887Q1048 858 1066.50 820.50Q1085 783 1108 737L1108 236Q1120 210 1137.50 175.50Q1155 141 1178 98L1241 33L1307 33L1307 0M1004 238L1004 694L956 647L668 598Q648 595 612.50 589Q577 583 524 573L387 506L319 371L319 236L387 100L522 33L729 33Q761 49 795 66Q829 83 866 102L1004 238Z"  horiz-adv-x="1466" vert-adv-y="2048"  />

      
      <glyph glyph-name="uni62" unicode="&#x62;" d="M1323 444L1249 223L1100 74L879 0L729 0Q697 15 660 33.50Q623 52 580 74L463 193L463 0L358 0L358 1505L160 1505L160 1538L463 1538L463 844Q487 870 516 899.50Q545 929 580 963L729 1036L879 1036L1100 963L1249 813L1298 666Q1308 645 1323 592L1323 444M1219 449L1219 588L1149 797Q1120 826 1086 860.50Q1052 895 1010 934L872 1004L737 1004Q679 977 600 934L463 799L463 238Q491 209 525 174.50Q559 140 600 102L737 33L872 33Q936 64 1010 102Q1038 130 1072.50 164Q1107 198 1149 240L1219 449Z"  horiz-adv-x="1538" vert-adv-y="2048"  />

      
      <glyph glyph-name="uni63" unicode="&#x63;" d="M1180 727L1092 639L997 733L1079 817L1104 793L1042 733L1092 684L1147 739L1147 799Q1119 828 1085 862Q1051 896 1010 934L872 1004L666 1004Q634 988 599.50 970.50Q565 953 528 934L389 797L319 588L319 449Q336 400 353 348.50Q370 297 389 240Q418 210 452 175.50Q486 141 528 102Q589 70 666 33L803 33Q819 38 870.50 55.50Q922 73 1012 102L1151 244L1176 219L1028 74L807 0L659 0Q643 5 588 23.50Q533 42 438 74L289 223L215 444L215 592Q220 608 238.50 663Q257 718 289 813L438 963L659 1036L881 1036L1030 963L1180 811L1180 727Z"  horiz-adv-x="1395" vert-adv-y="2048"  />

      
      <glyph glyph-name="uni64" unicode="&#x64;" d="M1378 0L1075 0L1075 193Q1051 167 1022 137.50Q993 108 958 74L809 0L659 0Q643 5 588 23.50Q533 42 438 74L289 223L240 370Q230 391 215 444L215 592Q220 608 238.50 663Q257 718 289 813L438 963L659 1036L809 1036Q879 1003 958 963Q982 939 1011 909Q1040 879 1075 844L1075 1505L877 1505L877 1538L1180 1538L1180 33L1378 33L1378 0M1075 238L1075 799Q1047 828 1013 862Q979 896 938 934L801 1004L666 1004Q634 988 599.50 970.50Q565 953 528 934L389 797L319 588L319 449Q336 400 353 348.50Q370 297 389 240Q418 210 452 175.50Q486 141 528 102Q589 70 666 33L801 33Q833 49 867.50 66Q902 83 938 102L1075 238Z"  horiz-adv-x="1538" vert-adv-y="2048"  />

      
      <glyph glyph-name="uni65" unicode="&#x65;" d="M1180 573L319 573L319 449Q336 400 353 348.50Q370 297 389 240Q418 210 452 175.50Q486 141 528 102Q589 70 666 33L803 33Q819 38 870.50 55.50Q922 73 1012 102L1151 244L1176 219L1028 74L807 0L659 0Q643 5 588 23.50Q533 42 438 74L289 223L215 444L215 592Q220 608 238.50 663Q257 718 289 813L438 963L659 1036L881 1036L1030 963L1106 887Q1120 858 1138.50 820.50Q1157 783 1180 737L1180 573M1075 606L1075 801L1008 936L872 1004L666 1004Q634 988 599.50 970.50Q565 953 528 934L389 797L326 606L1075 606Z"  horiz-adv-x="1395" vert-adv-y="2048"  />

      
      <glyph glyph-name="uni66" unicode="&#x66;" d="M821 1372L733 1284L639 1378L721 1462L745 1438L684 1378L733 1329L788 1384L788 1444L727 1505L596 1505L532 1440L463 1303L463 1036L733 1036L733 1004L463 1004L463 33L662 33L662 0L160 0L160 33L358 33L358 1004L160 1004L160 1036L358 1036L358 1311L434 1462L586 1538L739 1538L821 1456L821 1372Z"  horiz-adv-x="965" vert-adv-y="2048"  />

      
      <glyph glyph-name="uni67" unicode="&#x67;" d="M1180-273L1104-427L879-501L444-501L219-427L143-273L143-194L219-40L324-7L291 2L215 156L215 236Q228 265 246.50 302Q265 339 289 385Q304 400 320.50 416.50Q337 433 354 451L287 586L287 737L360 887L436 963L586 1036L737 1036L887 963L948 899L1010 963Q1042 979 1084 1000Q1126 1021 1180 1047L1180 932L1026 932L969 872L1036 737L1036 586Q1022 555 1004 518Q986 481 963 436L887 360L737 287L586 287L436 360L375 424L317 365L248 227L248 166L311 102L520 33L879 33L1104-40L1180-194L1180-273M932 522L932 801L864 936L729 1004L594 1004L459 936L391 801L391 522L459 387L594 319L729 319L864 387L932 522M1147-265L1147-204L1083-140L874-71L516-71L375-24L244-69L176-202L176-265L244-398L449-468L874-468L1079-398L1147-265Z"  horiz-adv-x="1395" vert-adv-y="2048"  />

      
      <glyph glyph-name="uni68" unicode="&#x68;" d="M1450 0L948 0L948 33L1147 33L1147 801L1079 936L944 1004L807 1004Q758 987 706.50 970Q655 953 598 934L463 799L463 33L662 33L662 0L160 0L160 33L358 33L358 1505L160 1505L160 1538L463 1538L463 844L582 963L803 1036L950 1036Q967 1031 1023 1013Q1079 995 1176 963L1251 809L1251 33L1450 33L1450 0Z"  horiz-adv-x="1610" vert-adv-y="2048"  />

      
      <glyph glyph-name="uni69" unicode="&#x69;" d="M469 1450L375 1356L281 1450L375 1544L469 1450M662 0L160 0L160 33L358 33L358 1004L160 1004L160 1036L463 1036L463 33L662 33L662 0Z"  horiz-adv-x="821" vert-adv-y="2048"  />

      
      <glyph glyph-name="uni6a" unicode="&#x6a;" d="M612 1450L518 1356L424 1450L518 1544L612 1450M606-273L530-425L379-501L225-501L143-419L143-335L231-247L326-341L244-425L219-400L281-341L231-292L176-347L176-407L238-468L369-468Q394-446 432-402L502-265L502 1004L303 1004L303 1036L606 1036L606-273Z"  horiz-adv-x="821" vert-adv-y="2048"  />

      
      <glyph glyph-name="uni6b" unicode="&#x6b;" d="M1378 0L948 0L948 33L1130 33L731 565L463 297L463 33L662 33L662 0L160 0L160 33L358 33L358 1505L160 1505L160 1538L463 1538L463 342L1124 1004L948 1004L948 1036L1378 1036L1378 1004L1169 1004L797 629L1243 33L1378 33L1378 0Z"  horiz-adv-x="1538" vert-adv-y="2048"  />

      
      <glyph glyph-name="uni6c" unicode="&#x6c;" d="M662 0L160 0L160 33L358 33L358 1505L160 1505L160 1538L463 1538L463 33L662 33L662 0Z"  horiz-adv-x="821" vert-adv-y="2048"  />

      
      <glyph glyph-name="uni6d" unicode="&#x6d;" d="M2238 0L1737 0L1737 33L1935 33L1935 801L1868 936L1733 1004L1595 1004L1386 934L1251 799L1251 33L1450 33L1450 0L948 0L948 33L1147 33L1147 801L1079 936L944 1004L807 1004Q758 987 706.50 970Q655 953 598 934L463 799L463 33L662 33L662 0L160 0L160 33L358 33L358 1004L160 1004L160 1036L463 1036L463 844L582 963L729 1012Q747 1019 803 1036L950 1036Q967 1031 1023 1013Q1079 995 1176 963L1239 834L1370 963L1517 1012Q1535 1019 1591 1036L1739 1036L1964 963L2040 809L2040 33L2238 33L2238 0Z"  horiz-adv-x="2398" vert-adv-y="2048"  />

      
      <glyph glyph-name="uni6e" unicode="&#x6e;" d="M1450 0L948 0L948 33L1147 33L1147 801L1079 936L944 1004L807 1004Q758 987 706.50 970Q655 953 598 934L463 799L463 33L662 33L662 0L160 0L160 33L358 33L358 1004L160 1004L160 1036L463 1036L463 844L582 963L803 1036L950 1036Q967 1031 1023 1013Q1079 995 1176 963L1251 809L1251 33L1450 33L1450 0Z"  horiz-adv-x="1610" vert-adv-y="2048"  />

      
      <glyph glyph-name="uni6f" unicode="&#x6f;" d="M1180 444L1106 223L956 74L735 0L588 0L367 74L217 223L143 444L143 592Q148 608 166.50 663Q185 718 217 813L367 963L588 1036L735 1036L956 963L1106 813L1180 592L1180 444M1075 449L1075 588Q1070 604 1052.50 655.50Q1035 707 1006 797Q978 826 943 860Q908 894 866 934L729 1004L594 1004Q536 977 457 934Q402 881 317 797L248 588L248 449L317 240Q346 211 380.50 176.50Q415 142 457 102L594 33L729 33Q761 49 795 66Q829 83 866 102L1006 240L1075 449Z"  horiz-adv-x="1395" vert-adv-y="2048"  />

      
      <glyph glyph-name="uni70" unicode="&#x70;" d="M1323 444L1249 223L1100 74L879 0L729 0Q697 15 660 33.50Q623 52 580 74L463 193L463-468L662-468L662-501L160-501L160-468L358-468L358 1004L160 1004L160 1036L463 1036L463 844Q487 870 516 899.50Q545 929 580 963L729 1036L879 1036L1100 963L1249 813L1298 666Q1308 645 1323 592L1323 444M1219 449L1219 588L1149 797Q1120 826 1086 860.50Q1052 895 1010 934L872 1004L737 1004Q679 977 600 934L463 799L463 238Q491 209 525 174.50Q559 140 600 102L737 33L872 33Q936 64 1010 102Q1038 130 1072.50 164Q1107 198 1149 240L1219 449Z"  horiz-adv-x="1538" vert-adv-y="2048"  />

      
      <glyph glyph-name="uni71" unicode="&#x71;" d="M1307-501L805-501L805-468L1004-468L1004 121L958 74L809 0L659 0Q643 5 588 23.50Q533 42 438 74L289 223L240 370Q230 391 215 444L215 592Q220 608 238.50 663Q257 718 289 813L438 963L659 1036L809 1036L958 963L1004 915L1004 1036L1108 1036L1108-468L1307-468L1307-501M1004 166L1004 870Q993 883 976.50 899Q960 915 938 934Q913 947 879 964Q845 981 801 1004L666 1004Q634 988 599.50 970.50Q565 953 528 934L389 797L319 588L319 449Q336 400 353 348.50Q370 297 389 240Q418 210 452 175.50Q486 141 528 102Q589 70 666 33L801 33Q827 45 861 62Q895 79 938 102L1004 166Z"  horiz-adv-x="1466" vert-adv-y="2048"  />

      
      <glyph glyph-name="uni72" unicode="&#x72;" d="M1108 870L1020 782L926 877L1008 961L1032 936L971 877L1020 827L1075 883L1075 942L1014 1004L809 1004Q751 977 672 934Q617 881 532 797L463 588L463 33L662 33L662 0L160 0L160 33L358 33L358 1004L160 1004L160 1036L463 1036L463 690L504 813Q565 879 651 963L801 1036L1026 1036L1108 954L1108 870Z"  horiz-adv-x="1251" vert-adv-y="2048"  />

      
      <glyph glyph-name="uni73" unicode="&#x73;" d="M1036 154L958 74Q929 60 892 41.50Q855 23 809 0L514 0Q486 13 449 31Q412 49 365 74L307 131L215-52L215 373L283 238Q292 219 317 170L385 102L522 33L801 33Q827 45 861 62Q895 79 938 102L1004 166L1004 297Q981 322 938 360Q934 362 922.50 368Q911 374 892 384L799 432L560 527Q501 550 447 574Q393 598 342 623Q329 628 316.50 634Q304 640 293 647L215 727L215 883L293 963Q322 977 359 995.50Q396 1014 442 1036L737 1036Q766 1023 803.50 1004.50Q841 986 887 963Q900 949 914 935Q928 921 944 905L1036 1090L1036 664L968 799Q963 808 955 824.50Q947 841 934 866Q910 891 893 907.50Q876 924 866 934L729 1004L451 1004Q425 992 390.50 974.50Q356 957 313 934Q299 920 282.50 903.50Q266 887 248 870L248 811Q259 798 275.50 782.50Q292 767 313 748Q317 746 328.50 740Q340 734 360 724L453 676L692 580Q819 529 909 485Q933 475 958 461Q976 443 995.50 423Q1015 403 1036 381L1036 154Z"  horiz-adv-x="1251" vert-adv-y="2048"  />

      
      <glyph glyph-name="uni74" unicode="&#x74;" d="M963 223L889 76L737 0L586 0L432 76L358 301L358 1004L160 1004L160 1036L358 1036L358 1538L463 1538L463 1036L733 1036L733 1004L463 1004L463 305L532 96L596 33L729 33L864 100L934 240L963 223Z"  horiz-adv-x="1108" vert-adv-y="2048"  />

      
      <glyph glyph-name="uni75" unicode="&#x75;" d="M1450 0L1147 0L1147 193L1028 74L807 0L659 0L434 74L358 227L358 1004L160 1004L160 1036L463 1036L463 236L530 100L666 33L803 33Q819 38 870.50 55.50Q922 73 1012 102L1147 238L1147 1004L948 1004L948 1036L1251 1036L1251 33L1450 33L1450 0Z"  horiz-adv-x="1610" vert-adv-y="2048"  />

      
      <glyph glyph-name="uni76" unicode="&#x76;" d="M1235 1004L1102 1004L673 0L651 0L221 1004L88 1004L88 1036L518 1036L518 1004L328 1004L692 131L1067 1004L805 1004L805 1036L1235 1036L1235 1004Z"  horiz-adv-x="1323" vert-adv-y="2048"  />

      
      <glyph glyph-name="uni77" unicode="&#x77;" d="M1665 1004L1462 1004L1175 0L1151 0L877 961L602 0L578 0L291 1004L88 1004L88 1036L590 1036L590 1004L395 1004L621 182L864 1036L961 1036L1194 182L1427 1004L1235 1004L1235 1036L1665 1036L1665 1004Z"  horiz-adv-x="1753" vert-adv-y="2048"  />

      
      <glyph glyph-name="uni78" unicode="&#x78;" d="M1307 0L877 0L877 33L1059 33L715 471L338 33L590 33L590 0L160 0L160 33L295 33L694 498L295 1004L160 1004L160 1036L590 1036L590 1004L408 1004L752 565L1128 1004L877 1004L877 1036L1307 1036L1307 1004L1171 1004L772 539L1171 33L1307 33L1307 0Z"  horiz-adv-x="1466" vert-adv-y="2048"  />

      
      <glyph glyph-name="uni79" unicode="&#x79;" d="M1307 1004L1174 1004L890 341Q873 295 837.50 213Q802 131 748 10L652-183Q641-213 604-280L457-427L307-501L225-501L137-413L231-318L315-400L291-425L231-364L182-413L238-468L299-468Q331-452 365.50-434.50Q400-417 436-398L529-305Q545-293 575-259L715 16L293 1004L160 1004L160 1036L590 1036L590 1004L399 1004L764 131L1139 1004L877 1004L877 1036L1307 1036L1307 1004Z"  horiz-adv-x="1395" vert-adv-y="2048"  />

      
      <glyph glyph-name="uni7a" unicode="&#x7a;" d="M1124 1036L336 33L1008 33L1108 436L1108 0L199 0L987 1004L315 1004L215 600L215 1036L1124 1036Z"  horiz-adv-x="1323" vert-adv-y="2048"  />

      
      <glyph glyph-name="uni7b" unicode="&#x7b;" d="M606 227Q592 198 573.50 160.50Q555 123 532 78Q503 54 461 6L391-130L391-265L459-400L598-470L582-499Q546-482 508.50-462.50Q471-443 432-423L360-351L287-202L287-50Q301-21 319 16Q337 53 360 98Q387 120 432 170L502 307L502 440L365 575L195 662Q232 679 274.50 700.50Q317 722 365 748L502 883L502 1016Q489 1043 472 1077Q455 1111 432 1153Q405 1175 360 1225L287 1374L287 1526Q301 1556 319 1593Q337 1630 360 1675L432 1747Q443 1754 480.50 1772.50Q518 1791 582 1823L598 1794L459 1724L391 1589L391 1454Q404 1428 421 1393.50Q438 1359 461 1317Q490 1293 532 1245L606 1096L606 944L530 793L268 662L530 530L606 379L606 227Z"  horiz-adv-x="893" vert-adv-y="2048"  />

      
      <glyph glyph-name="uni7c" unicode="&#x7c;" d="M176-484L143-484L143 1808L176 1808L176-484Z"  horiz-adv-x="463" vert-adv-y="2048"  />

      
      <glyph glyph-name="uni7d" unicode="&#x7d;" d="M698 662Q661 645 618.50 623Q576 601 528 575L391 440L391 307Q404 281 421 246.50Q438 212 461 170Q490 146 532 98L606-50L606-202Q592-231 573.50-268.50Q555-306 532-351L461-423Q450-429 412.50-448Q375-467 311-499L295-470L434-400L502-265L502-130Q489-103 472-69.50Q455-36 432 6Q405 28 360 78L287 227L287 379L362 530L625 662L362 793L287 944L287 1096Q301 1126 319 1163Q337 1200 360 1245Q387 1267 432 1317L502 1454L502 1589L434 1724L295 1794L311 1823Q348 1805 385.50 1786Q423 1767 461 1747L532 1675Q546 1647 564.50 1610Q583 1573 606 1526L606 1374Q592 1345 573.50 1307.50Q555 1270 532 1225Q503 1201 461 1153L391 1016L391 883L528 748L698 662Z"  horiz-adv-x="893" vert-adv-y="2048"  />

      
      <glyph glyph-name="uni7e" unicode="&#x7e;" d="M1610 731L1536 506L1382 430L1231 430L1083 504Q1035 542 964.50 595.50Q894 649 797 719L657 788L522 788L387 721L319 586L319 446L287 446L287 592L360 817L514 893L666 893L813 819Q861 781 932 727.50Q1003 674 1100 604L1239 535L1374 535L1509 602L1577 737L1577 877L1610 877L1610 731Z"  horiz-adv-x="1896" vert-adv-y="2048"  />

      
      <glyph glyph-name="unia1" unicode="&#xa1;" d="M326 1450L231 1356L137 1450L231 1544L326 1450M319 156L231-19L143 156L215 1022L248 1022L319 156Z"  horiz-adv-x="821" vert-adv-y="2048"  />

      
      <glyph glyph-name="unia2" unicode="&#xa2;" d="M1180 727L1092 639L997 733L1079 817L1104 793L1042 733L1092 684L1147 739L1147 799Q1080 869 993 944L479 152L528 102Q577 78 666 33L803 33Q819 38 870.50 55.50Q922 73 1012 102L1151 244L1176 219L1028 74L807 0L659 0Q643 5 588 23.50Q533 42 438 74L432 80L246-206L217-189L408 102L289 223L215 444L215 592Q220 608 238.50 663Q257 718 289 813L438 963L659 1036L881 1036L981 985L1149 1243L1178 1227L1012 971L1030 963L1180 811L1180 727M965 958L872 1004L666 1004Q634 988 599.50 970.50Q565 953 528 934L389 797L319 588L319 449Q336 400 353 348.50Q370 297 389 240L455 174L965 958Z"  horiz-adv-x="1395" vert-adv-y="2048"  />

      
      <glyph glyph-name="unia3" unicode="&#xa3;" d="M1294 315L1217 157Q1212 146 1202 126.50Q1192 107 1178 78L1098 0L870 0L727 143L381 143Q349 109 311.50 72Q274 35 231-5L137 88L231 182L299 117L358 236L358 752L143 752L143 784L358 784L358 1239L432 1389L508 1464L657 1538L737 1538Q767 1524 804.50 1505.50Q842 1487 887 1464L963 1389L1040 1231L948 1141L854 1235L936 1319L961 1294L899 1235L948 1186L999 1239Q988 1264 971.50 1296Q955 1328 934 1368L866 1436L729 1505L666 1505Q613 1481 528 1436Q514 1422 497.50 1405.50Q481 1389 463 1372L463 784L662 784L662 752L463 752L463 248L668 248Q692 224 727.50 188Q763 152 811 104L1085 104L1294 315Z"  horiz-adv-x="1323" vert-adv-y="2048"  />

      
      <glyph glyph-name="unia5" unicode="&#xa5;" d="M1522 1505L1386 1505L907 750L1378 750L1378 717L893 717L893 606L1378 606L1378 573L893 573L893 33L1092 33L1092 0L590 0L590 33L788 33L788 573L303 573L303 606L788 606L788 717L303 717L303 750L774 750L295 1505L160 1505L160 1538L590 1538L590 1505L406 1505L877 764L1348 1505L1092 1505L1092 1538L1522 1538L1522 1505Z"  horiz-adv-x="1753" vert-adv-y="2048"  />

      
      <glyph glyph-name="unia7" unicode="&#xa7;" d="M1251 657L1178 508L1102 432Q1073 418 1035.50 399.50Q998 381 952 358L874 358Q890 351 911 341Q932 331 958 317Q978 298 996.50 279.50Q1015 261 1034 242L1108 92L1108 12Q1081-47 1034-136L958-212L809-286L657-286L508-212L432-136L358 12L358 94L446 182L541 88L459 4L434 29L496 88L446 137L391 82L391 20Q404-6 421-40Q438-74 461-116L528-183L666-253L801-253Q827-240 861.50-223Q896-206 938-183L1006-116L1075 20L1075 84Q1063 110 1046 144.50Q1029 179 1006 221L938 289L365 575L289 651Q275 680 256.50 717.50Q238 755 215 801L215 881L289 1030L365 1106L514 1180L592 1180Q576 1187 555 1197Q534 1207 508 1221Q488 1240 469.50 1258.50Q451 1277 432 1296L358 1446L358 1526L432 1675L508 1751L657 1825L809 1825Q839 1811 876 1792.50Q913 1774 958 1751L1034 1675L1108 1526L1108 1444L1020 1356L926 1450L1008 1534L1032 1509L971 1450L1020 1401L1075 1456L1075 1518L1006 1655L938 1722Q913 1735 879 1752.50Q845 1770 801 1792L666 1792L528 1722L461 1655L391 1518L391 1454Q404 1428 421 1393.50Q438 1359 461 1317L528 1249L1102 963L1178 887L1251 737L1251 657M1219 666L1219 729L1151 864L586 1147L522 1147Q496 1134 461.50 1117Q427 1100 385 1077L317 1010L248 872L248 809L315 674L881 391L944 391Q970 404 1004.50 421Q1039 438 1081 461L1149 528L1219 666Z"  horiz-adv-x="1466" vert-adv-y="2048"  />

      
      <glyph glyph-name="uniaa" unicode="&#xaa;" d="M610 1075L573 1075Q563 1081 506 1110L481 1165Q471 1154 455.50 1139.50Q440 1125 420 1108L344 1075L266 1075L176 1110L141 1180L141 1249L176 1319Q195 1329 219.50 1340.50Q244 1352 276 1366Q306 1371 347 1378.50Q388 1386 440 1395L471 1419L471 1454Q450 1484 399 1505L285 1505Q226 1481 211 1460L236 1460L236 1413L172 1413L172 1466L209 1505L276 1538L408 1538Q469 1509 502 1470L535 1403L535 1188Q558 1129 586 1108L610 1108L610 1075M590 1004L160 1004L160 1036L590 1036L590 1004M471 1200L471 1376L453 1362L287 1333L231 1296L205 1241L205 1188L231 1135L272 1108L336 1108Q349 1113 365.50 1120Q382 1127 403 1137Q415 1148 432 1164Q449 1180 471 1200Z"  horiz-adv-x="893" vert-adv-y="2048"  />

      
      <glyph glyph-name="uniab" unicode="&#xab;" d="M1104 29L1079 4L567 518L1079 1032L1104 1008L612 518L1104 29M745 29L721 4L209 518L721 1032L745 1008L254 518L745 29Z"  horiz-adv-x="1323" vert-adv-y="2048"  />

      
      <glyph glyph-name="unib0" unicode="&#xb0;" d="M678 1231L602 1079L451 1004L297 1004L143 1157L143 1311L219 1462L371 1538L524 1538L678 1384L678 1231M573 1239L573 1374L508 1505L381 1505L317 1440L248 1303L248 1167L313 1036L440 1036L504 1102L573 1239Z"  horiz-adv-x="821" vert-adv-y="2048"  />

      
      <glyph glyph-name="unib1" unicode="&#xb1;" d="M1593 860L965 860L965 231L932 231L932 860L303 860L303 893L932 893L932 1522L965 1522L965 893L1593 893L1593 860M1593 72L303 72L303 104L1593 104L1593 72Z"  horiz-adv-x="1896" vert-adv-y="2048"  />

      
      <glyph glyph-name="uniba" unicode="&#xba;" d="M678 1274Q670 1251 662 1226.50Q654 1202 645 1176L578 1108L479 1075L414 1075L315 1108L248 1176L215 1274L215 1339Q230 1385 248 1438L315 1505L414 1538L479 1538L578 1505L645 1438L678 1339L678 1274M662 1004L231 1004L231 1036L662 1036L662 1004M604 1278L604 1335L586 1421Q533 1486 473 1505L420 1505Q360 1486 307 1421L289 1335L289 1278L307 1192Q360 1129 420 1108L473 1108Q533 1129 586 1192L604 1278Z"  horiz-adv-x="893" vert-adv-y="2048"  />

      
      <glyph glyph-name="unibb" unicode="&#xbb;" d="M1114 518L602 4L578 29L1069 518L578 1008L602 1032L1114 518M756 518L244 4L219 29L711 518L219 1008L244 1032L756 518Z"  horiz-adv-x="1323" vert-adv-y="2048"  />

      
      <glyph glyph-name="unibf" unicode="&#xbf;" d="M684 1450L590 1356L496 1450L590 1544L684 1450M1036 299L963 150L887 74Q858 60 820.50 41.50Q783 23 737 0L516 0Q500 5 445 23.50Q390 42 295 74L217 150L143 299L143 451Q157 481 175.50 518Q194 555 217 600L293 676Q306 682 329 693.50Q352 705 386 722L573 815L573 1020L606 1020L606 795Q542 765 457 719L317 580L248 442L248 307Q260 281 277 246.50Q294 212 317 170L385 102L522 33L729 33L866 102L934 170L1004 307L1004 369L948 424L899 375L961 315L936 291L854 375L948 469L1036 381L1036 299Z"  horiz-adv-x="1395" vert-adv-y="2048"  />

      
      <glyph glyph-name="unic0" unicode="&#xc0;" d="M811 1679L801 1649L430 1722L430 1833L811 1679M1450 0L1020 0L1020 33L1212 33L1079 430L459 430L326 33L590 33L590 0L160 0L160 33L291 33L793 1538L817 1538L1319 33L1450 33L1450 0M1069 463L770 1362L469 463L1069 463Z"  horiz-adv-x="1538" vert-adv-y="2048"  />

      
      <glyph glyph-name="unic1" unicode="&#xc1;" d="M1180 1722L809 1649L799 1679L1180 1833L1180 1722M1450 0L1020 0L1020 33L1212 33L1079 430L459 430L326 33L590 33L590 0L160 0L160 33L291 33L793 1538L817 1538L1319 33L1450 33L1450 0M1069 463L770 1362L469 463L1069 463Z"  horiz-adv-x="1538" vert-adv-y="2048"  />

      
      <glyph glyph-name="unic2" unicode="&#xc2;" d="M1174 1534L1155 1507L805 1718L455 1507L436 1534L805 1829L1174 1534M1450 0L1020 0L1020 33L1212 33L1079 430L459 430L326 33L590 33L590 0L160 0L160 33L291 33L793 1538L817 1538L1319 33L1450 33L1450 0M1069 463L770 1362L469 463L1069 463Z"  horiz-adv-x="1538" vert-adv-y="2048"  />

      
      <glyph glyph-name="unic3" unicode="&#xc3;" d="M1223 1892L1145 1734Q1140 1723 1130 1703.50Q1120 1684 1106 1655L1026 1577L944 1577L657 1720L596 1720L387 1509L465 1668Q470 1679 480 1698.50Q490 1718 504 1747L584 1825L666 1825L952 1681L1014 1681L1223 1892M1450 0L1020 0L1020 33L1212 33L1079 430L459 430L326 33L590 33L590 0L160 0L160 33L291 33L793 1538L817 1538L1319 33L1450 33L1450 0M1069 463L770 1362L469 463L1069 463Z"  horiz-adv-x="1538" vert-adv-y="2048"  />

      
      <glyph glyph-name="unic4" unicode="&#xc4;" d="M1257 1737L1163 1642L1069 1737L1163 1831L1257 1737M541 1737L446 1642L352 1737L446 1831L541 1737M1450 0L1020 0L1020 33L1212 33L1079 430L459 430L326 33L590 33L590 0L160 0L160 33L291 33L793 1538L817 1538L1319 33L1450 33L1450 0M1069 463L770 1362L469 463L1069 463Z"  horiz-adv-x="1538" vert-adv-y="2048"  />

      
      <glyph glyph-name="unic5" unicode="&#xc5;" d="M1450 0L1020 0L1020 33L1212 33L1079 430L459 430L326 33L590 33L590 0L160 0L160 33L291 33L782 1505L766 1505L686 1548L645 1624L645 1704L688 1780L764 1825L844 1825L928 1784L965 1704L965 1624L926 1544L846 1505L827 1505L1319 33L1450 33L1450 0M932 1632L932 1696L903 1759L836 1792L772 1792L713 1755L678 1696L678 1632L711 1573L774 1538L838 1538L901 1569L932 1632M1069 463L770 1362L469 463L1069 463Z"  horiz-adv-x="1538" vert-adv-y="2048"  />

      
      <glyph glyph-name="unic6" unicode="&#xc6;" d="M1395 0L590 0L590 33L717 33L717 430L387 430L254 33L375 33L375 0L88 0L88 33L219 33L711 1505L590 1505L590 1538L1395 1538L1395 1163L1362 1159L1292 1505L821 1505L821 821L1075 821L1075 1092L1108 1092L1108 518L1075 518L1075 788L821 788L821 33L1292 33L1362 379L1395 375L1395 0M717 463L717 1421L397 463L717 463Z"  horiz-adv-x="1610" vert-adv-y="2048"  />

      
      <glyph glyph-name="unic7" unicode="&#xc7;" d="M1251 991L1149 1298L1012 1436L803 1505L666 1505Q600 1473 528 1436L389 1296L317 1157Q315 1151 309.50 1133.50Q304 1116 294 1087L248 946L248 592L294 451Q297 441 303 424Q309 407 317 381Q318 378 389 242L528 102Q589 70 666 33L803 33Q819 38 870.50 55.50Q922 73 1012 102Q1071 159 1149 242L1221 383L1249 367L1178 221L1028 74L807 0L750 0L750-120L811-181L883-181L965-263L965-419L883-501L655-501L578-425L602-400L668-468L799-468L860-407L860-275L717-132L717 0L659 0L438 74L289 221Q287 225 281 237.50Q275 250 265 270L217 369L168 515Q166 520 162 529Q158 538 152 551Q143 570 143 588L143 950Q143 967 152 987Q159 1001 162.50 1010Q166 1019 168 1023L217 1169L265 1268Q270 1283 289 1317L438 1464L659 1538L807 1538L1028 1464L1157 1337L1251 1622L1251 991Z"  horiz-adv-x="1538" vert-adv-y="2048"  />

      
      <glyph glyph-name="unic8" unicode="&#xc8;" d="M1098 1536L1087 1505L358 1724L358 1833L1098 1536M1323 0L160 0L160 33L358 33L358 1362L160 1362L160 1395L1323 1395L1323 948L1290 946L1221 1362L463 1362L463 750L860 750L860 1020L893 1020L893 446L860 446L860 717L463 717L463 33L1221 33L1290 449L1323 446L1323 0Z"  horiz-adv-x="1538" vert-adv-y="2048"  />

      
      <glyph glyph-name="unic9" unicode="&#xc9;" d="M1108 1724L379 1505L369 1536L1108 1833L1108 1724M1323 0L160 0L160 33L358 33L358 1362L160 1362L160 1395L1323 1395L1323 948L1290 946L1221 1362L463 1362L463 750L860 750L860 1020L893 1020L893 446L860 446L860 717L463 717L463 33L1221 33L1290 449L1323 446L1323 0Z"  horiz-adv-x="1538" vert-adv-y="2048"  />

      
      <glyph glyph-name="unica" unicode="&#xca;" d="M1098 1679L1087 1649L733 1720L379 1649L369 1679L733 1827L1098 1679M1323 0L160 0L160 33L358 33L358 1505L160 1505L160 1538L1323 1538L1323 1092L1290 1090L1221 1505L463 1505L463 821L860 821L860 1092L893 1092L893 518L860 518L860 788L463 788L463 33L1221 33L1290 449L1323 446L1323 0Z"  horiz-adv-x="1538" vert-adv-y="2048"  />

      
      <glyph glyph-name="unicb" unicode="&#xcb;" d="M1186 1737L1092 1642L997 1737L1092 1831L1186 1737M469 1737L375 1642L281 1737L375 1831L469 1737M1323 0L160 0L160 33L358 33L358 1505L160 1505L160 1538L1323 1538L1323 1092L1290 1090L1221 1505L463 1505L463 821L860 821L860 1092L893 1092L893 518L860 518L860 788L463 788L463 33L1221 33L1290 449L1323 446L1323 0Z"  horiz-adv-x="1538" vert-adv-y="2048"  />

      
      <glyph glyph-name="unicc" unicode="&#xcc;" d="M588 1614L143 1724L143 1835L588 1614M662 0L160 0L160 33L358 33L358 1505L160 1505L160 1538L662 1538L662 1505L463 1505L463 33L662 33L662 0Z"  horiz-adv-x="821" vert-adv-y="2048"  />

      
      <glyph glyph-name="unicd" unicode="&#xcd;" d="M678 1724L233 1614L678 1835L678 1724M662 0L160 0L160 33L358 33L358 1505L160 1505L160 1538L662 1538L662 1505L463 1505L463 33L662 33L662 0Z"  horiz-adv-x="821" vert-adv-y="2048"  />

      
      <glyph glyph-name="unice" unicode="&#xce;" d="M772 1612L444 1720L377 1720L49 1612L371 1825L451 1825L772 1612M662 0L160 0L160 33L358 33L358 1505L160 1505L160 1538L662 1538L662 1505L463 1505L463 33L662 33L662 0Z"  horiz-adv-x="821" vert-adv-y="2048"  />

      
      <glyph glyph-name="unicf" unicode="&#xcf;" d="M612 1737L518 1642L424 1737L518 1831L612 1737M397 1737L303 1642L209 1737L303 1831L397 1737M662 0L160 0L160 33L358 33L358 1505L160 1505L160 1538L662 1538L662 1505L463 1505L463 33L662 33L662 0Z"  horiz-adv-x="821" vert-adv-y="2048"  />

      
      <glyph glyph-name="unid1" unicode="&#xd1;" d="M1319 1796L1098 1577L942 1577L799 1720L594 1720L383 1579L362 1606L584 1825L739 1825L883 1681L1087 1681L1298 1823L1319 1796M1522 1362L1323 1362L1323 0L1298 0L463 1184L463 33L590 33L590 0L160 0L160 33L358 33L358 1362L160 1362L160 1395L455 1395L1290 211L1290 1362L1092 1362L1092 1395L1522 1395L1522 1362Z"  horiz-adv-x="1681" vert-adv-y="2048"  />

      
      <glyph glyph-name="unid2" unicode="&#xd2;" d="M1096 1681L1090 1649L358 1722L358 1829L1096 1681M1395 659L1323 369L1274 270Q1268 253 1249 221L1100 74L881 0L729 0L727 2L510 74L360 221Q358 225 352 237.50Q346 250 336 270L287 369L215 659L215 879L287 1169L336 1268Q340 1284 360 1317L510 1464L729 1538L881 1538L883 1536L1100 1464L1249 1317Q1251 1313 1257 1300.50Q1263 1288 1274 1268L1323 1169L1395 879L1395 659M1290 664L1290 874Q1288 882 1282 905.50Q1276 929 1266 968L1219 1157Q1203 1189 1185.50 1224Q1168 1259 1149 1296L1056 1389Q1049 1397 1038 1408.50Q1027 1420 1010 1436L872 1505L737 1505L600 1436Q598 1434 593 1429Q588 1424 581.50 1417Q575 1410 567.50 1402.50Q560 1395 554 1389L461 1296Q429 1234 412 1199.50Q395 1165 391 1157L319 874L319 664L391 381Q405 353 422.50 318.50Q440 284 461 242L554 149Q561 141 572 129.50Q583 118 600 102L737 33L872 33L1010 102Q1011 103 1016.50 108.50Q1022 114 1028.50 121Q1035 128 1042.50 135.50Q1050 143 1056 149L1149 242L1219 381L1290 664Z"  horiz-adv-x="1610" vert-adv-y="2048"  />

      
      <glyph glyph-name="unid3" unicode="&#xd3;" d="M1251 1722L520 1649L514 1681L1251 1829L1251 1722M1395 659L1323 369L1274 270Q1268 253 1249 221L1100 74L881 0L729 0L727 2L510 74L360 221Q358 225 352 237.50Q346 250 336 270L287 369L215 659L215 879L287 1169L336 1268Q340 1284 360 1317L510 1464L729 1538L881 1538L883 1536L1100 1464L1249 1317Q1251 1313 1257 1300.50Q1263 1288 1274 1268L1323 1169L1395 879L1395 659M1290 664L1290 874Q1288 882 1282 905.50Q1276 929 1266 968L1219 1157Q1203 1189 1185.50 1224Q1168 1259 1149 1296L1056 1389Q1049 1397 1038 1408.50Q1027 1420 1010 1436L872 1505L737 1505L600 1436Q598 1434 593 1429Q588 1424 581.50 1417Q575 1410 567.50 1402.50Q560 1395 554 1389L461 1296Q429 1234 412 1199.50Q395 1165 391 1157L319 874L319 664L391 381Q405 353 422.50 318.50Q440 284 461 242L554 149Q561 141 572 129.50Q583 118 600 102L737 33L872 33L1010 102Q1011 103 1016.50 108.50Q1022 114 1028.50 121Q1035 128 1042.50 135.50Q1050 143 1056 149L1149 242L1219 381L1290 664Z"  horiz-adv-x="1610" vert-adv-y="2048"  />

      
      <glyph glyph-name="unid4" unicode="&#xd4;" d="M1169 1679L1159 1649L805 1720L451 1649L440 1679L805 1827L1169 1679M1395 659L1323 369L1274 270Q1268 253 1249 221L1100 74L881 0L729 0L727 2L510 74L360 221Q358 225 352 237.50Q346 250 336 270L287 369L215 659L215 879L287 1169L336 1268Q340 1284 360 1317L510 1464L729 1538L881 1538L883 1536L1100 1464L1249 1317Q1251 1313 1257 1300.50Q1263 1288 1274 1268L1323 1169L1395 879L1395 659M1290 664L1290 874Q1288 882 1282 905.50Q1276 929 1266 968L1219 1157Q1203 1189 1185.50 1224Q1168 1259 1149 1296L1056 1389Q1049 1397 1038 1408.50Q1027 1420 1010 1436L872 1505L737 1505L600 1436Q598 1434 593 1429Q588 1424 581.50 1417Q575 1410 567.50 1402.50Q560 1395 554 1389L461 1296Q429 1234 412 1199.50Q395 1165 391 1157L319 874L319 664L391 381Q405 353 422.50 318.50Q440 284 461 242L554 149Q561 141 572 129.50Q583 118 600 102L737 33L872 33L1010 102Q1011 103 1016.50 108.50Q1022 114 1028.50 121Q1035 128 1042.50 135.50Q1050 143 1056 149L1149 242L1219 381L1290 664Z"  horiz-adv-x="1610" vert-adv-y="2048"  />

      
      <glyph glyph-name="unid5" unicode="&#xd5;" d="M1223 1892L1145 1734Q1140 1723 1130 1703.50Q1120 1684 1106 1655L1026 1577L944 1577L657 1720L596 1720L387 1509L465 1668Q470 1679 480 1698.50Q490 1718 504 1747L584 1825L666 1825L952 1681L1014 1681L1223 1892M1395 659L1323 369L1274 270Q1268 253 1249 221L1100 74L881 0L729 0L727 2L510 74L360 221Q358 225 352 237.50Q346 250 336 270L287 369L215 659L215 879L287 1169L336 1268Q340 1284 360 1317L510 1464L729 1538L881 1538L883 1536L1100 1464L1249 1317Q1251 1313 1257 1300.50Q1263 1288 1274 1268L1323 1169L1395 879L1395 659M1290 664L1290 874Q1288 882 1282 905.50Q1276 929 1266 968L1219 1157Q1203 1189 1185.50 1224Q1168 1259 1149 1296L1056 1389Q1049 1397 1038 1408.50Q1027 1420 1010 1436L872 1505L737 1505L600 1436Q598 1434 593 1429Q588 1424 581.50 1417Q575 1410 567.50 1402.50Q560 1395 554 1389L461 1296Q429 1234 412 1199.50Q395 1165 391 1157L319 874L319 664L391 381Q405 353 422.50 318.50Q440 284 461 242L554 149Q561 141 572 129.50Q583 118 600 102L737 33L872 33L1010 102Q1011 103 1016.50 108.50Q1022 114 1028.50 121Q1035 128 1042.50 135.50Q1050 143 1056 149L1149 242L1219 381L1290 664Z"  horiz-adv-x="1610" vert-adv-y="2048"  />

      
      <glyph glyph-name="unid6" unicode="&#xd6;" d="M1257 1737L1163 1642L1069 1737L1163 1831L1257 1737M541 1737L446 1642L352 1737L446 1831L541 1737M1395 659L1323 369L1274 270Q1268 253 1249 221L1100 74L881 0L729 0L727 2L510 74L360 221Q358 225 352 237.50Q346 250 336 270L287 369L215 659L215 879L287 1169L336 1268Q340 1284 360 1317L510 1464L729 1538L881 1538L883 1536L1100 1464L1249 1317Q1251 1313 1257 1300.50Q1263 1288 1274 1268L1323 1169L1395 879L1395 659M1290 664L1290 874Q1288 882 1282 905.50Q1276 929 1266 968L1219 1157Q1203 1189 1185.50 1224Q1168 1259 1149 1296L1056 1389Q1049 1397 1038 1408.50Q1027 1420 1010 1436L872 1505L737 1505L600 1436Q598 1434 593 1429Q588 1424 581.50 1417Q575 1410 567.50 1402.50Q560 1395 554 1389L461 1296Q429 1234 412 1199.50Q395 1165 391 1157L319 874L319 664L391 381Q405 353 422.50 318.50Q440 284 461 242L554 149Q561 141 572 129.50Q583 118 600 102L737 33L872 33L1010 102Q1011 103 1016.50 108.50Q1022 114 1028.50 121Q1035 128 1042.50 135.50Q1050 143 1056 149L1149 242L1219 381L1290 664Z"  horiz-adv-x="1610" vert-adv-y="2048"  />

      
      <glyph glyph-name="unid8" unicode="&#xd8;" d="M1395 659L1323 369L1274 270Q1268 253 1249 221L1100 74L881 0L729 0L727 2L510 74L387 195L244 6L219 27L365 219L360 221L287 369L215 659L215 879L287 1169L336 1268Q340 1284 360 1317L510 1464L729 1538L881 1538L883 1536L1100 1464L1223 1343L1366 1532L1391 1511L1245 1319L1249 1317L1323 1169L1395 879L1395 659M1165 1268L1149 1296Q1120 1327 1086 1361.50Q1052 1396 1010 1436L872 1505L737 1505L600 1436Q598 1434 593 1429Q588 1424 581.50 1417Q575 1410 567.50 1402.50Q560 1395 554 1389L461 1296Q429 1234 412 1199.50Q395 1165 391 1157L319 874L319 664L391 381L430 303L1165 1268M1290 664L1290 874Q1288 882 1282 905.50Q1276 929 1266 968L1219 1157L1180 1235L444 270Q448 263 452 256.50Q456 250 461 242Q490 211 524 176.50Q558 142 600 102L737 33L872 33L1010 102Q1011 103 1016.50 108.50Q1022 114 1028.50 121Q1035 128 1042.50 135.50Q1050 143 1056 149L1149 242L1219 381L1290 664Z"  horiz-adv-x="1610" vert-adv-y="2048"  />

      
      <glyph glyph-name="unid9" unicode="&#xd9;" d="M1239 1681L1233 1649L502 1722L502 1829L1239 1681M1593 1505L1395 1505L1395 444L1321 223L1171 74L950 0L803 0Q787 5 732 23.50Q677 42 582 74L432 223L358 444L358 1505L160 1505L160 1538L662 1538L662 1505L463 1505L463 449L532 240Q561 211 595.50 176.50Q630 142 672 102L809 33L946 33Q962 38 1013.50 55.50Q1065 73 1155 102L1292 240L1362 449L1362 1505L1163 1505L1163 1538L1593 1538L1593 1505Z"  horiz-adv-x="1753" vert-adv-y="2048"  />

      
      <glyph glyph-name="unida" unicode="&#xda;" d="M1323 1722L592 1649L586 1681L1323 1829L1323 1722M1593 1505L1395 1505L1395 444L1321 223L1171 74L950 0L803 0Q787 5 732 23.50Q677 42 582 74L432 223L358 444L358 1505L160 1505L160 1538L662 1538L662 1505L463 1505L463 449L532 240Q561 211 595.50 176.50Q630 142 672 102L809 33L946 33Q962 38 1013.50 55.50Q1065 73 1155 102L1292 240L1362 449L1362 1505L1163 1505L1163 1538L1593 1538L1593 1505Z"  horiz-adv-x="1753" vert-adv-y="2048"  />

      
      <glyph glyph-name="unidb" unicode="&#xdb;" d="M1241 1679L1231 1649L877 1720L522 1649L512 1679L877 1827L1241 1679M1593 1505L1395 1505L1395 444L1321 223L1171 74L950 0L803 0Q787 5 732 23.50Q677 42 582 74L432 223L358 444L358 1505L160 1505L160 1538L662 1538L662 1505L463 1505L463 449L532 240Q561 211 595.50 176.50Q630 142 672 102L809 33L946 33Q962 38 1013.50 55.50Q1065 73 1155 102L1292 240L1362 449L1362 1505L1163 1505L1163 1538L1593 1538L1593 1505Z"  horiz-adv-x="1753" vert-adv-y="2048"  />

      
      <glyph glyph-name="unidc" unicode="&#xdc;" d="M1329 1737L1235 1642L1141 1737L1235 1831L1329 1737M612 1737L518 1642L424 1737L518 1831L612 1737M1593 1505L1395 1505L1395 444L1321 223L1171 74L950 0L803 0Q787 5 732 23.50Q677 42 582 74L432 223L358 444L358 1505L160 1505L160 1538L662 1538L662 1505L463 1505L463 449L532 240Q561 211 595.50 176.50Q630 142 672 102L809 33L946 33Q962 38 1013.50 55.50Q1065 73 1155 102L1292 240L1362 449L1362 1505L1163 1505L1163 1538L1593 1538L1593 1505Z"  horiz-adv-x="1753" vert-adv-y="2048"  />

      
      <glyph glyph-name="unidf" unicode="&#xdf;" d="M1036 299L963 150L887 74Q858 60 820.50 41.50Q783 23 737 0L586 0Q555 14 518 32.50Q481 51 436 74L352 160L446 254L530 172L506 147L446 209L397 160L457 102L594 33L657 33L795 102L862 170Q875 195 892.50 229Q910 263 932 307L932 514Q908 566 862 651L797 719Q759 733 707 750Q655 767 588 788L518 788L518 821L586 821Q612 834 646.50 851Q681 868 723 891L791 958L860 1096L860 1231L791 1368L723 1436L586 1505L522 1505Q496 1493 462 1476Q428 1459 385 1436L319 1372L319 154L172 4L147 29L215 94L215 1239L289 1389L365 1464L514 1538L666 1538Q696 1524 733 1505.50Q770 1487 815 1464L891 1389L965 1239L965 1087L891 938L815 862Q795 851 767.50 837.50Q740 824 705 807L885 748L963 672L1036 522L1036 299Z"  horiz-adv-x="1323" vert-adv-y="2048"  />

      
      <glyph glyph-name="unie0" unicode="&#xe0;" d="M1026 1249L1016 1219L287 1438L287 1546L1026 1249M1307 0L1229 0Q1218 6 1180.50 25Q1143 44 1079 76L1016 203Q963 147 887 74L737 0L516 0Q463 17 407 35.50Q351 54 291 74L215 227L215 379L291 532L514 606L940 676L1004 739L1004 870Q993 883 976.50 899Q960 915 938 934Q913 947 879 964Q845 981 801 1004L522 1004Q470 980 385 934L319 870L319 821L358 821L358 877L391 877L391 788L287 788L287 883L365 963Q394 977 431 995.50Q468 1014 514 1036L809 1036L958 963L1034 887Q1048 858 1066.50 820.50Q1085 783 1108 737L1108 236Q1120 210 1137.50 175.50Q1155 141 1178 98L1241 33L1307 33L1307 0M1004 238L1004 694L956 647L668 598Q648 595 612.50 589Q577 583 524 573L387 506L319 371L319 236L387 100L522 33L729 33Q761 49 795 66Q829 83 866 102L1004 238Z"  horiz-adv-x="1466" vert-adv-y="2048"  />

      
      <glyph glyph-name="unie1" unicode="&#xe1;" d="M1036 1438L307 1219L297 1249L1036 1546L1036 1438M1307 0L1229 0Q1218 6 1180.50 25Q1143 44 1079 76L1016 203Q963 147 887 74L737 0L516 0Q463 17 407 35.50Q351 54 291 74L215 227L215 379L291 532L514 606L940 676L1004 739L1004 870Q993 883 976.50 899Q960 915 938 934Q913 947 879 964Q845 981 801 1004L522 1004Q470 980 385 934L319 870L319 821L358 821L358 877L391 877L391 788L287 788L287 883L365 963Q394 977 431 995.50Q468 1014 514 1036L809 1036L958 963L1034 887Q1048 858 1066.50 820.50Q1085 783 1108 737L1108 236Q1120 210 1137.50 175.50Q1155 141 1178 98L1241 33L1307 33L1307 0M1004 238L1004 694L956 647L668 598Q648 595 612.50 589Q577 583 524 573L387 506L319 371L319 236L387 100L522 33L729 33Q761 49 795 66Q829 83 866 102L1004 238Z"  horiz-adv-x="1466" vert-adv-y="2048"  />

      
      <glyph glyph-name="unie2" unicode="&#xe2;" d="M958 1247L940 1221L590 1432L240 1221L221 1247L590 1542L958 1247M1307 0L1229 0Q1218 6 1180.50 25Q1143 44 1079 76L1016 203Q963 147 887 74L737 0L516 0Q463 17 407 35.50Q351 54 291 74L215 227L215 379L291 532L514 606L940 676L1004 739L1004 870Q993 883 976.50 899Q960 915 938 934Q913 947 879 964Q845 981 801 1004L522 1004Q470 980 385 934L319 870L319 821L358 821L358 877L391 877L391 788L287 788L287 883L365 963Q394 977 431 995.50Q468 1014 514 1036L809 1036L958 963L1034 887Q1048 858 1066.50 820.50Q1085 783 1108 737L1108 236Q1120 210 1137.50 175.50Q1155 141 1178 98L1241 33L1307 33L1307 0M1004 238L1004 694L956 647L668 598Q648 595 612.50 589Q577 583 524 573L387 506L319 371L319 236L387 100L522 33L729 33Q761 49 795 66Q829 83 866 102L1004 238Z"  horiz-adv-x="1466" vert-adv-y="2048"  />

      
      <glyph glyph-name="unie3" unicode="&#xe3;" d="M1079 1606L1002 1447Q989 1421 979.50 1401.50Q970 1382 963 1368L883 1290L801 1290L514 1434L453 1434L244 1223L321 1381Q326 1392 336 1411.50Q346 1431 360 1460L440 1538L522 1538L809 1395L870 1395L1079 1606M1307 0L1229 0Q1218 6 1180.50 25Q1143 44 1079 76L1016 203Q963 147 887 74L737 0L516 0Q463 17 407 35.50Q351 54 291 74L215 227L215 379L291 532L514 606L940 676L1004 739L1004 870Q993 883 976.50 899Q960 915 938 934Q913 947 879 964Q845 981 801 1004L522 1004Q470 980 385 934L319 870L319 821L358 821L358 877L391 877L391 788L287 788L287 883L365 963Q394 977 431 995.50Q468 1014 514 1036L809 1036L958 963L1034 887Q1048 858 1066.50 820.50Q1085 783 1108 737L1108 236Q1120 210 1137.50 175.50Q1155 141 1178 98L1241 33L1307 33L1307 0M1004 238L1004 694L956 647L668 598Q648 595 612.50 589Q577 583 524 573L387 506L319 371L319 236L387 100L522 33L729 33Q761 49 795 66Q829 83 866 102L1004 238Z"  horiz-adv-x="1466" vert-adv-y="2048"  />

      
      <glyph glyph-name="unie4" unicode="&#xe4;" d="M1114 1450L1020 1356L926 1450L1020 1544L1114 1450M469 1450L375 1356L281 1450L375 1544L469 1450M1307 0L1229 0Q1218 6 1180.50 25Q1143 44 1079 76L1016 203Q963 147 887 74L737 0L516 0Q463 17 407 35.50Q351 54 291 74L215 227L215 379L291 532L514 606L940 676L1004 739L1004 870Q993 883 976.50 899Q960 915 938 934Q913 947 879 964Q845 981 801 1004L522 1004Q470 980 385 934L319 870L319 821L358 821L358 877L391 877L391 788L287 788L287 883L365 963Q394 977 431 995.50Q468 1014 514 1036L809 1036L958 963L1034 887Q1048 858 1066.50 820.50Q1085 783 1108 737L1108 236Q1120 210 1137.50 175.50Q1155 141 1178 98L1241 33L1307 33L1307 0M1004 238L1004 694L956 647L668 598Q648 595 612.50 589Q577 583 524 573L387 506L319 371L319 236L387 100L522 33L729 33Q761 49 795 66Q829 83 866 102L1004 238Z"  horiz-adv-x="1466" vert-adv-y="2048"  />

      
      <glyph glyph-name="unie5" unicode="&#xe5;" d="M821 1337L782 1257L702 1219L623 1219L543 1262L502 1337L502 1417L545 1493L621 1538L700 1538L784 1497L821 1417L821 1337M1307 0L1229 0Q1218 6 1180.50 25Q1143 44 1079 76L1016 203Q963 147 887 74L737 0L516 0Q463 17 407 35.50Q351 54 291 74L215 227L215 379L291 532L514 606L940 676L1004 739L1004 870Q993 883 976.50 899Q960 915 938 934Q913 947 879 964Q845 981 801 1004L522 1004Q470 980 385 934L319 870L319 821L358 821L358 877L391 877L391 788L287 788L287 883L365 963Q394 977 431 995.50Q468 1014 514 1036L809 1036L958 963L1034 887Q1048 858 1066.50 820.50Q1085 783 1108 737L1108 236Q1120 210 1137.50 175.50Q1155 141 1178 98L1241 33L1307 33L1307 0M788 1346L788 1409L760 1473L692 1505L629 1505L569 1468L535 1409L535 1346L567 1286L631 1251L694 1251L758 1282L788 1346M1004 238L1004 694L956 647L668 598Q648 595 612.50 589Q577 583 524 573L387 506L319 371L319 236L387 100L522 33L729 33Q761 49 795 66Q829 83 866 102L1004 238Z"  horiz-adv-x="1466" vert-adv-y="2048"  />

      
      <glyph glyph-name="unie6" unicode="&#xe6;" d="M1610 573L965 573L965 307Q977 281 994 246.50Q1011 212 1034 170L1102 102L1239 33L1303 33Q1335 49 1369.50 66Q1404 83 1440 102Q1469 131 1504 166Q1539 201 1581 244L1606 219Q1575 187 1539 151Q1503 115 1460 74L1311 0L1159 0L1010 74L934 150L877 266Q867 243 852.50 214Q838 185 819 150L743 74L594 0L516 0Q463 17 407 35.50Q351 54 291 74L215 227L215 379L291 532Q366 561 468.50 591Q571 621 703 653L797 676Q873 737 895 805Q890 816 881.50 831.50Q873 847 862 866Q860 869 795 934L657 1004L522 1004Q470 980 385 934L319 870L319 821L358 821L358 877L391 877L391 788L287 788L287 883L365 963Q394 977 431 995.50Q468 1014 514 1036L666 1036Q696 1022 733 1004Q770 986 815 963Q888 891 891 887L913 842L934 887Q937 891 1010 963L1159 1036L1311 1036L1460 963L1536 887Q1550 858 1568.50 820.50Q1587 783 1610 737L1610 573M1505 606L1505 801L1438 936L1303 1004L1239 1004Q1213 991 1178.50 974Q1144 957 1102 934L1034 866L965 729L965 606L1505 606M860 307L860 694L813 647L620 598Q607 595 583 589Q559 583 524 573L387 506L319 371L319 236L387 100L522 33L586 33L723 102L791 170L860 307Z"  horiz-adv-x="1825" vert-adv-y="2048"  />

      
      <glyph glyph-name="unie7" unicode="&#xe7;" d="M1180 727L1092 639L997 733L1079 817L1104 793L1042 733L1092 684L1147 739L1147 799Q1119 828 1085 862Q1051 896 1010 934L872 1004L666 1004Q634 988 599.50 970.50Q565 953 528 934L389 797Q373 753 355.50 701Q338 649 319 588L319 449Q336 400 353 348.50Q370 297 389 240Q418 210 452 175.50Q486 141 528 102Q589 70 666 33L803 33Q819 38 870.50 55.50Q922 73 1012 102L1151 244L1176 219L1028 74L807 0L750 0L750-120L811-181L883-181L965-263L965-419L883-501L655-501L578-425L602-400L668-468L799-468L860-407L860-275L717-132L717 0L659 0L438 74L289 223L240 370Q230 391 215 444L215 592Q220 608 238.50 663Q257 718 289 813L438 963L659 1036L881 1036L1030 963L1180 811L1180 727Z"  horiz-adv-x="1395" vert-adv-y="2048"  />

      
      <glyph glyph-name="unie8" unicode="&#xe8;" d="M1026 1249L1016 1219L287 1438L287 1546L1026 1249M1180 573L319 573L319 449Q336 400 353 348.50Q370 297 389 240Q418 210 452 175.50Q486 141 528 102Q589 70 666 33L803 33Q819 38 870.50 55.50Q922 73 1012 102L1151 244L1176 219L1028 74L807 0L659 0Q643 5 588 23.50Q533 42 438 74L289 223L215 444L215 592Q220 608 238.50 663Q257 718 289 813L438 963L659 1036L881 1036L1030 963L1106 887Q1120 858 1138.50 820.50Q1157 783 1180 737L1180 573M1075 606L1075 801L1008 936L872 1004L666 1004Q634 988 599.50 970.50Q565 953 528 934L389 797L326 606L1075 606Z"  horiz-adv-x="1395" vert-adv-y="2048"  />

      
      <glyph glyph-name="unie9" unicode="&#xe9;" d="M1108 1438L379 1219L369 1249L1108 1546L1108 1438M1180 573L319 573L319 449Q336 400 353 348.50Q370 297 389 240Q418 210 452 175.50Q486 141 528 102Q589 70 666 33L803 33Q819 38 870.50 55.50Q922 73 1012 102L1151 244L1176 219L1028 74L807 0L659 0Q643 5 588 23.50Q533 42 438 74L289 223L215 444L215 592Q220 608 238.50 663Q257 718 289 813L438 963L659 1036L881 1036L1030 963L1106 887Q1120 858 1138.50 820.50Q1157 783 1180 737L1180 573M1075 606L1075 801L1008 936L872 1004L666 1004Q634 988 599.50 970.50Q565 953 528 934L389 797L326 606L1075 606Z"  horiz-adv-x="1395" vert-adv-y="2048"  />

      
      <glyph glyph-name="uniea" unicode="&#xea;" d="M1102 1247L1083 1221L733 1432L383 1221L365 1247L733 1542L1102 1247M1180 573L319 573L319 449Q336 400 353 348.50Q370 297 389 240Q418 210 452 175.50Q486 141 528 102Q589 70 666 33L803 33Q819 38 870.50 55.50Q922 73 1012 102L1151 244L1176 219L1028 74L807 0L659 0Q643 5 588 23.50Q533 42 438 74L289 223L215 444L215 592Q220 608 238.50 663Q257 718 289 813L438 963L659 1036L881 1036L1030 963L1106 887Q1120 858 1138.50 820.50Q1157 783 1180 737L1180 573M1075 606L1075 801L1008 936L872 1004L666 1004Q634 988 599.50 970.50Q565 953 528 934L389 797L326 606L1075 606Z"  horiz-adv-x="1395" vert-adv-y="2048"  />

      
      <glyph glyph-name="unieb" unicode="&#xeb;" d="M1186 1450L1092 1356L997 1450L1092 1544L1186 1450M469 1450L375 1356L281 1450L375 1544L469 1450M1180 573L319 573L319 449Q336 400 353 348.50Q370 297 389 240Q418 210 452 175.50Q486 141 528 102Q589 70 666 33L803 33Q819 38 870.50 55.50Q922 73 1012 102L1151 244L1176 219L1028 74L807 0L659 0Q643 5 588 23.50Q533 42 438 74L289 223L215 444L215 592Q220 608 238.50 663Q257 718 289 813L438 963L659 1036L881 1036L1030 963L1106 887Q1120 858 1138.50 820.50Q1157 783 1180 737L1180 573M1075 606L1075 801L1008 936L872 1004L666 1004Q634 988 599.50 970.50Q565 953 528 934L389 797L326 606L1075 606Z"  horiz-adv-x="1395" vert-adv-y="2048"  />

      
      <glyph glyph-name="uniec" unicode="&#xec;" d="M811 1249L799 1219L143 1438L143 1546L811 1249M805 0L303 0L303 33L502 33L502 1004L303 1004L303 1036L606 1036L606 33L805 33L805 0Z"  horiz-adv-x="1036" vert-adv-y="2048"  />

      
      <glyph glyph-name="unied" unicode="&#xed;" d="M893 1438L238 1219L225 1249L893 1546L893 1438M805 0L303 0L303 33L502 33L502 1004L303 1004L303 1036L606 1036L606 33L805 33L805 0Z"  horiz-adv-x="1036" vert-adv-y="2048"  />

      
      <glyph glyph-name="uniee" unicode="&#xee;" d="M887 1247L868 1221L518 1432L168 1221L150 1247L518 1542L887 1247M805 0L303 0L303 33L502 33L502 1004L303 1004L303 1036L606 1036L606 33L805 33L805 0Z"  horiz-adv-x="1036" vert-adv-y="2048"  />

      
      <glyph glyph-name="unief" unicode="&#xef;" d="M899 1450L805 1356L711 1450L805 1544L899 1450M326 1450L231 1356L137 1450L231 1544L326 1450M805 0L303 0L303 33L502 33L502 1004L303 1004L303 1036L606 1036L606 33L805 33L805 0Z"  horiz-adv-x="1036" vert-adv-y="2048"  />

      
      <glyph glyph-name="unif1" unicode="&#xf1;" d="M1319 1509L1098 1290L942 1290Q906 1326 870 1362Q834 1398 799 1434L594 1434L383 1292L362 1319L584 1538L739 1538Q775 1502 811 1466Q847 1430 883 1395L1087 1395L1298 1536L1319 1509M1450 0L948 0L948 33L1147 33L1147 801L1079 936L944 1004L807 1004Q758 987 706.50 970Q655 953 598 934L463 799L463 33L662 33L662 0L160 0L160 33L358 33L358 1004L160 1004L160 1036L463 1036L463 844L582 963L803 1036L950 1036Q967 1031 1023 1013Q1079 995 1176 963L1251 809L1251 33L1450 33L1450 0Z"  horiz-adv-x="1610" vert-adv-y="2048"  />

      
      <glyph glyph-name="unif2" unicode="&#xf2;" d="M1026 1249L1016 1219L287 1438L287 1546L1026 1249M1180 444L1106 223L956 74L735 0L588 0L367 74L217 223L143 444L143 592Q148 608 166.50 663Q185 718 217 813L367 963L588 1036L735 1036L956 963L1106 813L1180 592L1180 444M1075 449L1075 588Q1070 604 1052.50 655.50Q1035 707 1006 797Q978 826 943 860Q908 894 866 934L729 1004L594 1004Q536 977 457 934Q402 881 317 797L248 588L248 449L317 240Q346 211 380.50 176.50Q415 142 457 102L594 33L729 33Q761 49 795 66Q829 83 866 102L1006 240L1075 449Z"  horiz-adv-x="1395" vert-adv-y="2048"  />

      
      <glyph glyph-name="unif3" unicode="&#xf3;" d="M1036 1438L307 1219L297 1249L1036 1546L1036 1438M1180 444L1106 223L956 74L735 0L588 0L367 74L217 223L143 444L143 592Q148 608 166.50 663Q185 718 217 813L367 963L588 1036L735 1036L956 963L1106 813L1180 592L1180 444M1075 449L1075 588Q1070 604 1052.50 655.50Q1035 707 1006 797Q978 826 943 860Q908 894 866 934L729 1004L594 1004Q536 977 457 934Q402 881 317 797L248 588L248 449L317 240Q346 211 380.50 176.50Q415 142 457 102L594 33L729 33Q761 49 795 66Q829 83 866 102L1006 240L1075 449Z"  horiz-adv-x="1395" vert-adv-y="2048"  />

      
      <glyph glyph-name="unif4" unicode="&#xf4;" d="M1030 1247L1012 1221L662 1432L311 1221L293 1247L662 1542L1030 1247M1180 444L1106 223L956 74L735 0L588 0L367 74L217 223L143 444L143 592Q148 608 166.50 663Q185 718 217 813L367 963L588 1036L735 1036L956 963L1106 813L1180 592L1180 444M1075 449L1075 588Q1070 604 1052.50 655.50Q1035 707 1006 797Q978 826 943 860Q908 894 866 934L729 1004L594 1004Q536 977 457 934Q402 881 317 797L248 588L248 449L317 240Q346 211 380.50 176.50Q415 142 457 102L594 33L729 33Q761 49 795 66Q829 83 866 102L1006 240L1075 449Z"  horiz-adv-x="1395" vert-adv-y="2048"  />

      
      <glyph glyph-name="unif5" unicode="&#xf5;" d="M1079 1606L1002 1447Q989 1421 979.50 1401.50Q970 1382 963 1368L883 1290L801 1290L514 1434L453 1434L244 1223L321 1381Q326 1392 336 1411.50Q346 1431 360 1460L440 1538L522 1538L809 1395L870 1395L1079 1606M1180 444L1106 223L956 74L735 0L588 0L367 74L217 223L143 444L143 592Q148 608 166.50 663Q185 718 217 813L367 963L588 1036L735 1036L956 963L1106 813L1180 592L1180 444M1075 449L1075 588Q1070 604 1052.50 655.50Q1035 707 1006 797Q978 826 943 860Q908 894 866 934L729 1004L594 1004Q536 977 457 934Q402 881 317 797L248 588L248 449L317 240Q346 211 380.50 176.50Q415 142 457 102L594 33L729 33Q761 49 795 66Q829 83 866 102L1006 240L1075 449Z"  horiz-adv-x="1395" vert-adv-y="2048"  />

      
      <glyph glyph-name="unif6" unicode="&#xf6;" d="M1114 1450L1020 1356L926 1450L1020 1544L1114 1450M397 1450L303 1356L209 1450L303 1544L397 1450M1180 444L1106 223L956 74L735 0L588 0L367 74L217 223L143 444L143 592Q148 608 166.50 663Q185 718 217 813L367 963L588 1036L735 1036L956 963L1106 813L1180 592L1180 444M1075 449L1075 588Q1070 604 1052.50 655.50Q1035 707 1006 797Q978 826 943 860Q908 894 866 934L729 1004L594 1004Q536 977 457 934Q402 881 317 797L248 588L248 449L317 240Q346 211 380.50 176.50Q415 142 457 102L594 33L729 33Q761 49 795 66Q829 83 866 102L1006 240L1075 449Z"  horiz-adv-x="1395" vert-adv-y="2048"  />

      
      <glyph glyph-name="unif7" unicode="&#xf7;" d="M684 948L590 854L496 948L590 1042L684 948M1020 502L160 502L160 535L1020 535L1020 502M684 88L590-5L496 88L590 182L684 88Z"  horiz-adv-x="1323" vert-adv-y="2048"  />

      
      <glyph glyph-name="unif8" unicode="&#xf8;" d="M1180 444L1106 223L956 74L735 0L588 0L367 74L303 137L172 4L147 29L281 160L217 223L143 444L143 592Q148 608 166.50 663Q185 718 217 813L367 963L588 1036L735 1036L956 963L1020 899L1151 1032L1176 1008L1042 877L1106 813L1180 592L1180 444M961 842Q942 862 918.50 885Q895 908 866 934L729 1004L594 1004Q536 977 457 934Q402 881 317 797L248 588L248 449L317 240L338 219L961 842M1075 449L1075 588Q1070 604 1052.50 655.50Q1035 707 1006 797L985 817L362 195Q381 175 404.50 152Q428 129 457 102L594 33L729 33Q761 49 795 66Q829 83 866 102L1006 240L1075 449Z"  horiz-adv-x="1395" vert-adv-y="2048"  />

      
      <glyph glyph-name="unif9" unicode="&#xf9;" d="M1169 1251L1159 1219L358 1438L358 1544L1169 1251M1450 0L1147 0L1147 193L1028 74L807 0L659 0L434 74L358 227L358 1004L160 1004L160 1036L463 1036L463 236L530 100L666 33L803 33Q819 38 870.50 55.50Q922 73 1012 102L1147 238L1147 1004L948 1004L948 1036L1251 1036L1251 33L1450 33L1450 0Z"  horiz-adv-x="1610" vert-adv-y="2048"  />

      
      <glyph glyph-name="unifa" unicode="&#xfa;" d="M1251 1438L451 1219L440 1251L1251 1544L1251 1438M1450 0L1147 0L1147 193L1028 74L807 0L659 0L434 74L358 227L358 1004L160 1004L160 1036L463 1036L463 236L530 100L666 33L803 33Q819 38 870.50 55.50Q922 73 1012 102L1147 238L1147 1004L948 1004L948 1036L1251 1036L1251 33L1450 33L1450 0Z"  horiz-adv-x="1610" vert-adv-y="2048"  />

      
      <glyph glyph-name="unifb" unicode="&#xfb;" d="M1174 1247L1155 1221L768 1432L383 1221L365 1247L768 1542L1174 1247M1450 0L1147 0L1147 193L1028 74L807 0L659 0L434 74L358 227L358 1004L160 1004L160 1036L463 1036L463 236L530 100L666 33L803 33Q819 38 870.50 55.50Q922 73 1012 102L1147 238L1147 1004L948 1004L948 1036L1251 1036L1251 33L1450 33L1450 0Z"  horiz-adv-x="1610" vert-adv-y="2048"  />

      
      <glyph glyph-name="unifc" unicode="&#xfc;" d="M1257 1450L1163 1356L1069 1450L1163 1544L1257 1450M469 1450L375 1356L281 1450L375 1544L469 1450M1450 0L1147 0L1147 193L1028 74L807 0L659 0L434 74L358 227L358 1004L160 1004L160 1036L463 1036L463 236L530 100L666 33L803 33Q819 38 870.50 55.50Q922 73 1012 102L1147 238L1147 1004L948 1004L948 1036L1251 1036L1251 33L1450 33L1450 0Z"  horiz-adv-x="1610" vert-adv-y="2048"  />

      
      <glyph glyph-name="uniff" unicode="&#xff;" d="M1186 1450L1092 1356L997 1450L1092 1544L1186 1450M469 1450L375 1356L281 1450L375 1544L469 1450M1307 1004L1174 1004L890 341Q873 295 837.50 213Q802 131 748 10L652-183Q641-213 604-280L457-427L307-501L225-501L137-413L231-318L315-400L291-425L231-364L182-413L238-468L299-468Q331-452 365.50-434.50Q400-417 436-398L529-305Q545-293 575-259L715 16L293 1004L160 1004L160 1036L590 1036L590 1004L399 1004L764 131L1139 1004L877 1004L877 1036L1307 1036L1307 1004Z"  horiz-adv-x="1395" vert-adv-y="2048"  />

      
      <glyph glyph-name="uni2126" unicode="&#x2126;" d="M1323 0L942 0L860 82L860 166L1005 312Q1015 322 1033 340Q1051 358 1077 385Q1080 391 1086 402.50Q1092 414 1101 431L1149 524Q1204 657 1219 735L1219 874L1147 1157Q1133 1185 1115.50 1219.50Q1098 1254 1077 1296L984 1389Q977 1397 966 1408.50Q955 1420 938 1436L801 1505L666 1505Q600 1473 528 1436Q524 1432 513 1420.50Q502 1409 482 1389L389 1296L319 1157L272 968Q268 955 262 932Q256 909 248 874L248 735Q250 729 255.50 711.50Q261 694 271 665L317 524L365 431Q370 418 389 385L606 166L606 82L524 0L143 0L143 332L244 33L440 33L502 94L502 154L360 295Q348 306 330 324Q312 342 289 365L217 512Q173 606 143 731L143 879L215 1169L264 1268Q270 1285 289 1317L438 1464L657 1538L809 1538L811 1536L1028 1464L1178 1317Q1180 1312 1186 1300Q1192 1288 1202 1268L1251 1169L1299 976Q1303 963 1309 938.50Q1315 914 1323 879L1323 731Q1323 713 1314 694Q1307 680 1303.50 671Q1300 662 1298 658L1249 512L1202 414Q1197 399 1178 365L965 154L965 94L1026 33L1223 33L1323 332L1323 0Z"  horiz-adv-x="1610" vert-adv-y="2048"  />

      
      <glyph glyph-name="uni0394" unicode="&#x0394;" d="M1331 0L135 0L722 1538L744 1538L1331 0M1184 104L698 1384L211 104L1184 104Z"  horiz-adv-x="1466" vert-adv-y="2048"  />

      
      <glyph glyph-name="uni2206" unicode="&#x2206;" d="M1331 0L135 0L722 1538L744 1538L1331 0M1184 104L698 1384L211 104L1184 104Z"  horiz-adv-x="1466" vert-adv-y="2048"  />

      
      <glyph glyph-name="uni0178" unicode="&#x0178;" d="M1257 1737L1163 1642L1069 1737L1163 1831L1257 1737M469 1737L375 1642L281 1737L375 1831L469 1737M1450 1505L1315 1505L821 729L821 33L1020 33L1020 0L518 0L518 33L717 33L717 729L223 1505L88 1505L88 1538L518 1538L518 1505L334 1505L805 764L1276 1505L1020 1505L1020 1538L1450 1538L1450 1505Z"  horiz-adv-x="1538" vert-adv-y="2048"  />

      
      <glyph glyph-name="uni0141" unicode="&#x0141;" d="M1251 0L160 0L160 33L358 33L358 479L309 430L160 430L160 463L225 463L358 596L358 1505L160 1505L160 1538L662 1538L662 1505L463 1505L463 700L862 1100L965 1458L965 1085L463 584L463 33L1149 33L1219 449L1251 446L1251 0Z"  horiz-adv-x="1323" vert-adv-y="2048"  />

      
      <glyph glyph-name="uni0142" unicode="&#x0142;" d="M662 0L160 0L160 33L358 33L358 803L287 717L178 717L178 750L221 750L358 913L358 1505L160 1505L160 1538L463 1538L463 1038L575 1171L655 1454L655 1157L463 928L463 33L662 33L662 0Z"  horiz-adv-x="821" vert-adv-y="2048"  />

      
      <glyph glyph-name="uni0160" unicode="&#x0160;" d="M961 1868L733 1642L479 1896L596 1896L770 1724L936 1892L961 1868M1251 225L1100 74L879 0L659 0Q643 5 588 23.50Q533 42 438 74L309 201L215-83L215 547L317 240L455 102L664 33L874 33L1083 102L1219 238L1219 512Q1163 569 1081 647Q1075 650 1063.50 656Q1052 662 1035 671L942 719L655 814Q599 830 463 886L365 934L289 1010Q288 1012 270 1047.50Q252 1083 217 1153L215 1157L215 1313L367 1464L588 1538L807 1538L1028 1464L1157 1337L1251 1622L1251 991L1149 1298L1012 1436L803 1505L592 1505L383 1436L248 1300L248 1169Q276 1140 310 1106Q344 1072 385 1034Q389 1032 400.50 1026Q412 1020 431 1010L524 963L811 867Q865 850 1003 795L1102 748L1178 672L1251 524L1251 225Z"  horiz-adv-x="1466" vert-adv-y="2048"  />

      
      <glyph glyph-name="uni0106" unicode="&#x0106;" d="M1180 1894L815 1747L717 1616L717 1782L1081 1929L1180 2060L1180 1894M1251 991L1149 1298L1012 1436L803 1505L666 1505Q600 1473 528 1436L389 1296L317 1157Q315 1151 309.50 1133.50Q304 1116 294 1087L248 946L248 592L294 451Q297 441 303 424Q309 407 317 381Q318 378 389 242L528 102Q589 70 666 33L803 33Q819 38 870.50 55.50Q922 73 1012 102Q1071 159 1149 242L1221 383L1249 367L1178 221L1028 74L807 0L659 0Q643 5 588 23.50Q533 42 438 74L289 221Q287 225 281 237.50Q275 250 265 270L217 369L168 515Q166 520 162 529Q158 538 152 551Q143 570 143 588L143 950Q143 967 152 987Q159 1001 162.50 1010Q166 1019 168 1023L217 1169L265 1268Q270 1283 289 1317L438 1464L659 1538L807 1538L1028 1464L1157 1337L1251 1622L1251 991Z"  horiz-adv-x="1538" vert-adv-y="2048"  />

      
      <glyph glyph-name="uni0107" unicode="&#x0107;" d="M993 1368L700 1245L602 1114L602 1280L895 1403L993 1534L993 1368M1108 727L1020 639L926 733L1008 817L1032 793L971 733L1020 684L1075 739L1075 799Q1047 828 1013 862Q979 896 938 934L801 1004L594 1004Q536 977 457 934Q402 881 317 797L248 588L248 449L317 240Q346 211 380.50 176.50Q415 142 457 102L594 33L731 33L940 102L1079 244L1104 219L956 74L735 0L588 0L367 74L217 223L143 444L143 592Q148 608 166.50 663Q185 718 217 813L367 963L588 1036L809 1036L958 963L1108 811L1108 727Z"  horiz-adv-x="1395" vert-adv-y="2048"  />

      
      <glyph glyph-name="uni017D" unicode="&#x017D;" d="M889 1868L662 1642L408 1896L524 1896L698 1724L864 1892L889 1868M1192 1538L260 33L1077 33L1147 449L1180 446L1180 0L131 0L1063 1505L246 1505L176 1090L143 1092L143 1538L1192 1538Z"  horiz-adv-x="1466" vert-adv-y="2048"  />

      
      <glyph glyph-name="uni010C" unicode="&#x010C;" d="M961 1868L733 1642L479 1896L596 1896L770 1724L936 1892L961 1868M1251 991L1149 1298L1012 1436L803 1505L666 1505Q600 1473 528 1436L389 1296L317 1157Q315 1151 309.50 1133.50Q304 1116 294 1087L248 946L248 592L294 451Q297 441 303 424Q309 407 317 381Q318 378 389 242L528 102Q589 70 666 33L803 33Q819 38 870.50 55.50Q922 73 1012 102Q1071 159 1149 242L1221 383L1249 367L1178 221L1028 74L807 0L659 0Q643 5 588 23.50Q533 42 438 74L289 221Q287 225 281 237.50Q275 250 265 270L217 369L168 515Q166 520 162 529Q158 538 152 551Q143 570 143 588L143 950Q143 967 152 987Q159 1001 162.50 1010Q166 1019 168 1023L217 1169L265 1268Q270 1283 289 1317L438 1464L659 1538L807 1538L1028 1464L1157 1337L1251 1622L1251 991Z"  horiz-adv-x="1538" vert-adv-y="2048"  />

      
      <glyph glyph-name="uniad" unicode="&#xad;" d="M1522 645L231 645L231 678L1522 678L1522 645Z"  horiz-adv-x="1825" vert-adv-y="2048"  />

      
      <glyph glyph-name="uni2212" unicode="&#x2212;" d="M1522 645L231 645L231 678L1522 678L1522 645Z"  horiz-adv-x="1825" vert-adv-y="2048"  />

      
      <glyph glyph-name="uni017E" unicode="&#x017E;" d="M817 1366L590 1141L336 1395L453 1395L627 1223L793 1391L817 1366M1053 1036L264 33L936 33L1036 436L1036 0L127 0L915 1004L244 1004L143 600L143 1036L1053 1036Z"  horiz-adv-x="1323" vert-adv-y="2048"  />

      
      <glyph glyph-name="uni03A9" unicode="&#x03A9;" d="M1323 0L942 0L860 82L860 166L1005 312Q1015 322 1033 340Q1051 358 1077 385Q1080 391 1086 402.50Q1092 414 1101 431L1149 524Q1204 657 1219 735L1219 874L1147 1157Q1133 1185 1115.50 1219.50Q1098 1254 1077 1296L984 1389Q977 1397 966 1408.50Q955 1420 938 1436L801 1505L666 1505Q600 1473 528 1436Q524 1432 513 1420.50Q502 1409 482 1389L389 1296L319 1157L272 968Q268 955 262 932Q256 909 248 874L248 735Q250 729 255.50 711.50Q261 694 271 665L317 524L365 431Q370 418 389 385L606 166L606 82L524 0L143 0L143 332L244 33L440 33L502 94L502 154L360 295Q348 306 330 324Q312 342 289 365L217 512Q173 606 143 731L143 879L215 1169L264 1268Q270 1285 289 1317L438 1464L657 1538L809 1538L811 1536L1028 1464L1178 1317Q1180 1312 1186 1300Q1192 1288 1202 1268L1251 1169L1299 976Q1303 963 1309 938.50Q1315 914 1323 879L1323 731Q1323 713 1314 694Q1307 680 1303.50 671Q1300 662 1298 658L1249 512L1202 414Q1197 399 1178 365L965 154L965 94L1026 33L1223 33L1323 332L1323 0Z"  horiz-adv-x="1610" vert-adv-y="2048"  />

      
      <glyph glyph-name="uni0161" unicode="&#x0161;" d="M889 1366L662 1141L408 1395L524 1395L698 1223L864 1391L889 1366M1036 154L958 74Q929 60 892 41.50Q855 23 809 0L514 0Q486 13 449 31Q412 49 365 74L307 131L215-52L215 373L283 238Q292 219 317 170L385 102L522 33L801 33Q827 45 861 62Q895 79 938 102L1004 166L1004 297Q981 322 938 360Q934 362 922.50 368Q911 374 892 384L799 432L560 527Q501 550 447 574Q393 598 342 623Q329 628 316.50 634Q304 640 293 647L215 727L215 883L293 963Q322 977 359 995.50Q396 1014 442 1036L737 1036Q766 1023 803.50 1004.50Q841 986 887 963Q900 949 914 935Q928 921 944 905L1036 1090L1036 664L968 799Q963 808 955 824.50Q947 841 934 866Q910 891 893 907.50Q876 924 866 934L729 1004L451 1004Q425 992 390.50 974.50Q356 957 313 934Q299 920 282.50 903.50Q266 887 248 870L248 811Q259 798 275.50 782.50Q292 767 313 748Q317 746 328.50 740Q340 734 360 724L453 676L692 580Q819 529 909 485Q933 475 958 461Q976 443 995.50 423Q1015 403 1036 381L1036 154Z"  horiz-adv-x="1251" vert-adv-y="2048"  />

      
      <glyph glyph-name="uni80" unicode="&#x80;" d="M1075 615L171 615Q223 383 412 231Q602 77 846 77Q1150 77 1354 297L1390 225Q1163 0 846 0Q569 0 358 175Q147 350 93 615L-76 615L-37 692L81 692Q79 712 78 731Q77 750 77 770Q77 789 78 808Q79 827 81 846L-37 846L0 923L92 923Q146 1187 358 1363Q569 1538 846 1538Q1163 1538 1390 1313L1354 1241Q1150 1461 846 1461Q602 1461 413 1308Q224 1156 171 923L1230 923L1192 846L158 846Q156 827 155 808Q154 789 154 769Q154 749 155 730Q156 711 158 692L1115 692L1075 615Z"  horiz-adv-x="1537" vert-adv-y="2048"  />

      
      <glyph glyph-name="uni20AC" unicode="&#x20AC;" d="M1075 615L171 615Q223 383 412 231Q602 77 846 77Q1150 77 1354 297L1390 225Q1163 0 846 0Q569 0 358 175Q147 350 93 615L-76 615L-37 692L81 692Q79 712 78 731Q77 750 77 770Q77 789 78 808Q79 827 81 846L-37 846L0 923L92 923Q146 1187 358 1363Q569 1538 846 1538Q1163 1538 1390 1313L1354 1241Q1150 1461 846 1461Q602 1461 413 1308Q224 1156 171 923L1230 923L1192 846L158 846Q156 827 155 808Q154 789 154 769Q154 749 155 730Q156 711 158 692L1115 692L1075 615Z"  horiz-adv-x="1537" vert-adv-y="2048"  />

      
      <glyph glyph-name="unibc" unicode="&#xbc;" d="M662 717L160 717L160 750L358 750L358 1626L313 1579Q287 1566 251.50 1548Q216 1530 168 1507L152 1536Q219 1569 293 1608Q298 1613 312.50 1627Q327 1641 350 1664L463 1776L463 750L662 750L662 717M1464 1800L317-278L289-261L1436 1817L1464 1800M1665 72L1466 72L1466-214L1362-214L1362 72L842 72L1466 852L1466 104L1665 104L1665 72M1362 104L1362 668L911 104L1362 104Z"  horiz-adv-x="1968" vert-adv-y="2048"  />

      
      <glyph glyph-name="unibd" unicode="&#xbd;" d="M1821 4L1599-214L1446-214L1231-71L1098-71L1036-132L1036-198L1004-198L1004-50L1077 98L1153 174Q1181 188 1217 205.50Q1253 223 1298 246L1300 246L1581 387L1649 522L1649 586L1581 721L1446 788L1239 788L1104 721L1036 586L1036 524L1092 469L1141 518L1079 578L1104 602L1186 518L1092 424L1004 512L1004 594L1079 745L1231 821L1452 821L1677 748L1753 594L1753 514L1677 362L1434 265Q1322 221 1220 169Q1214 166 1202.50 160Q1191 154 1174 145L1129 100Q1125 97 1119.50 91.50Q1114 86 1106 78L1036-58L1036-87L1085-38L1237-38Q1261-38 1344-74Q1428-110 1452-110L1589-110L1821 4M662 717L160 717L160 750L358 750L358 1626L313 1579Q287 1566 251.50 1548Q216 1530 168 1507L152 1536Q219 1569 293 1608Q298 1613 312.50 1627Q327 1641 350 1664L463 1776L463 750L662 750L662 717M1464 1800L317-278L289-261L1436 1817L1464 1800Z"  horiz-adv-x="2040" vert-adv-y="2048"  />

      
      <glyph glyph-name="unid0" unicode="&#xd0;" d="M1395 588Q1395 570 1386 551Q1379 537 1375.50 528Q1372 519 1370 515L1321 369L1273 270Q1268 255 1249 221L1100 74L879 0L160 0L160 33L358 33L358 788L231 788L231 821L358 821L358 1505L160 1505L160 1538L879 1538L1100 1464L1249 1317Q1252 1310 1258 1298Q1264 1286 1273 1268L1321 1169L1370 1023Q1372 1018 1376 1009Q1380 1000 1386 987Q1395 967 1395 950L1395 588M1290 592L1290 946L1244 1087Q1241 1097 1235 1114Q1229 1131 1221 1157Q1220 1160 1149 1296L1010 1436Q948 1467 872 1505L463 1505L463 821L805 821L805 788L463 788L463 33L872 33Q938 64 1010 102L1149 242L1221 381Q1225 392 1230.50 410Q1236 428 1244 451L1290 592Z"  horiz-adv-x="1610" vert-adv-y="2048"  />

      
      <glyph glyph-name="unidd" unicode="&#xdd;" d="M1180 1722L449 1649L442 1681L1180 1829L1180 1722M1450 1505L1315 1505L821 729L821 33L1020 33L1020 0L518 0L518 33L717 33L717 729L223 1505L88 1505L88 1538L518 1538L518 1505L334 1505L805 764L1276 1505L1020 1505L1020 1538L1450 1538L1450 1505Z"  horiz-adv-x="1538" vert-adv-y="2048"  />

      
      <glyph glyph-name="unide" unicode="&#xde;" d="M1395 657Q1381 626 1362.50 589.50Q1344 553 1321 508L1243 432L1022 358L463 358L463 33L662 33L662 0L160 0L160 33L358 33L358 1505L160 1505L160 1538L662 1538L662 1505L463 1505L463 1180L1022 1180L1243 1106L1321 1030L1395 881L1395 657M1290 666L1290 872L1221 1010L1153 1077Q1128 1090 1094 1107.50Q1060 1125 1016 1147L463 1147L463 391L1016 391Q1042 404 1076.50 421Q1111 438 1153 461L1221 528L1290 666Z"  horiz-adv-x="1610" vert-adv-y="2048"  />

      
      <glyph glyph-name="unif0" unicode="&#xf0;" d="M1180 444L1106 223L956 74L735 0L588 0L367 74L217 223L168 370Q158 391 143 444L143 592Q148 608 166.50 663Q185 718 217 813L367 963L588 1036L737 1036Q773 1019 810.50 1001Q848 983 887 963Q945 903 1028 819L1004 942Q1001 948 989 971Q977 994 957 1036L862 1225L795 1292L733 1323L526 1221L510 1249L698 1341Q664 1360 618 1383.50Q572 1407 512 1436L297 1505L307 1538L596 1466Q601 1464 618 1455Q635 1446 666 1431L805 1362L1012 1464L1028 1436L840 1343L887 1321L963 1245L1060 1051Q1067 1038 1079 1014Q1091 990 1108 954L1180 592L1180 444M1075 449L1075 588Q1070 604 1052.50 655.50Q1035 707 1006 797Q978 826 943 860Q908 894 866 934L729 1004L594 1004Q536 977 457 934Q402 881 317 797L248 588L248 449L317 240Q346 211 380.50 176.50Q415 142 457 102L594 33L729 33Q761 49 795 66Q829 83 866 102L1006 240L1075 449Z"  horiz-adv-x="1395" vert-adv-y="2048"  />

      
      <glyph glyph-name="unifd" unicode="&#xfd;" d="M1180 1438L379 1219L369 1251L1180 1544L1180 1438M1307 1004L1174 1004L890 341Q873 295 837.50 213Q802 131 748 10L652-183Q641-213 604-280L457-427L307-501L225-501L137-413L231-318L315-400L291-425L231-364L182-413L238-468L299-468Q331-452 365.50-434.50Q400-417 436-398L529-305Q545-293 575-259L715 16L293 1004L160 1004L160 1036L590 1036L590 1004L399 1004L764 131L1139 1004L877 1004L877 1036L1307 1036L1307 1004Z"  horiz-adv-x="1395" vert-adv-y="2048"  />

      
      </font>
</defs>
</svg>
